<svg width="106" height="116" viewBox="0 0 106 116" fill="none" xmlns="http://www.w3.org/2000/svg">
<g clip-path="url(#clip0_24569_13478)">
<path d="M45 4.6188C49.9504 1.76068 56.0496 1.76068 61 4.6188L95.2295 24.3812C100.18 27.2393 103.229 32.5214 103.229 38.2376V77.7624C103.229 83.4786 100.18 88.7607 95.2295 91.6188L61 111.381C56.0496 114.239 49.9504 114.239 45 111.381L10.7705 91.6188C5.82011 88.7607 2.77053 83.4786 2.77053 77.7624V38.2376C2.77053 32.5214 5.82011 27.2393 10.7705 24.3812L45 4.6188Z" fill="#4BA85C"/>
<mask id="mask0_24569_13478" style="mask-type:luminance" maskUnits="userSpaceOnUse" x="2" y="2" width="102" height="112">
<path d="M45 4.6188C49.9504 1.76068 56.0496 1.76068 61 4.6188L95.2295 24.3812C100.18 27.2393 103.229 32.5214 103.229 38.2376V77.7624C103.229 83.4786 100.18 88.7607 95.2295 91.6188L61 111.381C56.0496 114.239 49.9504 114.239 45 111.381L10.7705 91.6188C5.82011 88.7607 2.77053 83.4786 2.77053 77.7624V38.2376C2.77053 32.5214 5.82011 27.2393 10.7705 24.3812L45 4.6188Z" fill="white"/>
</mask>
<g mask="url(#mask0_24569_13478)">
<path d="M72.7136 55.855C72.8463 55.6252 72.9126 55.5103 72.9575 55.4073C73.3307 54.5521 73.0628 53.5524 72.312 52.9983C72.2217 52.9316 72.1068 52.8653 71.877 52.7326C70.4981 51.9366 69.8087 51.5385 69.191 51.269C64.0595 49.0302 58.0618 50.6373 54.7372 55.142C54.337 55.6842 53.939 56.3736 53.1429 57.7524L52 59.7319L53.9795 60.8748C55.3583 61.6708 56.0478 62.0688 56.6654 62.3383C61.7969 64.5772 67.7947 62.9701 71.1193 58.4654C71.5195 57.9232 71.9175 57.2338 72.7136 55.855Z" fill="#EFCF33"/>
<path d="M95.0766 89.1208C95.2093 88.891 95.2756 88.7761 95.3206 88.6732C95.6937 87.8179 95.4258 86.8183 94.6751 86.2642C94.5847 86.1975 94.4698 86.1312 94.24 85.9985C92.8612 85.2024 92.1718 84.8044 91.5541 84.5349C86.4226 82.2961 80.4248 83.9032 77.1002 88.4078C76.7 88.95 76.302 89.6395 75.5059 91.0183L74.3631 92.9978L76.3426 94.1406C77.7214 94.9367 78.4108 95.3347 79.0285 95.6042C84.16 97.8431 90.1578 96.236 93.4824 91.7313C93.8825 91.1891 94.2806 90.4997 95.0766 89.1208Z" fill="#EFCF33"/>
<path d="M86.7057 104.993C86.8393 104.762 86.9061 104.646 86.951 104.542C87.3236 103.679 87.0324 102.66 86.2491 102.087C86.1548 102.018 86.0352 101.949 85.7961 101.81C84.3609 100.982 83.6433 100.568 83.0016 100.285C77.671 97.936 71.5027 99.4796 68.1368 104.005C67.7316 104.549 67.3309 105.243 66.5293 106.632L65.3786 108.625L67.439 109.814C68.8742 110.643 69.5917 111.057 70.2334 111.34C75.564 113.689 81.7323 112.145 85.0982 107.62C85.5034 107.076 85.9042 106.381 86.7057 104.993Z" fill="#EFCF33"/>
<path d="M32.7229 53.1208C32.8555 52.891 32.9219 52.7761 32.9668 52.6732C33.3399 51.8179 33.0721 50.8183 32.3213 50.2642C32.2309 50.1975 32.116 50.1312 31.8862 49.9985C30.5074 49.2024 29.818 48.8044 29.2003 48.5349C24.0688 46.2961 18.071 47.9032 14.7464 52.4078C14.3463 52.95 13.9482 53.6395 13.1522 55.0183L12.0093 56.9978L13.9888 58.1406C15.3676 58.9367 16.057 59.3347 16.6747 59.6042C21.8062 61.8431 27.804 60.236 31.1286 55.7313C31.5288 55.1891 31.9268 54.4997 32.7229 53.1208Z" fill="#EFCF33"/>
<path d="M63.7136 71.4436C63.8463 71.2138 63.9126 71.0989 63.9575 70.9959C64.3307 70.1407 64.0628 69.1411 63.312 68.587C63.2217 68.5203 63.1068 68.4539 62.877 68.3213C61.4981 67.5252 60.8087 67.1272 60.191 66.8577C55.0595 64.6188 49.0618 66.2259 45.7372 70.7306C45.337 71.2728 44.939 71.9622 44.1429 73.341L43 75.3205L44.9795 76.4634C46.3583 77.2594 47.0478 77.6575 47.6654 77.927C52.7969 80.1658 58.7947 78.5587 62.1193 74.0541C62.5195 73.5118 62.9175 72.8224 63.7136 71.4436Z" fill="#EFCF33"/>
<path d="M23.7229 68.7092C23.8555 68.4794 23.9219 68.3645 23.9668 68.2616C24.3399 67.4063 24.0721 66.4067 23.3213 65.8526C23.2309 65.7859 23.116 65.7196 22.8862 65.5869C21.5074 64.7908 20.818 64.3928 20.2003 64.1233C15.0688 61.8844 9.07104 63.4915 5.74645 67.9962C5.34627 68.5384 4.94824 69.2278 4.15217 70.6067L3.00932 72.5861L4.9888 73.729C6.36763 74.5251 7.05704 74.9231 7.67471 75.1926C12.8062 77.4314 18.804 75.8243 22.1286 71.3197C22.5288 70.7775 22.9268 70.088 23.7229 68.7092Z" fill="#EFCF33"/>
<path d="M54.7136 87.032C54.8463 86.8022 54.9126 86.6873 54.9575 86.5843C55.3307 85.7291 55.0628 84.7294 54.312 84.1753C54.2217 84.1086 54.1068 84.0423 53.877 83.9096C52.4981 83.1136 51.8087 82.7155 51.191 82.446C46.0595 80.2072 40.0618 81.8143 36.7372 86.319C36.337 86.8612 35.939 87.5506 35.1429 88.9294L34 90.9089L35.9795 92.0518C37.3583 92.8478 38.0478 93.2458 38.6654 93.5153C43.7969 95.7542 49.7947 94.1471 53.1193 89.6424C53.5195 89.1002 53.9175 88.4108 54.7136 87.032Z" fill="#EFCF33"/>
<path d="M14.7229 84.2978C14.8555 84.068 14.9219 83.9531 14.9668 83.8502C15.3399 82.9949 15.0721 81.9953 14.3213 81.4412C14.2309 81.3745 14.116 81.3082 13.8862 81.1755C12.5074 80.3794 11.818 79.9814 11.2003 79.7119C6.06882 77.4731 0.0710351 79.0802 -3.25355 83.5848C-3.65373 84.127 -4.05176 84.8165 -4.84783 86.1953L-5.99068 88.1748L-4.0112 89.3176C-2.63237 90.1137 -1.94296 90.5117 -1.32529 90.7812C3.80622 93.0201 9.804 91.413 13.1286 86.9083C13.5288 86.3661 13.9268 85.6767 14.7229 84.2978Z" fill="#EFCF33"/>
<path d="M45.7136 102.62C45.8463 102.391 45.9126 102.276 45.9575 102.173C46.3307 101.317 46.0628 100.318 45.312 99.7637C45.2217 99.697 45.1068 99.6307 44.877 99.498C43.4981 98.7019 42.8087 98.3039 42.191 98.0344C37.0595 95.7956 31.0618 97.4027 27.7372 101.907C27.337 102.45 26.939 103.139 26.1429 104.518L25 106.497L26.9795 107.64C28.3583 108.436 29.0478 108.834 29.6654 109.104C34.7969 111.343 40.7947 109.735 44.1193 105.231C44.5195 104.689 44.9175 103.999 45.7136 102.62Z" fill="#EFCF33"/>
<path d="M45.0007 39.855C45.1334 39.6252 45.1997 39.5103 45.2664 39.4199C45.8205 38.6691 46.8201 38.4013 47.6754 38.7744C47.7783 38.8193 47.8932 38.8857 48.123 39.0183C49.5019 39.8144 50.1913 40.2124 50.7335 40.6126C55.2382 43.9372 56.8453 49.935 54.6064 55.0665C54.3369 55.6842 53.9389 56.3736 53.1428 57.7524L52 59.7319L50.0205 58.589C48.6417 57.793 47.9522 57.3949 47.41 56.9948C42.9054 53.6702 41.2983 47.6724 43.5371 42.5409C43.8066 41.9232 44.2046 41.2338 45.0007 39.855Z" fill="#EFCF33"/>
<path d="M67.364 73.1208C67.4967 72.891 67.563 72.7761 67.6297 72.6858C68.1838 71.935 69.1834 71.6671 70.0387 72.0403C70.1416 72.0852 70.2565 72.1515 70.4863 72.2842C71.8651 73.0803 72.5546 73.4783 73.0968 73.8785C77.6014 77.2031 79.2085 83.2009 76.9697 88.3324C76.7002 88.95 76.3022 89.6395 75.5061 91.0183L74.3632 92.9978L72.3838 91.8549C71.0049 91.0588 70.3155 90.6608 69.7733 90.2606C65.2686 86.936 63.6615 80.9383 65.9004 75.8068C66.1699 75.1891 66.5679 74.4997 67.364 73.1208Z" fill="#EFCF33"/>
<path d="M5.00997 37.1208C5.14265 36.891 5.20899 36.7761 5.27569 36.6858C5.82979 35.935 6.82942 35.6671 7.68467 36.0403C7.78761 36.0852 7.90251 36.1515 8.13232 36.2842C9.51114 37.0803 10.2006 37.4783 10.7428 37.8785C15.2474 41.2031 16.8545 47.2009 14.6157 52.3324C14.3462 52.95 13.9482 53.6395 13.1521 55.0183L12.0092 56.9978L10.0298 55.8549C8.65093 55.0588 7.96152 54.6608 7.41929 54.2606C2.91464 50.936 1.30754 44.9383 3.54639 39.8068C3.81588 39.1891 4.21391 38.4997 5.00997 37.1208Z" fill="#EFCF33"/>
<path d="M-4.04227 52.6802C-3.90959 52.4504 -3.84326 52.3355 -3.77656 52.2451C-3.22246 51.4943 -2.22283 51.2265 -1.36758 51.5996C-1.26463 51.6445 -1.14973 51.7109 -0.919928 51.8435C0.458896 52.6396 1.14831 53.0376 1.69053 53.4378C6.19518 56.7624 7.80229 62.7602 5.56343 67.8917C5.29394 68.5094 4.89591 69.1988 4.09985 70.5776L2.95699 72.5571L0.977506 71.4142C-0.401317 70.6182 -1.09073 70.2201 -1.63295 69.82C-6.13761 66.4954 -7.74471 60.4976 -5.50586 55.3661C-5.23637 54.7484 -4.83834 54.059 -4.04227 52.6802Z" fill="#EFCF33"/>
<path d="M36.0007 55.4436C36.1334 55.2138 36.1997 55.0989 36.2664 55.0085C36.8205 54.2577 37.8201 53.9899 38.6754 54.363C38.7783 54.408 38.8932 54.4743 39.123 54.607C40.5019 55.403 41.1913 55.8011 41.7335 56.2012C46.2382 59.5258 47.8453 65.5236 45.6064 70.6551C45.3369 71.2728 44.9389 71.9622 44.1428 73.341L43 75.3205L41.0205 74.1777C39.6417 73.3816 38.9522 72.9836 38.41 72.5834C33.9054 69.2588 32.2983 63.261 34.5371 58.1295C34.8066 57.5118 35.2046 56.8224 36.0007 55.4436Z" fill="#EFCF33"/>
<path d="M58.364 88.7092C58.4967 88.4794 58.563 88.3645 58.6297 88.2741C59.1838 87.5234 60.1834 87.2555 61.0387 87.6287C61.1416 87.6736 61.2565 87.7399 61.4863 87.8726C62.8651 88.6687 63.5546 89.0667 64.0968 89.4669C68.6014 92.7915 70.2085 98.7892 67.9697 103.921C67.7002 104.538 67.3022 105.228 66.5061 106.607L65.3632 108.586L63.3838 107.443C62.0049 106.647 61.3155 106.249 60.7733 105.849C56.2686 102.524 54.6615 96.5266 56.9004 91.3951C57.1699 90.7775 57.5679 90.088 58.364 88.7092Z" fill="#EFCF33"/>
<path d="M27.0007 71.032C27.1334 70.8022 27.1997 70.6873 27.2664 70.5969C27.8205 69.8461 28.8201 69.5783 29.6754 69.9514C29.7783 69.9963 29.8932 70.0627 30.123 70.1953C31.5019 70.9914 32.1913 71.3894 32.7335 71.7896C37.2382 75.1142 38.8453 81.112 36.6064 86.2435C36.3369 86.8612 35.9389 87.5506 35.1428 88.9294L34 90.9089L32.0205 89.766C30.6417 88.97 29.9522 88.5719 29.41 88.1718C24.9054 84.8472 23.2983 78.8494 25.5371 73.7179C25.8066 73.1002 26.2046 72.4108 27.0007 71.032Z" fill="#EFCF33"/>
<path d="M49.364 104.298C49.4967 104.068 49.563 103.953 49.6297 103.863C50.1838 103.112 51.1834 102.844 52.0387 103.217C52.1416 103.262 52.2565 103.329 52.4863 103.461C53.8651 104.257 54.5546 104.655 55.0968 105.055C59.6014 108.38 61.2085 114.378 58.9697 119.509C58.7002 120.127 58.3022 120.816 57.5061 122.195L56.3632 124.175L54.3838 123.032C53.0049 122.236 52.3155 121.838 51.7733 121.438C47.2686 118.113 45.6615 112.115 47.9004 106.984C48.1699 106.366 48.5679 105.677 49.364 104.298Z" fill="#EFCF33"/>
<path d="M18.0007 86.6204C18.1334 86.3906 18.1997 86.2756 18.2664 86.1853C18.8205 85.4345 19.8201 85.1667 20.6754 85.5398C20.7783 85.5847 20.8932 85.651 21.123 85.7837C22.5019 86.5798 23.1913 86.9778 23.7335 87.378C28.2382 90.7026 29.8453 96.7004 27.6064 101.832C27.3369 102.45 26.9389 103.139 26.1428 104.518L25 106.497L23.0205 105.354C21.6417 104.558 20.9522 104.16 20.41 103.76C15.9054 100.436 14.2983 94.4378 16.5371 89.3063C16.8066 88.6886 17.2046 87.9992 18.0007 86.6204Z" fill="#EFCF33"/>
<path d="M30.9146 27.4854C30.8459 27.2291 30.8116 27.1009 30.7705 26.9964C30.4296 26.1278 29.5334 25.6103 28.6107 25.7494C28.4996 25.7662 28.3715 25.8005 28.1152 25.8692C26.5773 26.2812 25.8084 26.4873 25.181 26.7335C19.9694 28.7789 16.8647 34.1564 17.6992 39.6925C17.7996 40.3589 18.0056 41.1278 18.4177 42.6657C18.4864 42.922 18.5207 43.0501 18.5618 43.1547C18.9027 44.0233 19.7989 44.5408 20.7216 44.4017C20.8327 44.3849 20.9608 44.3506 21.2171 44.2819C22.755 43.8698 23.5239 43.6638 24.1513 43.4176C29.3629 41.3722 32.4676 35.9947 31.6331 30.4586C31.5327 29.7922 31.3267 29.0233 30.9146 27.4854Z" fill="#EFCF33"/>
<path d="M93.2683 63.4854C93.1997 63.2291 93.1653 63.1009 93.1243 62.9964C92.7834 62.1278 91.8871 61.6103 90.9645 61.7494C90.8534 61.7662 90.7252 61.8005 90.4689 61.8692C88.9311 62.2812 88.1621 62.4873 87.5348 62.7335C82.3232 64.7789 79.2185 70.1564 80.0529 75.6925C80.1534 76.3589 80.3594 77.1278 80.7715 78.6657C80.8401 78.922 80.8745 79.0501 80.9155 79.1547C81.2564 80.0233 82.1527 80.5408 83.0753 80.4017C83.1864 80.3849 83.3146 80.3506 83.5709 80.2819C85.1088 79.8698 85.8777 79.6638 86.505 79.4176C91.7166 77.3722 94.8213 71.9947 93.9869 66.4586C93.8865 65.7922 93.6804 65.0233 93.2683 63.4854Z" fill="#EFCF33"/>
<path d="M70.9053 30.2195C70.8366 29.9632 70.8023 29.8351 70.7613 29.7305C70.4204 28.8619 69.5241 28.3445 68.6014 28.4835C68.4904 28.5003 68.3622 28.5346 68.1059 28.6033C66.568 29.0154 65.7991 29.2214 65.1718 29.4676C59.9601 31.513 56.8554 36.8905 57.6899 42.4266C57.7903 43.093 57.9964 43.8619 58.4084 45.3998C58.4771 45.6561 58.5114 45.7843 58.5525 45.8888C58.8934 46.7574 59.7896 47.2749 60.7123 47.1358C60.8234 47.1191 60.9515 47.0847 61.2078 47.0161C62.7457 46.604 63.5147 46.3979 64.142 46.1517C69.3536 44.1063 72.4583 38.7289 71.6239 33.1927C71.5234 32.5264 71.3174 31.7574 70.9053 30.2195Z" fill="#EFCF33"/>
<path fill-rule="evenodd" clip-rule="evenodd" d="M61.75 42.8445C62.9458 43.5348 63.3554 45.0638 62.6651 46.2595L27.9151 106.448C27.2247 107.644 25.6958 108.054 24.5 107.363C23.3043 106.673 22.8946 105.144 23.585 103.948L58.335 43.7595C59.0253 42.5638 60.5543 42.1541 61.75 42.8445Z" fill="#FFF7B2"/>
<path fill-rule="evenodd" clip-rule="evenodd" d="M84.1131 76.1104C85.3088 76.8007 85.7185 78.3297 85.0281 79.5254L50.2781 139.714C49.5878 140.91 48.0588 141.32 46.8631 140.629C45.6673 139.939 45.2576 138.41 45.948 137.214L80.698 77.0254C81.3884 75.8297 82.9173 75.42 84.1131 76.1104Z" fill="#FFF7B2"/>
<path fill-rule="evenodd" clip-rule="evenodd" d="M21.7593 40.1104C22.955 40.8007 23.3647 42.3297 22.6744 43.5254L-12.0756 103.714C-12.766 104.91 -14.295 105.32 -15.4907 104.629C-16.6864 103.939 -17.0961 102.41 -16.4058 101.214L18.3442 41.0254C19.0346 39.8297 20.5636 39.42 21.7593 40.1104Z" fill="#FFF7B2"/>
</g>
<path d="M45 4.6188C49.9504 1.76068 56.0496 1.76068 61 4.6188L95.2295 24.3812C100.18 27.2393 103.229 32.5214 103.229 38.2376V77.7624C103.229 83.4786 100.18 88.7607 95.2295 91.6188L61 111.381C56.0496 114.239 49.9504 114.239 45 111.381L10.7705 91.6188C5.82011 88.7607 2.77053 83.4786 2.77053 77.7624V38.2376C2.77053 32.5214 5.82011 27.2393 10.7705 24.3812L45 4.6188Z" stroke="url(#paint0_linear_24569_13478)" stroke-width="4"/>
</g>
<defs>
<linearGradient id="paint0_linear_24569_13478" x1="8.71544" y1="18.0056" x2="88.3336" y2="106.121" gradientUnits="userSpaceOnUse">
<stop stop-color="#EDEDF2"/>
<stop offset="0.15" stop-color="#EDEDF2"/>
<stop offset="1" stop-color="#C9C9D9"/>
</linearGradient>
<clipPath id="clip0_24569_13478">
<rect width="106" height="116" fill="white"/>
</clipPath>
</defs>
</svg>
