<svg width="106" height="116" viewBox="0 0 106 116" fill="none" xmlns="http://www.w3.org/2000/svg">
<g clip-path="url(#clip0_28068_29631)">
<path d="M45 4.6188C49.9504 1.76068 56.0496 1.76068 61 4.6188L95.2295 24.3812C100.18 27.2393 103.229 32.5214 103.229 38.2376V77.7624C103.229 83.4786 100.18 88.7607 95.2295 91.6188L61 111.381C56.0496 114.239 49.9504 114.239 45 111.381L10.7705 91.6188C5.82011 88.7607 2.77053 83.4786 2.77053 77.7624V38.2376C2.77053 32.5214 5.82011 27.2393 10.7705 24.3812L45 4.6188Z" fill="#295C43"/>
<mask id="mask0_28068_29631" style="mask-type:luminance" maskUnits="userSpaceOnUse" x="2" y="2" width="102" height="112">
<path d="M45 4.6188C49.9504 1.76068 56.0496 1.76068 61 4.6188L95.2295 24.3812C100.18 27.2393 103.229 32.5214 103.229 38.2376V77.7624C103.229 83.4786 100.18 88.7607 95.2295 91.6188L61 111.381C56.0496 114.239 49.9504 114.239 45 111.381L10.7705 91.6188C5.82011 88.7607 2.77053 83.4786 2.77053 77.7624V38.2376C2.77053 32.5214 5.82011 27.2393 10.7705 24.3812L45 4.6188Z" fill="white"/>
</mask>
<g mask="url(#mask0_28068_29631)">
<path d="M49.5361 13.9999C51.0757 11.3334 54.9242 11.3333 56.4638 13.9999L92.8369 76.9999C94.3764 79.6665 92.4521 82.9998 89.373 82.9999H77.8261L92.8369 109C94.3764 111.667 92.4521 115 89.373 115H16.6269C13.5477 115 11.6234 111.667 13.163 109L28.1737 82.9999H16.6269C13.5477 82.9999 11.6234 79.6666 13.163 76.9999L49.5361 13.9999Z" fill="#4BA85C"/>
<path d="M51.2676 43C52.0374 41.6667 53.9626 41.6667 54.7324 43L77.8262 83H59.3516L77.8262 115H28.1738L46.6484 83H28.1738L51.2676 43Z" fill="#AAE5DE"/>
</g>
<path d="M45 4.6188C49.9504 1.76068 56.0496 1.76068 61 4.6188L95.2295 24.3812C100.18 27.2393 103.229 32.5214 103.229 38.2376V77.7624C103.229 83.4786 100.18 88.7607 95.2295 91.6188L61 111.381C56.0496 114.239 49.9504 114.239 45 111.381L10.7705 91.6188C5.82011 88.7607 2.77053 83.4786 2.77053 77.7624V38.2376C2.77053 32.5214 5.82011 27.2393 10.7705 24.3812L45 4.6188Z" stroke="url(#paint0_linear_28068_29631)" stroke-width="4"/>
</g>
<defs>
<linearGradient id="paint0_linear_28068_29631" x1="8.71544" y1="18.0056" x2="88.3336" y2="106.121" gradientUnits="userSpaceOnUse">
<stop stop-color="#EDEDF2"/>
<stop offset="0.15" stop-color="#EDEDF2"/>
<stop offset="1" stop-color="#C9C9D9"/>
</linearGradient>
<clipPath id="clip0_28068_29631">
<rect width="106" height="116" fill="white"/>
</clipPath>
</defs>
</svg>
