<svg width="106" height="116" viewBox="0 0 106 116" fill="none" xmlns="http://www.w3.org/2000/svg">
<g clip-path="url(#clip0_23464_19365)">
<path d="M45 4.6188C49.9504 1.76068 56.0496 1.76068 61 4.6188L95.2295 24.3812C100.18 27.2393 103.229 32.5214 103.229 38.2376V77.7624C103.229 83.4786 100.18 88.7607 95.2295 91.6188L61 111.381C56.0496 114.239 49.9504 114.239 45 111.381L10.7705 91.6188C5.82011 88.7607 2.77053 83.4786 2.77053 77.7624V38.2376C2.77053 32.5214 5.82011 27.2393 10.7705 24.3812L45 4.6188Z" fill="#3C8AF3"/>
<path d="M76.4914 43.5022C86.5229 55.2463 86.34 72.5942 76.0632 84.1242C63.7772 97.9085 42.2228 97.9085 29.9368 84.1242C19.66 72.5942 19.4771 55.2463 29.5085 43.5022L49.9585 19.5608C51.5553 17.6914 54.4447 17.6914 56.0415 19.5608L76.4914 43.5022Z" fill="#EFCF33"/>
<path d="M60 83C60 77.4772 64.4772 73 70 73C70 78.5228 65.5228 83 60 83Z" stroke="#FFF7B2" stroke-width="6" stroke-linecap="round" stroke-linejoin="round"/>
<path d="M45 4.6188C49.9504 1.76068 56.0496 1.76068 61 4.6188L95.2295 24.3812C100.18 27.2393 103.229 32.5214 103.229 38.2376V77.7624C103.229 83.4786 100.18 88.7607 95.2295 91.6188L61 111.381C56.0496 114.239 49.9504 114.239 45 111.381L10.7705 91.6188C5.82011 88.7607 2.77053 83.4786 2.77053 77.7624V38.2376C2.77053 32.5214 5.82011 27.2393 10.7705 24.3812L45 4.6188Z" stroke="url(#paint0_linear_23464_19365)" stroke-width="4"/>
</g>
<defs>
<linearGradient id="paint0_linear_23464_19365" x1="8.71544" y1="18.0056" x2="88.3336" y2="106.121" gradientUnits="userSpaceOnUse">
<stop stop-color="#EDEDF2"/>
<stop offset="0.15" stop-color="#EDEDF2"/>
<stop offset="1" stop-color="#C9C9D9"/>
</linearGradient>
<clipPath id="clip0_23464_19365">
<rect width="106" height="116" fill="white"/>
</clipPath>
</defs>
</svg>
