<svg width="94" height="104" viewBox="0 0 94 104" fill="none" xmlns="http://www.w3.org/2000/svg">
<path d="M40.248 1.75439C44.2728 -0.584795 49.3272 -0.584795 53.352 1.75439L87.048 21.2164C91.0728 23.5556 93.6 27.8596 93.6 32.538V71.462C93.6 76.1403 91.0728 80.4444 87.048 82.7836L53.352 102.246C49.3272 104.585 44.2728 104.585 40.248 102.246L6.552 82.7836C2.5272 80.4444 0 76.1403 0 71.462V32.538C0 27.8596 2.5272 23.5556 6.552 21.2164L40.248 1.75439Z" fill="#F6F6F6"/>
<path fill-rule="evenodd" clip-rule="evenodd" d="M45.7546 62.5H48.2457C50.848 62.5 52.1492 62.5 53.1216 61.9241C53.6751 61.5963 54.1443 61.1435 54.4917 60.602C55.1019 59.6509 55.1484 58.3505 55.2412 55.7498C55.3403 52.9755 55.3899 51.5883 54.7969 50.5619C54.4599 49.9787 53.9853 49.4868 53.4145 49.1293C52.4099 48.5 51.0218 48.5 48.2457 48.5H45.7546C42.9785 48.5 41.5905 48.5 40.5858 49.1293C40.015 49.4868 39.5404 49.9787 39.2035 50.5619C38.6105 51.5883 38.66 52.9755 38.7591 55.7498C38.852 58.3505 38.8984 59.6509 39.5086 60.602C39.856 61.1435 40.3252 61.5963 40.8788 61.9241C41.8511 62.5 43.1523 62.5 45.7546 62.5ZM47.9996 55.7328C48.5977 55.387 49.0001 54.7405 49.0001 54C49.0001 52.8954 48.1047 52 47.0001 52C45.8955 52 45.0001 52.8954 45.0001 54C45.0001 54.7401 45.4021 55.3863 45.9996 55.7321V58.5C45.9996 59.0523 46.4473 59.5 46.9996 59.5C47.5518 59.5 47.9996 59.0523 47.9996 58.5V55.7328Z" fill="#CCCCCC"/>
<path d="M51.2073 45.5435L51.6841 55.5559C51.8114 58.2305 49.6774 60.4686 46.9998 60.4686C44.3222 60.4686 42.1881 58.2305 42.3154 55.5559L42.7922 45.5435C42.842 44.498 42.8649 44.1327 42.9387 43.8484C43.2341 42.7104 44.1489 41.8381 45.2997 41.5972C45.5871 41.537 45.9531 41.5315 46.9998 41.5315C48.0465 41.5315 48.4124 41.537 48.6998 41.5972C49.8506 41.8381 50.7655 42.7104 51.0609 43.8484C51.1346 44.1327 51.1575 44.498 51.2073 45.5435Z" stroke="#CCCCCC" stroke-width="2.06289"/>
</svg>
