<svg width="106" height="116" viewBox="0 0 106 116" fill="none" xmlns="http://www.w3.org/2000/svg">
<g clip-path="url(#clip0_24569_13450)">
<path d="M45 4.61869C49.9504 1.76057 56.0496 1.76057 61 4.61869L95.2295 24.3811C100.18 27.2392 103.229 32.5212 103.229 38.2375V77.7623C103.229 83.4785 100.18 88.7606 95.2295 91.6187L61 111.381C56.0496 114.239 49.9504 114.239 45 111.381L10.7705 91.6187C5.82009 88.7606 2.77051 83.4785 2.77051 77.7623V38.2375C2.77051 32.5212 5.82009 27.2392 10.7705 24.3811L45 4.61869Z" fill="#AAE5DE"/>
<path d="M21.4209 46.6964C12.9209 61.4188 17.8665 81.5947 33.9997 90.9092C50.133 100.224 70.0786 94.4188 78.5786 79.6964C86.7591 65.5273 81.241 43.4494 75.2527 25.3462C74.5464 23.2108 72.3549 21.9456 70.1525 22.4015C51.4805 26.2672 29.6014 32.5273 21.4209 46.6964Z" fill="#4BA85C"/>
<path fill-rule="evenodd" clip-rule="evenodd" d="M73.25 22.926C74.4458 23.6164 74.8985 25.0707 74.2613 26.1744L30.8804 101.312C30.2432 102.416 28.7573 102.751 27.5616 102.061C26.3659 101.37 25.9131 99.916 26.5503 98.8123L69.9312 23.6744C70.5684 22.5707 72.0543 22.2357 73.25 22.926Z" fill="#295C43"/>
<mask id="mask0_24569_13450" style="mask-type:luminance" maskUnits="userSpaceOnUse" x="17" y="22" width="66" height="74">
<path d="M21.4209 46.6961C12.9209 61.4186 17.8665 81.5944 33.9997 90.9089C50.133 100.223 70.0786 94.4186 78.5786 79.6961C86.7591 65.5271 81.241 43.4491 75.2527 25.3459C74.5464 23.2106 72.3549 21.9453 70.1525 22.4013C51.4805 26.2669 29.6014 32.5271 21.4209 46.6961Z" fill="white"/>
</mask>
<g mask="url(#mask0_24569_13450)">
<path fill-rule="evenodd" clip-rule="evenodd" d="M34.872 25.8628C36.2057 25.5054 37.5765 26.2969 37.9339 27.6306L48.9146 68.6113C49.272 69.945 48.4805 71.3158 47.1469 71.6732C45.8132 72.0305 44.4424 71.2391 44.085 69.9054L33.1043 28.9247C32.7469 27.591 33.5384 26.2202 34.872 25.8628Z" fill="#295C43"/>
<path fill-rule="evenodd" clip-rule="evenodd" d="M42.372 12.8723C43.7057 12.515 45.0765 13.3064 45.4339 14.6401L56.4146 55.6208C56.772 56.9545 55.9805 58.3254 54.6469 58.6827C53.3132 59.0401 51.9424 58.2486 51.585 56.9149L40.6043 15.9342C40.2469 14.6005 41.0384 13.2297 42.372 12.8723Z" fill="#295C43"/>
<path fill-rule="evenodd" clip-rule="evenodd" d="M84.2604 78.1093C84.2557 79.4912 83.1336 80.6065 81.7541 80.6003L41.5394 80.4209C40.1599 80.4147 39.0455 79.2894 39.0502 77.9075C39.0549 76.5256 40.177 75.4103 41.5565 75.4164L81.7712 75.5959C83.1506 75.6021 84.2651 76.7273 84.2604 78.1093Z" fill="#295C43"/>
</g>
<path d="M45 4.6188C49.9504 1.76068 56.0496 1.76068 61 4.6188L95.2295 24.3812C100.18 27.2393 103.229 32.5214 103.229 38.2376V77.7624C103.229 83.4786 100.18 88.7607 95.2295 91.6188L61 111.381C56.0496 114.239 49.9504 114.239 45 111.381L10.7705 91.6188C5.82011 88.7607 2.77053 83.4786 2.77053 77.7624V38.2376C2.77053 32.5214 5.82011 27.2393 10.7705 24.3812L45 4.6188Z" stroke="url(#paint0_linear_24569_13450)" stroke-width="4"/>
</g>
<defs>
<linearGradient id="paint0_linear_24569_13450" x1="8.71544" y1="18.0056" x2="88.3336" y2="106.121" gradientUnits="userSpaceOnUse">
<stop stop-color="#EDEDF2"/>
<stop offset="0.15" stop-color="#EDEDF2"/>
<stop offset="1" stop-color="#C9C9D9"/>
</linearGradient>
<clipPath id="clip0_24569_13450">
<rect width="106" height="116" fill="white"/>
</clipPath>
</defs>
</svg>
