<svg width="106" height="116" viewBox="0 0 106 116" fill="none" xmlns="http://www.w3.org/2000/svg">
<g clip-path="url(#clip0_23464_19370)">
<path d="M45 4.6188C49.9504 1.76068 56.0496 1.76068 61 4.6188L95.2295 24.3812C100.18 27.2393 103.229 32.5214 103.229 38.2376V77.7624C103.229 83.4786 100.18 88.7607 95.2295 91.6188L61 111.381C56.0496 114.239 49.9504 114.239 45 111.381L10.7705 91.6188C5.82011 88.7607 2.77053 83.4786 2.77053 77.7624V38.2376C2.77053 32.5214 5.82011 27.2393 10.7705 24.3812L45 4.6188Z" fill="#FCDBE4"/>
<path d="M45 4.6188C49.9504 1.76068 56.0496 1.76068 61 4.6188L95.2295 24.3812C100.18 27.2393 103.229 32.5214 103.229 38.2376V77.7624C103.229 83.4786 100.18 88.7607 95.2295 91.6188L61 111.381C56.0496 114.239 49.9504 114.239 45 111.381L10.7705 91.6188C5.82011 88.7607 2.77053 83.4786 2.77053 77.7624V38.2376C2.77053 32.5214 5.82011 27.2393 10.7705 24.3812L45 4.6188Z" stroke="url(#paint0_linear_23464_19370)" stroke-width="4"/>
<path fill-rule="evenodd" clip-rule="evenodd" d="M49.2063 24H51.9999H53.9999H56.7935C57.9717 24 58.76 25.3345 58.2902 26.415C56.891 29.6334 54.9999 35.3844 54.9999 42H53.9999H51.9999H50.9999C50.9999 35.3844 49.1088 29.6334 47.7096 26.415C47.2399 25.3345 48.0281 24 49.2063 24Z" fill="#295C43"/>
<path fill-rule="evenodd" clip-rule="evenodd" d="M52.9997 86.7493C49.9779 88.7966 45.6865 89.9997 42.9995 89.9997C27.0879 89.9997 17.9998 65.8139 17.9998 53C17.9998 39 25.4995 30 37.9995 30C44.6846 30.0002 49.9832 33.9725 52.9997 37.6685C56.0162 33.9725 61.3148 30.0002 67.9999 30C80.4999 30 87.9996 39 87.9996 53C87.9996 65.8139 78.9115 89.9997 62.9999 89.9997C60.3129 89.9997 56.0215 88.7966 52.9997 86.7493Z" fill="#FC7059"/>
<path d="M28 47C28 42.5817 31.5817 39 36 39C36 43.4183 32.4183 47 28 47Z" stroke="#FCDBE4" stroke-width="6" stroke-linecap="round" stroke-linejoin="round"/>
</g>
<defs>
<linearGradient id="paint0_linear_23464_19370" x1="8.71544" y1="18.0056" x2="88.3336" y2="106.121" gradientUnits="userSpaceOnUse">
<stop stop-color="#EDEDF2"/>
<stop offset="0.15" stop-color="#EDEDF2"/>
<stop offset="1" stop-color="#C9C9D9"/>
</linearGradient>
<clipPath id="clip0_23464_19370">
<rect width="106" height="116" fill="white"/>
</clipPath>
</defs>
</svg>
