<svg width="106" height="116" viewBox="0 0 106 116" fill="none" xmlns="http://www.w3.org/2000/svg">
<g clip-path="url(#clip0_23464_19337)">
<path d="M45 4.6188C49.9504 1.76068 56.0496 1.76068 61 4.6188L95.2295 24.3812C100.18 27.2393 103.229 32.5214 103.229 38.2376V77.7624C103.229 83.4786 100.18 88.7607 95.2295 91.6188L61 111.381C56.0496 114.239 49.9504 114.239 45 111.381L10.7705 91.6188C5.82011 88.7607 2.77053 83.4786 2.77053 77.7624V38.2376C2.77053 32.5214 5.82011 27.2393 10.7705 24.3812L45 4.6188Z" fill="#295C43"/>
<path d="M38.1431 37.1704C43.5053 23.755 62.4952 23.755 67.8574 37.1704L85.5295 81.3833C88.4815 88.7688 85.5604 97.2014 78.6723 101.178L61.0002 111.381C56.0498 114.239 49.9506 114.239 45.0002 111.381L27.3281 101.178C20.4401 97.2014 17.519 88.7688 20.471 81.3833L38.1431 37.1704Z" fill="#FFF7B2"/>
<path d="M42.3894 81.2815C28.0903 83.3454 18.5953 66.8996 27.5323 55.5482L56.9858 18.1372C61.9058 11.8879 70.6692 10.2014 77.5572 14.1782L95.2293 24.3812C100.18 27.2393 103.229 32.5214 103.229 38.2376L103.229 58.6436C103.229 66.5972 97.3871 73.3433 89.5151 74.4795L42.3894 81.2815Z" fill="#AAE5DE"/>
<path d="M78.4675 55.5482C87.4044 66.8996 77.9095 83.3454 63.6103 81.2815L16.4847 74.4795C8.6127 73.3433 2.77043 66.5972 2.77043 58.6436L2.77043 38.2376C2.77043 32.5214 5.82001 27.2393 10.7704 24.3812L28.4425 14.1782C35.3305 10.2014 44.094 11.8879 49.014 18.1372L78.4675 55.5482Z" fill="#FCDBE4"/>
<path d="M99.7654 85.0001C92.3095 97.914 76.3073 102.633 64.0233 95.5413L61.7421 94.2243C49.4581 87.1321 45.5442 70.914 53 58.0001C60.4559 45.0862 76.4581 40.3668 88.7421 47.4589L91.0233 48.776C103.307 55.8681 107.221 72.0862 99.7654 85.0001Z" fill="#3C8AF3"/>
<path d="M6.23486 85.0001C-1.22098 72.0862 2.69298 55.8681 14.9769 48.776L17.2582 47.4589C29.5421 40.3668 45.5444 45.0862 53.0002 58.0001C60.4561 70.914 56.5421 87.1321 44.2582 94.2243L41.9769 95.5413C29.693 102.633 13.6907 97.914 6.23486 85.0001Z" fill="#EFCF33"/>
<path d="M53 4C67.9117 4 80 15.4986 80 29.6829V32.3171C80 46.5014 67.9117 58 53 58C38.0883 58 26 46.5014 26 32.3171L26 29.6829C26 15.4986 38.0883 4 53 4Z" fill="#FC7059"/>
<path fill-rule="evenodd" clip-rule="evenodd" d="M76.961 44.1658C72.459 52.3866 63.4185 57.9999 52.9998 57.9999C52.9997 57.9999 52.9996 57.9999 52.9995 57.9999C52.9995 57.9999 52.9996 57.9998 52.9996 57.9998C58.209 48.9768 67.5906 43.9543 76.961 44.1658Z" fill="#3C8AF3"/>
<path d="M46.2871 41.2598C45.002 41.2598 44.1953 40.5078 44.1953 39.3184C44.1953 38.9766 44.291 38.5117 44.4688 38.0059L49.8555 23.3359C50.4297 21.7363 51.4004 20.998 52.959 20.998C54.5723 20.998 55.5293 21.709 56.1172 23.3223L61.5312 38.0059C61.7227 38.5391 61.791 38.9082 61.791 39.3184C61.791 40.4531 60.9297 41.2598 59.7266 41.2598C58.5645 41.2598 57.9492 40.7266 57.5801 39.4414L56.541 36.3242H49.418L48.3789 39.4004C47.9961 40.7129 47.3809 41.2598 46.2871 41.2598ZM50.3203 33.125H55.584L52.9727 25.0449H52.877L50.3203 33.125Z" fill="#FCDBE4"/>
<path d="M30.0664 81.8281C24.2148 81.8281 20.6602 78 20.6602 71.6289C20.6602 65.2715 24.2832 61.4297 29.957 61.4297C33.6484 61.4297 36.5059 63.0703 37.8594 65.9141C38.1328 66.4336 38.2695 66.9668 38.2695 67.459C38.2695 68.5391 37.5449 69.2363 36.4512 69.2363C35.5215 69.2363 34.9336 68.8262 34.4824 67.8691C33.5801 65.8594 31.9668 64.8477 29.998 64.8477C26.8809 64.8477 24.8711 67.459 24.8711 71.6152C24.8711 75.8262 26.8535 78.4238 30.0117 78.4238C32.0898 78.4238 33.6484 77.4805 34.5371 75.498C34.9609 74.5684 35.4805 74.1992 36.3555 74.1992C37.5176 74.1992 38.2832 74.9375 38.2832 76.0312C38.2832 76.4961 38.1738 76.9336 37.9688 77.4121C36.7383 80.1465 33.7988 81.8281 30.0664 81.8281Z" fill="#FFF7B2"/>
<path d="M70.2874 81.5C68.9885 81.5 68.2229 80.707 68.2229 79.3398V63.918C68.2229 62.5645 68.9885 61.7715 70.2874 61.7715H75.7561C81.676 61.7715 85.1624 65.2988 85.1624 71.5605C85.1624 77.8223 81.676 81.5 75.7561 81.5H70.2874ZM72.3518 78.082H75.2639C78.9553 78.082 80.9514 75.8398 80.9514 71.5742C80.9514 67.4453 78.9006 65.1758 75.2639 65.1758H72.3518V78.082Z" fill="#AAE5DE"/>
<path d="M45 4.6188C49.9504 1.76068 56.0496 1.76068 61 4.6188L95.2295 24.3812C100.18 27.2393 103.229 32.5214 103.229 38.2376V77.7624C103.229 83.4786 100.18 88.7607 95.2295 91.6188L61 111.381C56.0496 114.239 49.9504 114.239 45 111.381L10.7705 91.6188C5.82011 88.7607 2.77053 83.4786 2.77053 77.7624V38.2376C2.77053 32.5214 5.82011 27.2393 10.7705 24.3812L45 4.6188Z" stroke="url(#paint0_linear_23464_19337)" stroke-width="4"/>
</g>
<defs>
<linearGradient id="paint0_linear_23464_19337" x1="8.71544" y1="18.0056" x2="88.3336" y2="106.121" gradientUnits="userSpaceOnUse">
<stop stop-color="#EDEDF2"/>
<stop offset="0.15" stop-color="#EDEDF2"/>
<stop offset="1" stop-color="#C9C9D9"/>
</linearGradient>
<clipPath id="clip0_23464_19337">
<rect width="106" height="116" fill="white"/>
</clipPath>
</defs>
</svg>
