<svg width="40" height="40" viewBox="0 0 40 40" fill="none" xmlns="http://www.w3.org/2000/svg">
<mask id="path-1-outside-1_20118_29436" maskUnits="userSpaceOnUse" x="1.9534" y="6.00534" width="35.5845" height="28.5275" fill="black">
<rect fill="white" x="1.9534" y="6.00534" width="35.5845" height="28.5275"/>
<path fill-rule="evenodd" clip-rule="evenodd" d="M7.23687 27.1207C8.33273 28.7998 11.0463 29.8191 13.94 29.4941C18.0928 29.0276 20.69 26.1735 20.2589 22.3355C19.8863 19.0181 17.2521 16.9601 13.9469 17.3313C12.1187 17.5367 10.703 18.4681 10.1542 19.6945L9.99955 15.2614L16.6828 14.5107C17.7482 14.391 18.3514 13.649 18.2344 12.6078C18.1175 11.5665 17.3526 10.9782 16.2992 11.0965L8.44163 11.9791C6.95244 12.1464 6.15552 12.9102 6.21397 14.522L6.44342 20.712L6.45022 20.7726C6.5095 21.9551 7.28963 22.8973 8.75461 22.7328C9.72319 22.624 10.1467 22.3557 10.758 21.6863C11.2592 21.1274 11.973 20.6058 12.9295 20.4984C14.6003 20.3107 15.9012 21.3047 16.0807 22.9029C16.2643 24.5374 15.1775 25.8855 13.5188 26.0718C12.1143 26.2295 11.192 25.6588 10.3998 24.718C9.79225 24.1119 9.22826 23.8933 8.39286 23.9872C7.26688 24.1136 6.67442 24.8422 6.79683 25.9319C6.84443 26.3556 6.99963 26.755 7.23687 27.1207ZM21.647 26.7157C21.7626 27.7448 22.6405 28.3573 23.7665 28.2308C24.5414 28.1438 24.9137 27.8567 25.4546 26.7784L27.2787 23.1529L27.3635 23.1434L30.042 26.3612C30.6376 27.0789 31.0551 27.4121 31.9268 27.3142C33.0891 27.1836 33.8927 26.37 33.7594 25.1835C33.705 24.6992 33.5014 24.3052 33.1255 23.9061L29.9745 20.5207L32.2262 16.7737C32.621 16.1409 32.7308 15.6994 32.6696 15.1546C32.5459 14.0528 31.6787 13.4269 30.48 13.5616C29.6689 13.6527 29.2482 14.0555 28.7624 15.0786L27.0982 18.4899L27.0134 18.4994L24.5962 15.5343C23.882 14.6337 23.3852 14.3585 22.4772 14.4605C21.3149 14.5911 20.5329 15.4881 20.6553 16.5777C20.7124 17.0862 20.9053 17.4937 21.2663 17.87L24.416 21.2432L22.0945 25.1329C21.7118 25.7644 21.5871 26.183 21.647 26.7157Z"/>
</mask>
<path fill-rule="evenodd" clip-rule="evenodd" d="M7.23687 27.1207C8.33273 28.7998 11.0463 29.8191 13.94 29.4941C18.0928 29.0276 20.69 26.1735 20.2589 22.3355C19.8863 19.0181 17.2521 16.9601 13.9469 17.3313C12.1187 17.5367 10.703 18.4681 10.1542 19.6945L9.99955 15.2614L16.6828 14.5107C17.7482 14.391 18.3514 13.649 18.2344 12.6078C18.1175 11.5665 17.3526 10.9782 16.2992 11.0965L8.44163 11.9791C6.95244 12.1464 6.15552 12.9102 6.21397 14.522L6.44342 20.712L6.45022 20.7726C6.5095 21.9551 7.28963 22.8973 8.75461 22.7328C9.72319 22.624 10.1467 22.3557 10.758 21.6863C11.2592 21.1274 11.973 20.6058 12.9295 20.4984C14.6003 20.3107 15.9012 21.3047 16.0807 22.9029C16.2643 24.5374 15.1775 25.8855 13.5188 26.0718C12.1143 26.2295 11.192 25.6588 10.3998 24.718C9.79225 24.1119 9.22826 23.8933 8.39286 23.9872C7.26688 24.1136 6.67442 24.8422 6.79683 25.9319C6.84443 26.3556 6.99963 26.755 7.23687 27.1207ZM21.647 26.7157C21.7626 27.7448 22.6405 28.3573 23.7665 28.2308C24.5414 28.1438 24.9137 27.8567 25.4546 26.7784L27.2787 23.1529L27.3635 23.1434L30.042 26.3612C30.6376 27.0789 31.0551 27.4121 31.9268 27.3142C33.0891 27.1836 33.8927 26.37 33.7594 25.1835C33.705 24.6992 33.5014 24.3052 33.1255 23.9061L29.9745 20.5207L32.2262 16.7737C32.621 16.1409 32.7308 15.6994 32.6696 15.1546C32.5459 14.0528 31.6787 13.4269 30.48 13.5616C29.6689 13.6527 29.2482 14.0555 28.7624 15.0786L27.0982 18.4899L27.0134 18.4994L24.5962 15.5343C23.882 14.6337 23.3852 14.3585 22.4772 14.4605C21.3149 14.5911 20.5329 15.4881 20.6553 16.5777C20.7124 17.0862 20.9053 17.4937 21.2663 17.87L24.416 21.2432L22.0945 25.1329C21.7118 25.7644 21.5871 26.183 21.647 26.7157Z" fill="#262626"/>
<path d="M7.23687 27.1207L4.72011 28.7535L4.72457 28.7603L7.23687 27.1207ZM10.1542 19.6945L7.15606 19.7991L12.8925 20.9199L10.1542 19.6945ZM9.99955 15.2614L9.66467 12.2802L6.90452 12.5902L7.00138 15.3661L9.99955 15.2614ZM16.6828 14.5107L16.3479 11.5295L16.6828 14.5107ZM16.2992 11.0965L15.9643 8.11523L16.2992 11.0965ZM8.44163 11.9791L8.77651 14.9604L8.44163 11.9791ZM6.21397 14.522L3.21594 14.6307L3.21603 14.6331L6.21397 14.522ZM6.44342 20.712L3.44548 20.8232L3.44964 20.9354L3.46217 21.0469L6.44342 20.712ZM6.45022 20.7726L9.44646 20.6224L9.44182 20.5298L9.43147 20.4377L6.45022 20.7726ZM10.758 21.6863L12.9732 23.7094L12.9825 23.6993L12.9917 23.689L10.758 21.6863ZM10.3998 24.718L12.6946 22.7857L12.6107 22.6861L12.5185 22.5941L10.3998 24.718ZM25.4546 26.7784L22.7747 25.43L22.7731 25.4333L25.4546 26.7784ZM27.2787 23.1529L26.9438 20.1717L25.3291 20.3531L24.5988 21.8046L27.2787 23.1529ZM27.3635 23.1434L29.6691 21.2241L28.6349 19.9817L27.0286 20.1622L27.3635 23.1434ZM30.042 26.3612L32.3508 24.4455L32.3477 24.4418L30.042 26.3612ZM33.1255 23.9061L30.9296 25.95L30.9355 25.9564L30.9414 25.9627L33.1255 23.9061ZM29.9745 20.5207L27.4031 18.9755L26.2397 20.9114L27.7785 22.5647L29.9745 20.5207ZM32.2262 16.7737L29.6809 15.1858L29.6677 15.207L29.6548 15.2284L32.2262 16.7737ZM28.7624 15.0786L31.4587 16.394L31.4656 16.3797L31.4724 16.3654L28.7624 15.0786ZM27.0982 18.4899L27.4331 21.4712L29.0715 21.2871L29.7944 19.8053L27.0982 18.4899ZM27.0134 18.4994L24.6882 20.395L25.7222 21.6633L27.3483 21.4807L27.0134 18.4994ZM24.5962 15.5343L22.2456 17.3984L22.2581 17.4142L22.2709 17.4299L24.5962 15.5343ZM21.2663 17.87L23.4591 15.8225L23.4452 15.8077L23.4311 15.793L21.2663 17.87ZM24.416 21.2432L26.9921 22.7807L28.1479 20.8442L26.6088 19.1958L24.416 21.2432ZM22.0945 25.1329L24.6601 26.6878L24.6653 26.6791L24.6705 26.6704L22.0945 25.1329ZM13.6051 26.5128C11.3631 26.7646 10.0018 25.8681 9.74917 25.4811L4.72457 28.7603C6.66369 31.7315 10.7296 32.8735 14.2749 32.4753L13.6051 26.5128ZM17.2777 22.6704C17.4044 23.7983 17.0898 24.6092 16.578 25.184C16.0397 25.7885 15.083 26.3468 13.6051 26.5128L14.2749 32.4753C16.9497 32.1748 19.3681 31.0728 21.0589 29.1742C22.7761 27.2458 23.5446 24.7107 23.2402 22.0006L17.2777 22.6704ZM14.2817 20.3126C15.2193 20.2073 15.899 20.4538 16.3438 20.8049C16.7851 21.1532 17.1737 21.7447 17.2777 22.6704L23.2402 22.0006C22.9715 19.6089 21.8567 17.5126 20.0614 16.0954C18.2697 14.681 15.9796 14.0841 13.612 14.3501L14.2817 20.3126ZM12.8925 20.9199C12.8885 20.9289 12.939 20.8144 13.1745 20.6654C13.4065 20.5186 13.7755 20.3695 14.2817 20.3126L13.612 14.3501C11.0524 14.6376 8.51704 16.0085 7.41593 18.469L12.8925 20.9199ZM7.00138 15.3661L7.15606 19.7991L13.1524 19.5898L12.9977 15.1568L7.00138 15.3661ZM16.3479 11.5295L9.66467 12.2802L10.3344 18.2427L17.0176 17.492L16.3479 11.5295ZM15.2532 12.9426C15.2373 12.801 15.2544 12.4049 15.5762 12.01C15.8924 11.6217 16.2539 11.54 16.3479 11.5295L17.0176 17.492C18.177 17.3617 19.3728 16.8491 20.2278 15.7997C21.0883 14.7434 21.3486 13.4557 21.2157 12.2729L15.2532 12.9426ZM16.6341 14.0777C16.5268 14.0898 16.1621 14.0855 15.7764 13.7855C15.3815 13.4785 15.2708 13.0993 15.2532 12.9426L21.2157 12.2729C21.0811 11.075 20.5294 9.881 19.4596 9.04905C18.3988 8.22419 17.125 7.98485 15.9643 8.11523L16.6341 14.0777ZM8.77651 14.9604L16.6341 14.0777L15.9643 8.11523L8.10674 8.99788L8.77651 14.9604ZM9.212 14.4133C9.20638 14.2584 9.22656 14.2461 9.20276 14.3259C9.17445 14.4208 9.10351 14.578 8.96107 14.7337C8.66829 15.0538 8.43274 14.999 8.77651 14.9604L8.10674 8.99788C6.96132 9.12654 5.58272 9.53733 4.53379 10.6841C3.4565 11.8618 3.1687 13.3281 3.21594 14.6307L9.212 14.4133ZM9.44136 20.6009L9.21191 14.4109L3.21603 14.6331L3.44548 20.8232L9.44136 20.6009ZM9.43147 20.4377L9.42467 20.3771L3.46217 21.0469L3.46897 21.1075L9.43147 20.4377ZM8.41973 19.7515C8.39952 19.7538 8.48731 19.7411 8.64355 19.7877C8.80618 19.8363 8.9805 19.9313 9.13112 20.073C9.43057 20.3548 9.44644 20.622 9.44646 20.6224L3.45398 20.9228C3.51327 22.1057 3.94885 23.4353 5.01944 24.4427C6.14335 25.5002 7.6234 25.8787 9.0895 25.714L8.41973 19.7515ZM8.54285 19.6632C8.4902 19.7209 8.45044 19.7623 8.42028 19.7923C8.39041 19.822 8.37377 19.8367 8.36821 19.8415C8.36317 19.8458 8.36998 19.8396 8.38743 19.8274C8.40544 19.8147 8.43049 19.7987 8.46132 19.782C8.49227 19.7652 8.5222 19.7515 8.54878 19.741C8.57488 19.7306 8.5919 19.7257 8.59618 19.7245C8.60129 19.7231 8.55431 19.7364 8.41973 19.7515L9.0895 25.714C9.79666 25.6346 10.5588 25.4695 11.3192 25.0576C12.0594 24.6566 12.5854 24.1341 12.9732 23.7094L8.54285 19.6632ZM12.5946 17.5171C10.6751 17.7327 9.33538 18.7791 8.52441 19.6836L12.9917 23.689C13.0836 23.5866 13.1571 23.5308 13.2022 23.504C13.2379 23.4829 13.2523 23.481 13.2644 23.4796L12.5946 17.5171ZM19.0619 22.568C18.8869 21.0101 18.1335 19.5996 16.8847 18.6463C15.6457 17.7006 14.1094 17.347 12.5946 17.5171L13.2644 23.4796C13.3465 23.4704 13.3749 23.4809 13.3599 23.4771C13.3438 23.473 13.2988 23.4574 13.244 23.4156C13.1884 23.3732 13.1457 23.321 13.1191 23.2727C13.0929 23.2251 13.0959 23.2062 13.0994 23.2378L19.0619 22.568ZM13.8537 29.053C17.1254 28.6855 19.4342 25.8823 19.0619 22.568L13.0994 23.2378C13.1033 23.2718 13.0973 23.2698 13.1052 23.2419C13.113 23.2143 13.1296 23.179 13.1569 23.1453C13.1841 23.1116 13.2114 23.0923 13.2272 23.0838C13.2433 23.0752 13.2336 23.0849 13.1839 23.0905L13.8537 29.053ZM8.10498 26.6503C8.66951 27.3208 9.42167 28.0306 10.4399 28.5154C11.4955 29.0181 12.6467 29.1886 13.8537 29.053L13.1839 23.0905C13.0705 23.1033 13.0184 23.0958 13.0107 23.0946C13.0058 23.0939 13.0131 23.0953 13.0195 23.0983C13.0274 23.1021 12.9223 23.0561 12.6946 22.7857L8.10498 26.6503ZM8.72774 26.9684C8.77211 26.9634 8.75509 26.9692 8.69492 26.9636C8.62929 26.9575 8.54012 26.9404 8.44245 26.9043C8.23747 26.8286 8.17633 26.7374 8.28101 26.8419L12.5185 22.5941C12.0157 22.0925 11.3688 21.589 10.5211 21.2759C9.65942 20.9577 8.81946 20.9204 8.05797 21.0059L8.72774 26.9684ZM9.77808 25.597C9.78583 25.666 9.79617 26.0734 9.44805 26.4987C9.1082 26.9138 8.73616 26.9675 8.72774 26.9684L8.05797 21.0059C6.92358 21.1333 5.69232 21.6145 4.80535 22.698C3.91011 23.7916 3.68542 25.1081 3.81558 26.2668L9.77808 25.597ZM9.75361 25.4879C9.74378 25.4728 9.74729 25.4749 9.75492 25.4952C9.76291 25.5166 9.77296 25.5515 9.77808 25.597L3.81558 26.2668C3.92178 27.2123 4.26378 28.0501 4.72012 28.7535L9.75361 25.4879ZM23.4316 25.2496C23.4832 25.2438 23.7473 25.2352 24.0643 25.4602C24.4106 25.706 24.5941 26.0766 24.6282 26.3808L18.6657 27.0506C18.8155 28.384 19.4957 29.5753 20.5915 30.353C21.6578 31.1099 22.9239 31.3443 24.1014 31.2121L23.4316 25.2496ZM22.7731 25.4333C22.6708 25.6372 22.6141 25.7271 22.5956 25.7541C22.5807 25.7759 22.6331 25.6937 22.7631 25.584C22.908 25.4617 23.0781 25.3648 23.246 25.303C23.3925 25.2491 23.4782 25.2443 23.4316 25.2496L24.1014 31.2121C24.8335 31.1298 25.7648 30.902 26.6335 30.1687C27.3769 29.5412 27.827 28.7398 28.1362 28.1235L22.7731 25.4333ZM24.5988 21.8046L22.7747 25.43L28.1345 28.1267L29.9586 24.5013L24.5988 21.8046ZM27.0286 20.1622L26.9438 20.1717L27.6136 26.1342L27.6983 26.1247L27.0286 20.1622ZM32.3477 24.4418L29.6691 21.2241L25.0578 25.0628L27.7364 28.2805L32.3477 24.4418ZM31.5919 24.3329C31.5861 24.3336 31.6834 24.3218 31.8444 24.3488C32.019 24.3781 32.1929 24.4401 32.344 24.5245C32.4813 24.6012 32.5486 24.6681 32.5394 24.6592C32.5242 24.6447 32.4707 24.59 32.3508 24.4455L27.7333 28.2768C28.0528 28.6618 28.6062 29.3092 29.4177 29.7626C30.366 30.2923 31.3466 30.3982 32.2617 30.2954L31.5919 24.3329ZM30.7781 25.5184C30.7694 25.4406 30.7694 25.2998 30.8232 25.1236C30.8773 24.9459 30.9719 24.7799 31.0939 24.6436C31.3387 24.3702 31.5744 24.3349 31.5919 24.3329L32.2617 30.2954C33.4415 30.1629 34.6601 29.6555 35.564 28.6459C36.5018 27.5985 36.8961 26.2328 36.7407 24.8486L30.7781 25.5184ZM30.9414 25.9627C30.9773 26.0009 30.9346 25.9641 30.8809 25.8568C30.8216 25.7385 30.789 25.615 30.7781 25.5184L36.7407 24.8486C36.5999 23.5957 36.0369 22.6218 35.3096 21.8494L30.9414 25.9627ZM27.7785 22.5647L30.9296 25.95L35.3215 21.8621L32.1704 18.4768L27.7785 22.5647ZM29.6548 15.2284L27.4031 18.9755L32.5459 22.066L34.7976 18.319L29.6548 15.2284ZM29.6884 15.4895C29.6874 15.4807 29.683 15.4349 29.6873 15.3645C29.6918 15.2914 29.704 15.2185 29.7215 15.1533C29.7547 15.0296 29.7843 15.0202 29.6809 15.1858L34.7715 18.3616C35.431 17.3045 35.8051 16.1924 35.6509 14.8197L29.6884 15.4895ZM30.8149 16.5428C30.829 16.5412 30.5567 16.5699 30.2156 16.3222C29.8443 16.0527 29.7104 15.6852 29.6884 15.4895L35.6509 14.8197C35.5051 13.5222 34.8757 12.2909 33.7403 11.4666C32.6349 10.6642 31.3297 10.4472 30.1452 10.5803L30.8149 16.5428ZM31.4724 16.3654C31.5584 16.1843 31.6093 16.0999 31.628 16.0715C31.644 16.0471 31.6061 16.1107 31.5034 16.2028C31.3902 16.3045 31.2452 16.3989 31.0834 16.4658C30.9319 16.5284 30.8269 16.5415 30.8149 16.5428L30.1452 10.5803C29.2494 10.6809 28.3163 11.0009 27.495 11.7383C26.7787 12.3814 26.3465 13.1725 26.0524 13.7918L31.4724 16.3654ZM29.7944 19.8053L31.4587 16.394L26.0662 13.7632L24.4019 17.1745L29.7944 19.8053ZM27.3483 21.4807L27.4331 21.4712L26.7633 15.5087L26.6785 15.5182L27.3483 21.4807ZM22.2709 17.4299L24.6882 20.395L29.3387 16.6038L26.9214 13.6387L22.2709 17.4299ZM22.812 17.4418C22.8651 17.4358 22.8068 17.4478 22.6817 17.4306C22.5404 17.4111 22.3822 17.364 22.2343 17.2878C22.098 17.2175 22.0326 17.1543 22.0416 17.1627C22.0566 17.1767 22.1197 17.2397 22.2456 17.3984L26.9468 13.6703C26.512 13.122 25.8879 12.4211 24.9844 11.9551C23.9754 11.4347 22.9826 11.3849 22.1423 11.4793L22.812 17.4418ZM23.6365 16.2428C23.6689 16.5312 23.5744 16.8662 23.3547 17.1206C23.1466 17.3615 22.9186 17.4298 22.812 17.4418L22.1423 11.4793C19.5566 11.7697 17.3426 13.9619 17.6741 16.9126L23.6365 16.2428ZM23.4311 15.793C23.4451 15.8076 23.5038 15.8744 23.5588 15.9907C23.6144 16.1083 23.6322 16.2045 23.6365 16.2428L17.6741 16.9126C17.8064 18.0904 18.2949 19.1061 19.1016 19.9469L23.4311 15.793ZM26.6088 19.1958L23.4591 15.8225L19.0736 19.9174L22.2233 23.2906L26.6088 19.1958ZM24.6705 26.6704L26.9921 22.7807L21.84 19.7057L19.5184 23.5954L24.6705 26.6704ZM24.6282 26.3808C24.6313 26.4083 24.6359 26.4705 24.6295 26.5555C24.6231 26.6425 24.6075 26.7219 24.5892 26.7859C24.5721 26.8457 24.5583 26.872 24.5661 26.8555C24.5751 26.8365 24.6013 26.7847 24.6601 26.6878L19.5288 23.5781C18.9506 24.5322 18.5054 25.6231 18.6657 27.0506L24.6282 26.3808Z" fill="white" mask="url(#path-1-outside-1_20118_29436)"/>
</svg>
