<svg width="20" height="16" viewBox="0 0 20 16" fill="none" xmlns="http://www.w3.org/2000/svg">
<path d="M19.3457 7.92969C19.3457 8.26172 19.209 8.59375 18.9648 8.82812L12.5586 15.2344C12.2949 15.4883 12.002 15.6055 11.6992 15.6055C10.9961 15.6055 10.498 15.1074 10.498 14.4531C10.498 14.0918 10.6445 13.7988 10.8691 13.584L13.0566 11.377L15.6348 9.02344L13.418 9.15039H1.9043C1.16211 9.15039 0.654297 8.65234 0.654297 7.92969C0.654297 7.20703 1.16211 6.70898 1.9043 6.70898H13.418L15.625 6.83594L13.0566 4.48242L10.8691 2.27539C10.6445 2.05078 10.498 1.75781 10.498 1.40625C10.498 0.742188 10.9961 0.244141 11.6992 0.244141C12.002 0.244141 12.2949 0.371094 12.5684 0.644531L18.9648 7.03125C19.209 7.26562 19.3457 7.59766 19.3457 7.92969Z" fill="white"/>
</svg>
