<svg width="16" height="16" viewBox="0 0 16 16" fill="none" xmlns="http://www.w3.org/2000/svg">
<path fill-rule="evenodd" clip-rule="evenodd" d="M9.06603 3.33288C8.88717 3.14461 8.59396 3.12459 8.39118 3.28682L7.84098 3.72698C7.64555 3.88332 7.59582 4.16006 7.72458 4.37466L8.70014 6.0006C8.89582 6.32673 9.18044 6.59031 9.52061 6.76042L9.99963 6.99996L3.43976 6.99996C3.02642 6.99996 2.81974 6.99996 2.68104 7.1147C2.65682 7.13474 2.63454 7.15702 2.6145 7.18125C2.49976 7.31995 2.49976 7.52662 2.49976 7.93996V8.05996C2.49976 8.4733 2.49976 8.67997 2.6145 8.81867C2.63454 8.84289 2.65682 8.86517 2.68104 8.88521C2.81974 8.99996 3.02642 8.99996 3.43976 8.99996L9.99963 8.99996L9.52061 9.2395C9.18044 9.40961 8.89582 9.67318 8.70014 9.99932L7.72458 11.6253C7.59582 11.8399 7.64555 12.1166 7.84098 12.2729L8.39118 12.7131C8.59396 12.8753 8.88717 12.8553 9.06603 12.667L12.8454 8.68871C13.2121 8.30274 13.2121 7.69717 12.8454 7.31121L9.06603 3.33288Z" fill="#262626" fill-opacity="0.4"/>
</svg>
