<svg width="40" height="40" viewBox="0 0 40 40" fill="none" xmlns="http://www.w3.org/2000/svg">
<path d="M1 36C1 33.7909 2.79086 32 5 32C7.20914 32 9 33.7909 9 36V40H1V36Z" fill="#F7C563"/>
<path d="M11 28C11 25.7909 12.7909 24 15 24C17.2091 24 19 25.7909 19 28V40H11V28Z" fill="#F7C563"/>
<path d="M21 20C21 17.7909 22.7909 16 25 16C27.2091 16 29 17.7909 29 20V40H21V20Z" fill="#262626" fill-opacity="0.1"/>
<path d="M31 12C31 9.79086 32.7909 8 35 8C37.2091 8 39 9.79086 39 12V40H31V12Z" fill="#262626" fill-opacity="0.1"/>
</svg>
