<svg width="40" height="40" viewBox="0 0 40 40" fill="none" xmlns="http://www.w3.org/2000/svg">
<g clip-path="url(#clip0_24913_24976)">
<rect x="4" y="4" width="32" height="32" rx="10" fill="url(#paint0_linear_24913_24976)"/>
<path d="M19.8644 11.352L20.5124 10.232C20.9124 9.53202 21.8044 9.29602 22.5044 9.69602C23.2044 10.096 23.4404 10.988 23.0404 11.688L16.7964 22.496H21.3124C22.7764 22.496 23.5964 24.216 22.9604 25.408H9.7204C8.9124 25.408 8.2644 24.76 8.2644 23.952C8.2644 23.144 8.9124 22.496 9.7204 22.496H13.4324L18.1844 14.26L16.7004 11.684C16.3004 10.984 16.5364 10.1 17.2364 9.69202C17.9364 9.29202 18.8204 9.52802 19.2284 10.228L19.8644 11.352ZM14.2484 26.908L12.8484 29.336C12.4484 30.036 11.5564 30.272 10.8564 29.872C10.1564 29.472 9.9204 28.58 10.3204 27.88L11.3604 26.08C12.5364 25.716 13.4924 25.996 14.2484 26.908ZM26.3044 22.504H30.0924C30.9004 22.504 31.5484 23.152 31.5484 23.96C31.5484 24.768 30.9004 25.416 30.0924 25.416H27.9884L29.4084 27.88C29.8084 28.58 29.5724 29.464 28.8724 29.872C28.1724 30.272 27.2884 30.036 26.8804 29.336C24.4884 25.188 22.6924 22.084 21.5004 20.016C20.2804 17.912 21.1524 15.8 22.0124 15.084C22.9684 16.724 24.3964 19.2 26.3044 22.504Z" fill="white"/>
</g>
<defs>
<linearGradient id="paint0_linear_24913_24976" x1="20" y1="4" x2="20" y2="36" gradientUnits="userSpaceOnUse">
<stop stop-color="#18BFFB"/>
<stop offset="1" stop-color="#2072F3"/>
</linearGradient>
<clipPath id="clip0_24913_24976">
<rect width="32" height="32" fill="white" transform="translate(4 4)"/>
</clipPath>
</defs>
</svg>
