<svg width="24" height="24" viewBox="0 0 24 24" fill="none" xmlns="http://www.w3.org/2000/svg">
<path fill-rule="evenodd" clip-rule="evenodd" d="M19.2965 21.0001C19.8445 21.0001 20.3755 20.7809 20.7219 20.3562C22.3023 18.4189 23.25 15.9451 23.25 13.25C23.25 7.0368 18.2132 2 12 2C5.7868 2 0.75 7.0368 0.75 13.25C0.75 15.9451 1.69773 18.4189 3.27809 20.3562C3.62447 20.7809 4.15549 21.0001 4.70347 21.0001H19.2965ZM13.8513 13.921C13.7724 14.1388 13.6558 14.3408 13.5067 14.518C12.0902 16.2013 9.39918 14.6476 10.1487 12.5793C10.2276 12.3616 10.3443 12.1595 10.4933 11.9823L15.8141 5.65933C16.1738 5.23193 16.8571 5.62643 16.6668 6.15161L13.8513 13.921Z" fill="#9FBBFA"/>
</svg>
