<svg width="49" height="51" viewBox="0 0 49 51" fill="none" xmlns="http://www.w3.org/2000/svg">
<path d="M3.24321 30.8323C1.79299 27.0618 1.69855 22.9044 2.97606 19.0718C5.25504 12.2349 12.3714 8.26385 19.3866 9.91448L20.5172 10.1805C22.8078 10.7195 25.1922 10.7195 27.4828 10.1805L29.2006 9.77633C36.0451 8.16586 43.0673 11.6515 45.9231 18.0769C47.8932 22.5097 48.0217 27.5436 46.2803 32.0711L44.0257 37.9332C42.275 42.4851 41.3996 44.7611 39.9386 46.4642C38.4634 48.1839 36.5643 49.4882 34.4296 50.2478C32.3155 51 29.877 51 25 51C20.123 51 17.6845 51 15.5704 50.2478C13.4357 49.4882 11.5366 48.1839 10.0614 46.4642C8.60041 44.7611 7.72504 42.4851 5.97429 37.9332L3.24321 30.8323Z" fill="#E64D2E"/>
<path d="M23 4H25L25.5 16H22.5L23 4Z" fill="#262626"/>
<path d="M24.2568 11.2689C24.2568 11.2689 17.9898 13.6331 11.6191 11.8063C5.24842 9.97957 1.18651 4.65364 1.18651 4.65364C1.18651 4.65364 7.45352 2.28948 13.8242 4.11624C20.1949 5.94301 24.2568 11.2689 24.2568 11.2689Z" fill="#47B35A"/>
</svg>
