<svg width="10" height="10" viewBox="0 0 10 10" fill="none" xmlns="http://www.w3.org/2000/svg">
<path fill-rule="evenodd" clip-rule="evenodd" d="M0.874719 4.10673C0.733516 4.24087 0.718507 4.46078 0.840174 4.61286L1.2953 5.18177C1.41255 5.32833 1.62011 5.36564 1.78106 5.26907L3.31301 4.3499C3.55761 4.20313 3.75529 3.98967 3.88287 3.73454L4.12503 3.25029L4.12503 9.10774C4.12503 9.41775 4.12503 9.57275 4.21109 9.67678C4.22612 9.69495 4.24283 9.71166 4.261 9.72669C4.36502 9.81274 4.52002 9.81274 4.83003 9.81274H5.17003C5.48003 9.81274 5.63504 9.81274 5.73906 9.72669C5.75723 9.71166 5.77394 9.69495 5.78897 9.67678C5.87503 9.57275 5.87503 9.41775 5.87503 9.10774L5.87503 3.25029L6.11719 3.73454C6.24477 3.98967 6.44245 4.20314 6.68705 4.3499L8.219 5.26907C8.37995 5.36564 8.58751 5.32833 8.70476 5.18177L9.15989 4.61286C9.28155 4.46078 9.26654 4.24087 9.12534 4.10673L5.51659 0.678418C5.22712 0.403418 4.77294 0.403418 4.48347 0.678418L0.874719 4.10673Z" fill="white"/>
</svg>
