<svg width="17" height="16" viewBox="0 0 17 16" fill="none" xmlns="http://www.w3.org/2000/svg">
<path fill-rule="evenodd" clip-rule="evenodd" d="M8.50024 15.0001C8.21643 15.0001 8.07452 15.0001 7.96423 14.9413C7.89268 14.9031 7.83148 14.8481 7.78591 14.781C7.71568 14.6776 7.70057 14.5365 7.67034 14.2543L7.3437 11.2046C7.18321 9.70613 7.10297 8.95692 7.09336 8.20502C7.09162 8.06841 7.09162 7.93178 7.09338 7.79517C7.10304 7.04327 7.18334 6.29406 7.34394 4.79564L7.67082 1.74571C7.70106 1.4636 7.71617 1.32255 7.78638 1.21917C7.83195 1.15207 7.89317 1.09706 7.96474 1.0589C8.07501 1.0001 8.21687 1.00008 8.50059 1.00006C8.78437 1.00004 8.92626 1.00003 9.03654 1.05883C9.10813 1.09699 9.16936 1.152 9.21494 1.21912C9.28516 1.32251 9.30027 1.46359 9.3305 1.74575L9.65717 4.79526C9.81771 6.29386 9.89798 7.04316 9.90759 7.79514C9.90934 7.93177 9.90933 8.06841 9.90758 8.20504C9.89792 8.95702 9.81761 9.70631 9.65699 11.2049L9.33014 14.2544C9.2999 14.5366 9.28477 14.6777 9.21454 14.7811C9.16897 14.8481 9.10778 14.9031 9.03623 14.9413C8.92594 15.0001 8.78404 15.0001 8.50024 15.0001Z" fill="#262626"/>
<path fill-rule="evenodd" clip-rule="evenodd" d="M1.50024 8.00027C1.50024 7.71648 1.50024 7.57458 1.55906 7.46429C1.59722 7.39274 1.65221 7.33155 1.71928 7.28598C1.82267 7.21575 1.96376 7.20062 2.24594 7.17038L5.29455 6.84361C6.79355 6.68293 7.54305 6.6026 8.29524 6.59296C8.4319 6.59121 8.56858 6.5912 8.70525 6.59296C9.45743 6.60259 10.2069 6.68292 11.7059 6.84358L14.7546 7.17033C15.0367 7.20057 15.1778 7.21569 15.2811 7.2859C15.3482 7.33147 15.4032 7.39268 15.4414 7.46425C15.5002 7.57452 15.5002 7.71638 15.5002 8.0001C15.5003 8.28388 15.5003 8.42577 15.4415 8.53606C15.4033 8.60765 15.3483 8.66887 15.2812 8.71445C15.1778 8.78467 15.0367 8.79978 14.7546 8.83001L11.7038 9.15682C10.2058 9.31729 9.4568 9.39753 8.70511 9.40716C8.56854 9.40891 8.43195 9.40892 8.29537 9.40717C7.54368 9.39755 6.79467 9.31733 5.29664 9.1569L2.24601 8.83018C1.96381 8.79995 1.82271 8.78484 1.7193 8.71461C1.65222 8.66904 1.59723 8.60784 1.55907 8.53629C1.50024 8.426 1.50024 8.28409 1.50024 8.00027Z" fill="#262626"/>
</svg>
