<svg width="17" height="16" viewBox="0 0 17 16" fill="none" xmlns="http://www.w3.org/2000/svg">
<path fill-rule="evenodd" clip-rule="evenodd" d="M9.56627 3.33288C9.38742 3.14461 9.0942 3.12459 8.89143 3.28682L8.34122 3.72698C8.1458 3.88332 8.09606 4.16006 8.22482 4.37466L9.20038 6.0006C9.39606 6.32673 9.68068 6.59031 10.0209 6.76042L10.4999 6.99996L3.94 6.99996C3.52666 6.99996 3.31999 6.99996 3.18129 7.1147C3.15706 7.13474 3.13478 7.15702 3.11474 7.18125C3 7.31995 3 7.52662 3 7.93996V8.05996C3 8.4733 3 8.67997 3.11474 8.81867C3.13478 8.84289 3.15706 8.86517 3.18129 8.88521C3.31999 8.99996 3.52666 8.99996 3.94 8.99996L10.4999 8.99996L10.0209 9.2395C9.68068 9.40961 9.39606 9.67318 9.20038 9.99932L8.22482 11.6253C8.09606 11.8399 8.1458 12.1166 8.34122 12.2729L8.89143 12.7131C9.0942 12.8753 9.38742 12.8553 9.56627 12.667L13.3457 8.68871C13.7124 8.30274 13.7124 7.69717 13.3457 7.31121L9.56627 3.33288Z" fill="white" fill-opacity="0.6"/>
</svg>
