<svg width="17" height="16" viewBox="0 0 17 16" fill="none" xmlns="http://www.w3.org/2000/svg">
<g clip-path="url(#clip0_5799_298)">
<path d="M11.4531 3.9375C11.5625 3.9375 11.7318 3.95052 11.9609 3.97656C12.1953 3.9974 12.4609 4.05469 12.7578 4.14844C13.0547 4.24219 13.3568 4.39323 13.6641 4.60156C13.9714 4.8099 14.2552 5.10156 14.5156 5.47656C14.4896 5.49219 14.3906 5.5625 14.2188 5.6875C14.0521 5.8125 13.862 5.99479 13.6484 6.23438C13.4349 6.46875 13.2474 6.76823 13.0859 7.13281C12.9297 7.49219 12.8516 7.92188 12.8516 8.42188C12.8516 8.99479 12.9505 9.47917 13.1484 9.875C13.3516 10.2708 13.5859 10.5911 13.8516 10.8359C14.1224 11.0807 14.362 11.2604 14.5703 11.375C14.7839 11.4844 14.8984 11.5417 14.9141 11.5469C14.9089 11.5677 14.8698 11.6849 14.7969 11.8984C14.724 12.1068 14.6094 12.3776 14.4531 12.7109C14.3021 13.0391 14.1042 13.3828 13.8594 13.7422C13.6354 14.0599 13.4036 14.3646 13.1641 14.6562C12.9297 14.9479 12.6719 15.1849 12.3906 15.3672C12.1146 15.5547 11.8021 15.6484 11.4531 15.6484C11.1875 15.6484 10.9609 15.6172 10.7734 15.5547C10.5859 15.4922 10.4062 15.4193 10.2344 15.3359C10.0677 15.2578 9.88281 15.1875 9.67969 15.125C9.47656 15.0625 9.22396 15.0312 8.92188 15.0312C8.52604 15.0312 8.19531 15.0833 7.92969 15.1875C7.66927 15.2969 7.42188 15.4036 7.1875 15.5078C6.95312 15.612 6.67708 15.6641 6.35938 15.6641C5.875 15.6641 5.44792 15.4714 5.07812 15.0859C4.71354 14.7005 4.33854 14.2396 3.95312 13.7031C3.65625 13.276 3.38542 12.7839 3.14062 12.2266C2.89583 11.6693 2.70052 11.0781 2.55469 10.4531C2.40885 9.82812 2.33594 9.20312 2.33594 8.57812C2.33594 7.57812 2.52604 6.73698 2.90625 6.05469C3.28646 5.3724 3.77344 4.85677 4.36719 4.50781C4.96094 4.15885 5.57812 3.98438 6.21875 3.98438C6.55729 3.98438 6.875 4.03906 7.17188 4.14844C7.47396 4.25781 7.75521 4.36979 8.01562 4.48438C8.27604 4.59375 8.51302 4.64844 8.72656 4.64844C8.92969 4.64844 9.16927 4.59115 9.44531 4.47656C9.72135 4.35677 10.026 4.23698 10.3594 4.11719C10.6979 3.9974 11.0625 3.9375 11.4531 3.9375ZM10.9062 2.67188C10.6458 2.98958 10.3177 3.2526 9.92188 3.46094C9.53125 3.66927 9.16146 3.77344 8.8125 3.77344C8.73958 3.77344 8.66927 3.76562 8.60156 3.75C8.59635 3.72917 8.58854 3.69271 8.57812 3.64062C8.57292 3.58854 8.57031 3.53125 8.57031 3.46875C8.57031 3.07292 8.65625 2.6875 8.82812 2.3125C9 1.9375 9.19792 1.625 9.42188 1.375C9.69792 1.04688 10.0469 0.773438 10.4688 0.554688C10.8958 0.335938 11.3047 0.21875 11.6953 0.203125C11.7109 0.291667 11.7188 0.393229 11.7188 0.507812C11.7188 0.908854 11.6432 1.29948 11.4922 1.67969C11.3411 2.05469 11.1458 2.38542 10.9062 2.67188Z" fill="white"/>
</g>
<defs>
<clipPath id="clip0_5799_298">
<rect width="16" height="16" fill="white" transform="translate(0.5)"/>
</clipPath>
</defs>
</svg>
