<svg width="24" height="24" viewBox="0 0 24 24" fill="none" xmlns="http://www.w3.org/2000/svg">
<path fill-rule="evenodd" clip-rule="evenodd" d="M5.89163 1.27176C5.72525 0.90868 5.20881 0.910264 5.04466 1.27436L4.49719 2.48868C4.28851 2.95155 3.99759 3.37272 3.63857 3.73175C3.26429 4.10603 2.8226 4.40615 2.3368 4.6163L1.2805 5.07323C0.922171 5.22823 0.902671 5.72907 1.24787 5.91147L2.19128 6.40995C2.69866 6.67804 3.16297 7.02069 3.56875 7.42646C4.01002 7.86773 4.37639 8.378 4.65345 8.93718L5.05124 9.74002C5.22143 10.0835 5.71071 10.0853 5.88338 9.74303L6.28285 8.95125C6.56638 8.38929 6.93766 7.87611 7.38274 7.43103C7.7967 7.01707 8.26975 6.66677 8.78645 6.39155L9.69082 5.90985C10.0343 5.7269 10.0147 5.22821 9.65791 5.0728L8.63317 4.62643C8.1403 4.41175 7.69214 4.10639 7.312 3.72625C6.95113 3.36538 6.6575 2.94305 6.44489 2.4791L5.89163 1.27176ZM15.6929 7.44293C15.4122 6.83735 14.5504 6.84002 14.2735 7.44732L13.2578 9.67466C12.8838 10.4947 12.3637 11.2398 11.7228 11.8734C11.06 12.5287 10.2798 13.0533 9.42287 13.4198L7.4545 14.2616C6.84878 14.5206 6.81606 15.3671 7.39998 15.6721L9.16164 16.5924C10.0575 17.0604 10.8784 17.6596 11.5971 18.3702C12.3841 19.1483 13.0386 20.05 13.5344 21.0395L14.2846 22.5363C14.5715 23.1088 15.3876 23.1118 15.6787 22.5414L16.4321 21.0649C16.9393 20.071 17.6022 19.1647 18.3957 18.3802C19.1287 17.6555 19.9647 17.043 20.8768 16.5628L22.5716 15.6702C23.1526 15.3643 23.1197 14.5214 22.5166 14.2617L20.6077 13.4396C19.7372 13.0647 18.9444 12.5303 18.2703 11.8638C17.6253 11.2261 17.0996 10.4781 16.7182 9.65509L15.6929 7.44293Z" fill="#4F8BEC"/>
</svg>
