<svg width="25" height="24" viewBox="0 0 25 24" fill="none" xmlns="http://www.w3.org/2000/svg">
<path fill-rule="evenodd" clip-rule="evenodd" d="M18.063 2.92046L20.2982 3.5591C20.6355 3.65548 20.8042 3.70367 20.8906 3.82965C20.9057 3.85166 20.9187 3.87504 20.9294 3.89948C20.9907 4.03942 20.9425 4.20808 20.8462 4.54539L20.8461 4.54541L20.8461 4.54543L20.8182 4.64336C20.7218 4.98069 20.6736 5.14936 20.5476 5.2358C20.5256 5.25089 20.5022 5.26388 20.4778 5.27459C20.3378 5.33589 20.1692 5.2877 19.8318 5.19132L17.6427 4.56585C16.965 4.37221 16.5275 4.24866 16.1902 4.19378C15.8718 4.14197 15.7506 4.17177 15.6812 4.20121C15.6329 4.22166 15.5866 4.24654 15.5429 4.27553C15.4801 4.31726 15.3883 4.40192 15.256 4.69609C15.1157 5.00772 14.9775 5.44074 14.7653 6.11288L14.357 7.40587H15.5304C17.0819 7.40587 17.8576 7.40587 18.3438 7.84965C18.4282 7.92668 18.5046 8.01205 18.5718 8.10444C18.9592 8.63664 18.8736 9.40765 18.7022 10.9497L18.0077 17.2004C17.7485 19.5327 17.619 20.6989 16.9431 21.4915C16.745 21.7238 16.5165 21.9283 16.2638 22.0994C15.4014 22.6837 14.2281 22.6837 11.8814 22.6837C9.53482 22.6837 8.36151 22.6837 7.49907 22.0994C7.24636 21.9283 7.01788 21.7238 6.81983 21.4915C6.14393 20.6989 6.01436 19.5327 5.75522 17.2004L5.06068 10.9497C4.88935 9.40765 4.80368 8.63664 5.19105 8.10444C5.2583 8.01205 5.3347 7.92668 5.4191 7.84965C5.90527 7.40587 6.68102 7.40587 8.23253 7.40587H12.5768L13.1465 5.6017L13.161 5.556L13.161 5.55597L13.161 5.55592C13.3547 4.94254 13.5219 4.41292 13.708 3.99945C13.9065 3.55825 14.1676 3.15092 14.6043 2.86113C14.7353 2.77415 14.8742 2.69951 15.019 2.63815C15.5016 2.43372 15.9853 2.44058 16.4629 2.51828C16.9104 2.5911 17.4445 2.74371 18.063 2.92046ZM6.51935 9.25992H9.91442H11.9206L8.67985 19.4451C8.67985 19.4451 8.21502 19.4414 8.06256 19.1365C7.44528 17.9019 8.67985 12.9636 8.67985 12.9636L7.13663 13.2723L6.82799 11.1118L6.51935 9.25992ZM13.6181 9.2601H15.47H17.3218C17.3218 9.2601 17.1489 10.7727 17.0132 11.7292C16.892 12.5836 16.7046 13.8897 16.7046 13.8897C16.7046 13.8897 15.4216 14.1984 14.5441 14.1984C13.6666 14.1984 12.0749 13.8897 12.0749 13.8897L13.0009 11.112L13.6181 9.2601Z" fill="#FFC34D"/>
</svg>
