<svg width="16" height="16" viewBox="0 0 16 16" fill="none" xmlns="http://www.w3.org/2000/svg">
<path fill-rule="evenodd" clip-rule="evenodd" d="M12.529 13.2877C12.6486 13.2513 12.749 13.151 12.9496 12.9503C13.1503 12.7496 13.2507 12.6493 13.2871 12.5297C13.3107 12.4521 13.3151 12.37 13.2998 12.2903C13.2764 12.1675 13.1873 12.0571 13.0092 11.8362L11.084 9.44872L11.084 9.44871C10.5839 8.82853 10.2159 8.37227 9.90267 8.00038C10.2158 7.6287 10.5835 7.17272 11.0833 6.55299L13.0094 4.16473C13.1876 3.94383 13.2766 3.83339 13.3001 3.71062C13.3153 3.63094 13.3109 3.54875 13.2873 3.47114C13.2509 3.35158 13.1506 3.25125 12.9499 3.05061C12.7492 2.85 12.6489 2.7497 12.5294 2.71331C12.4518 2.68969 12.3696 2.6853 12.2899 2.70052C12.1672 2.72398 12.0567 2.81303 11.8359 2.99113L9.44911 4.9158C8.8286 5.41618 8.37214 5.78427 8.00009 6.09769C7.62821 5.78439 7.17197 5.41644 6.55183 4.91631L6.55182 4.9163L4.16449 2.99097C3.9436 2.81282 3.83315 2.72375 3.71039 2.70029C3.63071 2.68507 3.54851 2.68946 3.47091 2.71309C3.35134 2.7495 3.25102 2.84984 3.05038 3.05052L3.05038 3.05052C2.84977 3.25115 2.74947 3.35147 2.71308 3.47102C2.68946 3.54862 2.68507 3.6308 2.70029 3.71047C2.72375 3.83321 2.8128 3.94364 2.9909 4.1645L4.91638 6.55227L4.91638 6.55228C5.41638 7.17232 5.78424 7.6285 6.09746 8.00033C5.78405 8.37238 5.41596 8.82884 4.9156 9.44935L4.91559 9.44936L2.99096 11.8361L2.99095 11.8361C2.81282 12.057 2.72375 12.1675 2.7003 12.2903C2.68509 12.3699 2.68948 12.4521 2.71309 12.5296C2.74949 12.6492 2.84983 12.7496 3.0505 12.9502C3.25119 13.1509 3.35153 13.2513 3.47111 13.2877C3.54869 13.3113 3.63085 13.3156 3.71051 13.3004C3.83329 13.277 3.94375 13.1879 4.16466 13.0097L6.55281 11.0836L6.55283 11.0836C7.17246 10.5839 7.62839 10.2161 8.00003 9.90304C8.37185 10.2163 8.828 10.5842 9.44801 11.0842L11.8355 13.0098C12.0564 13.1879 12.1669 13.277 12.2896 13.3005C12.3693 13.3157 12.4515 13.3113 12.529 13.2877Z" fill="#262626" fill-opacity="0.4"/>
</svg>
