<svg width="10" height="12" viewBox="0 0 10 12" fill="none" xmlns="http://www.w3.org/2000/svg">
<path d="M5 11.8457C4.95312 11.8457 4.89453 11.8359 4.82422 11.8164C4.75391 11.7969 4.68164 11.7676 4.60742 11.7285C3.77539 11.2598 3.07227 10.8438 2.49805 10.4805C1.92773 10.1172 1.46875 9.76562 1.12109 9.42578C0.773438 9.08594 0.521484 8.71875 0.365234 8.32422C0.208984 7.92969 0.130859 7.46484 0.130859 6.92969V2.44727C0.130859 2.13867 0.195312 1.91797 0.324219 1.78516C0.457031 1.64844 0.646484 1.5293 0.892578 1.42773C1.0293 1.36914 1.21875 1.29297 1.46094 1.19922C1.70312 1.10547 1.9707 1.00391 2.26367 0.894531C2.55664 0.785156 2.84766 0.677734 3.13672 0.572266C3.42969 0.462891 3.69727 0.367188 3.93945 0.285156C4.18164 0.199219 4.37305 0.136719 4.51367 0.0976562C4.5918 0.078125 4.67188 0.0585937 4.75391 0.0390625C4.83594 0.0195313 4.91797 0.00976562 5 0.00976562C5.08203 0.00976562 5.16406 0.0195313 5.24609 0.0390625C5.33203 0.0546875 5.41406 0.0742188 5.49219 0.0976562C5.62891 0.144531 5.81836 0.210937 6.06055 0.296875C6.30273 0.382813 6.57031 0.478516 6.86328 0.583984C7.15625 0.689453 7.44727 0.796875 7.73633 0.90625C8.0293 1.01172 8.29688 1.11133 8.53906 1.20508C8.78125 1.29492 8.9707 1.36914 9.10742 1.42773C9.35742 1.5332 9.54688 1.65234 9.67578 1.78516C9.80469 1.91797 9.86914 2.13867 9.86914 2.44727V6.92969C9.86914 7.46484 9.79102 7.93164 9.63477 8.33008C9.48242 8.72461 9.23242 9.0918 8.88477 9.43164C8.53711 9.77148 8.07617 10.1211 7.50195 10.4805C6.93164 10.8438 6.22852 11.2598 5.39258 11.7285C5.31836 11.7676 5.24609 11.7969 5.17578 11.8164C5.10547 11.8359 5.04688 11.8457 5 11.8457ZM5 10.7852C5.04688 10.7852 5.09766 10.7734 5.15234 10.75C5.20703 10.7305 5.27734 10.6953 5.36328 10.6445C6.03906 10.2344 6.60547 9.88086 7.0625 9.58398C7.52344 9.28711 7.89062 9.00586 8.16406 8.74023C8.44141 8.47461 8.63867 8.18359 8.75586 7.86719C8.87695 7.55078 8.9375 7.16602 8.9375 6.71289V2.62891C8.9375 2.53125 8.92383 2.45703 8.89648 2.40625C8.87305 2.35547 8.82227 2.31641 8.74414 2.28906C8.56055 2.22656 8.34961 2.1543 8.11133 2.07227C7.87695 1.98633 7.62891 1.89648 7.36719 1.80273C7.10938 1.70898 6.84961 1.61523 6.58789 1.52148C6.33008 1.42383 6.08398 1.33203 5.84961 1.24609C5.61523 1.15625 5.41016 1.07617 5.23438 1.00586C5.1875 0.986328 5.14453 0.972656 5.10547 0.964844C5.06641 0.957031 5.03125 0.953125 5 0.953125C4.96875 0.953125 4.93359 0.957031 4.89453 0.964844C4.85547 0.972656 4.8125 0.986328 4.76562 1.00586C4.58984 1.07617 4.38477 1.1543 4.15039 1.24023C3.91602 1.32617 3.66797 1.41602 3.40625 1.50977C3.14453 1.59961 2.88281 1.69141 2.62109 1.78516C2.35938 1.87891 2.11133 1.96875 1.87695 2.05469C1.64258 2.14062 1.4375 2.21875 1.26172 2.28906C1.17969 2.32031 1.125 2.36133 1.09766 2.41211C1.07422 2.45898 1.0625 2.53125 1.0625 2.62891V6.71289C1.0625 7.16602 1.12305 7.55078 1.24414 7.86719C1.36523 8.18359 1.5625 8.47656 1.83594 8.74609C2.10938 9.01172 2.47461 9.29297 2.93164 9.58984C3.39258 9.88281 3.96094 10.2344 4.63672 10.6445C4.72266 10.6953 4.79297 10.7305 4.84766 10.75C4.90234 10.7734 4.95312 10.7852 5 10.7852ZM4.36719 8.42383C4.26953 8.42383 4.17969 8.40234 4.09766 8.35938C4.01953 8.31641 3.94336 8.24805 3.86914 8.1543L2.43945 6.39648C2.34961 6.27539 2.30469 6.1543 2.30469 6.0332C2.30469 5.9043 2.34766 5.79492 2.43359 5.70508C2.52344 5.61133 2.63086 5.56445 2.75586 5.56445C2.83789 5.56445 2.91211 5.58203 2.97852 5.61719C3.04883 5.64844 3.11914 5.71094 3.18945 5.80469L4.34375 7.29883L6.77539 3.39648C6.88477 3.2207 7.02148 3.13281 7.18555 3.13281C7.30664 3.13281 7.41602 3.17188 7.51367 3.25C7.61133 3.32812 7.66016 3.43164 7.66016 3.56055C7.66016 3.62695 7.64453 3.69336 7.61328 3.75977C7.58594 3.82227 7.55469 3.88086 7.51953 3.93555L4.8418 8.1543C4.72461 8.33398 4.56641 8.42383 4.36719 8.42383Z" fill="#262626" fill-opacity="0.4"/>
</svg>
