<svg width="24" height="24" viewBox="0 0 24 24" fill="none" xmlns="http://www.w3.org/2000/svg">
<rect x="5" y="5" width="14" height="14" rx="7" stroke="#EDEDF2" stroke-width="6"/>
<path d="M12 5.1115C12 3.39307 13.4256 1.95408 15.0616 2.48019C15.7212 2.69232 16.3596 2.97327 16.9659 3.32015C18.478 4.18523 19.7378 5.43029 20.6207 6.93204C21.5035 8.43379 21.9788 10.1401 21.9993 11.882C22.0199 13.6239 21.585 15.341 20.7378 16.8632C19.8907 18.3853 18.6605 19.6598 17.1693 20.5603C15.6781 21.4608 13.9775 21.9561 12.2359 21.9972C10.4944 22.0383 8.77231 21.6238 7.24026 20.7946C6.62594 20.4621 6.05072 20.0676 5.52283 19.6188C4.21359 18.5058 4.68523 16.5358 6.14568 15.6302L7.12197 15.0248C8.04322 14.4536 9.24892 14.8058 10.2023 15.3217C10.7809 15.6349 11.4313 15.7915 12.0891 15.7759C12.7469 15.7604 13.3892 15.5733 13.9524 15.2332C14.5157 14.8931 14.9803 14.4117 15.3003 13.8368C15.6203 13.2619 15.7845 12.6134 15.7767 11.9554C15.769 11.2975 15.5895 10.653 15.256 10.0858C14.9226 9.51863 14.4467 9.04837 13.8756 8.72163C12.9347 8.18332 12 7.34425 12 6.26025V5.1115Z" fill="#47B25A"/>
</svg>
