<svg width="24" height="24" viewBox="0 0 24 24" fill="none" xmlns="http://www.w3.org/2000/svg">
<path fill-rule="evenodd" clip-rule="evenodd" d="M12.0077 22.7487C14.3166 22.7497 15.2875 19.4753 15.6105 17.9796C15.6855 17.6324 16.0678 17.4754 16.2762 17.763C16.8003 18.4864 17.179 19.7152 17.1532 20.7945C17.1446 21.1516 17.5418 21.4597 17.8389 21.2615C19.7202 20.0067 21 17.9696 21 15.25C21 12.31 19.5594 10.2104 18.09 8.06874C16.6801 6.01375 15.2436 3.92009 15.0278 1.00824C15.0013 0.650264 14.6335 0.409984 14.3203 0.585387C11.412 2.21425 9.40414 5.8992 10.2514 9.03406C10.3451 9.38058 10.0925 9.74044 9.76077 9.60326C8.61452 9.12924 7.93789 7.59557 7.87707 6.31798C7.85941 5.94703 7.40423 5.63607 7.11362 5.86727C4.94154 7.5953 3 10.7843 3 14.75C3 19.18 6 22.7487 12.0077 22.7487Z" fill="#FF8066"/>
</svg>
