<svg width="16" height="16" viewBox="0 0 16 16" fill="none" xmlns="http://www.w3.org/2000/svg">
<path fill-rule="evenodd" clip-rule="evenodd" d="M12.5288 13.2873C12.6484 13.2509 12.7487 13.1506 12.9494 12.9499C13.1501 12.7492 13.2504 12.6489 13.2868 12.5293C13.3104 12.4517 13.3148 12.3696 13.2996 12.2899C13.2762 12.1671 13.1871 12.0567 13.0089 11.8358L11.0837 9.44832L11.0837 9.4483C10.5836 8.82813 10.2157 8.37187 9.90243 7.99998C10.2155 7.6283 10.5833 7.17232 11.0831 6.55259L13.0092 4.16432C13.1873 3.94343 13.2764 3.83298 13.2999 3.71022C13.3151 3.63053 13.3107 3.54834 13.2871 3.47073C13.2506 3.35117 13.1503 3.25085 12.9496 3.0502C12.749 2.8496 12.6487 2.7493 12.5291 2.7129C12.4515 2.68928 12.3693 2.68489 12.2897 2.70012C12.1669 2.72357 12.0565 2.81262 11.8356 2.99072L9.44887 4.9154C8.82836 5.41577 8.3719 5.78386 7.99985 6.09729C7.62797 5.78399 7.17173 5.41604 6.55159 4.91591L6.55158 4.9159L4.16425 2.99056C3.94336 2.81241 3.83291 2.72334 3.71015 2.69989C3.63046 2.68466 3.54827 2.68905 3.47066 2.71269C3.3511 2.74909 3.25078 2.84943 3.05013 3.05011L3.05013 3.05011C2.84953 3.25075 2.74922 3.35107 2.71283 3.47061C2.68921 3.54821 2.68482 3.63039 2.70005 3.71007C2.7235 3.83281 2.81255 3.94324 2.99065 4.1641L4.91613 6.55187L4.91614 6.55187C5.41614 7.17191 5.784 7.62809 6.09722 7.99993C5.7838 8.37198 5.41572 8.82844 4.91535 9.44895L4.91535 9.44895L2.99072 11.8357L2.99071 11.8357C2.81257 12.0566 2.7235 12.1671 2.70006 12.2899C2.68485 12.3695 2.68924 12.4517 2.71285 12.5292C2.74925 12.6488 2.84958 12.7491 3.05025 12.9498C3.25094 13.1505 3.35129 13.2509 3.47087 13.2872C3.54845 13.3109 3.63061 13.3152 3.71026 13.3C3.83304 13.2766 3.9435 13.1875 4.16442 13.0093L6.55257 11.0832L6.55259 11.0832C7.17222 10.5835 7.62815 10.2157 7.99979 9.90264C8.3716 10.2159 8.82776 10.5838 9.44776 11.0838L11.8352 13.0094C12.0562 13.1875 12.1666 13.2766 12.2894 13.3001C12.3691 13.3153 12.4512 13.3109 12.5288 13.2873Z" fill="#262626" fill-opacity="0.2"/>
</svg>
