<svg width="24" height="24" viewBox="0 0 24 24" fill="none" xmlns="http://www.w3.org/2000/svg">
<path fill-rule="evenodd" clip-rule="evenodd" d="M19.8662 19.6338C20.1461 19.3539 20.286 19.214 20.306 19.041C20.3095 19.0107 20.3102 18.9802 20.3082 18.9498C20.2964 18.7761 20.1633 18.6296 19.8971 18.3368L13 10.75L5.66311 4.10095C5.37027 3.83555 5.22384 3.70286 5.0503 3.69126C5.01991 3.68923 4.98941 3.68998 4.95916 3.6935C4.78639 3.71361 4.64666 3.85334 4.3672 4.13279L4.13378 4.36622C3.85393 4.64608 3.714 4.786 3.69398 4.95897C3.69048 4.98925 3.68975 5.01979 3.69181 5.05021C3.70358 5.22393 3.83669 5.37036 4.10292 5.66321L11 13.25L18.3369 19.8991C18.6297 20.1644 18.7762 20.2971 18.9497 20.3087C18.9801 20.3108 19.0106 20.31 19.0408 20.3065C19.2136 20.2864 19.3533 20.1467 19.6328 19.8672L19.8662 19.6338Z" fill="#262626"/>
<path fill-rule="evenodd" clip-rule="evenodd" d="M4.13378 19.6338C3.85392 19.3539 3.714 19.214 3.69398 19.041C3.69048 19.0107 3.68975 18.9802 3.69181 18.9498C3.70358 18.7761 3.83669 18.6296 4.10292 18.3368L11 10.75L18.3369 4.10095C18.6297 3.83555 18.7762 3.70286 18.9497 3.69126C18.9801 3.68923 19.0106 3.68998 19.0408 3.6935C19.2136 3.71361 19.3533 3.85334 19.6328 4.13279L19.8662 4.36622C20.1461 4.64608 20.286 4.786 20.306 4.95897C20.3095 4.98925 20.3102 5.01979 20.3082 5.05021C20.2964 5.22393 20.1633 5.37036 19.8971 5.66321L13 13.25L5.66311 19.8991C5.37027 20.1644 5.22384 20.2971 5.0503 20.3087C5.01991 20.3108 4.98941 20.31 4.95916 20.3065C4.78639 20.2864 4.64666 20.1467 4.36721 19.8672L4.13378 19.6338Z" fill="#262626"/>
</svg>
