<svg width="24" height="21" viewBox="0 0 24 21" fill="none" xmlns="http://www.w3.org/2000/svg">
<path fill-rule="evenodd" clip-rule="evenodd" d="M24 13.48V7.70701C24 5.60629 24 4.55594 23.4555 3.78018C23.3595 3.64348 23.2523 3.51503 23.135 3.39618C22.4692 2.72167 21.4357 2.53377 19.3689 2.15798L18.5855 2.01555C18.55 2.00908 18.5322 2.00585 18.5172 1.99722C18.5102 1.99319 18.5037 1.98832 18.4979 1.98272C18.4854 1.97075 18.4773 1.95458 18.4611 1.92224C18.0653 1.13051 17.8673 0.734643 17.5497 0.468039C17.4017 0.343829 17.2364 0.241721 17.0592 0.164897C16.6786 0 16.2361 0 15.3509 0H12.1418C11.2638 0 10.8248 0 10.4469 0.162295C10.2653 0.240274 10.0963 0.344734 9.94532 0.472269C9.63115 0.737705 9.43482 1.13037 9.04216 1.91569C9.02477 1.95046 9.01607 1.96785 9.00247 1.98033C8.99591 1.98634 8.98859 1.99144 8.98069 1.99551C8.96428 2.00397 8.94495 2.00612 8.90631 2.01041L5.01717 2.44254C2.79008 2.68999 1.67654 2.81372 0.948249 3.49645C0.820336 3.61636 0.703181 3.74725 0.598129 3.88763C0 4.68686 0 5.80725 0 8.04804V13.48C0 16.7867 0 18.4401 0.917947 19.5497C1.07827 19.7435 1.25651 19.9217 1.4503 20.0821C2.55991 21 4.21327 21 7.52 21H16.48C19.7867 21 21.4401 21 22.5497 20.0821C22.7435 19.9217 22.9217 19.7435 23.0821 19.5497C24 18.4401 24 16.7867 24 13.48ZM5 6.5C5 7.32843 4.32843 8 3.5 8C2.67157 8 2 7.32843 2 6.5C2 5.67157 2.67157 5 3.5 5C4.32843 5 5 5.67157 5 6.5ZM13.5 17C16.5376 17 19 14.5376 19 11.5C19 8.46243 16.5376 6 13.5 6C10.4624 6 8 8.46243 8 11.5C8 14.5376 10.4624 17 13.5 17Z" fill="#262626"/>
</svg>
