<svg width="24" height="24" viewBox="0 0 24 24" fill="none" xmlns="http://www.w3.org/2000/svg">
<path fill-rule="evenodd" clip-rule="evenodd" d="M2.80385 5C2 6.3923 2 8.26154 2 12C2 15.7385 2 17.6077 2.80385 19C3.33046 19.9121 4.08788 20.6695 5 21.1962C6.3923 22 8.26154 22 12 22C15.7385 22 17.6077 22 19 21.1962C19.9121 20.6695 20.6695 19.9121 21.1962 19C22 17.6077 22 15.7385 22 12C22 8.26154 22 6.3923 21.1962 5C20.6695 4.08788 19.9121 3.33046 19 2.80385C17.6077 2 15.7385 2 12 2C8.26154 2 6.3923 2 5 2.80385C4.08788 3.33046 3.33046 4.08788 2.80385 5ZM12 13.5C12.8284 13.5 13.5 12.8284 13.5 12C13.5 11.1716 12.8284 10.5 12 10.5C11.1716 10.5 10.5 11.1716 10.5 12C10.5 12.8284 11.1716 13.5 12 13.5ZM17.5 8C17.5 8.82843 16.8284 9.5 16 9.5C15.1716 9.5 14.5 8.82843 14.5 8C14.5 7.17157 15.1716 6.5 16 6.5C16.8284 6.5 17.5 7.17157 17.5 8ZM8 17.5C8.82843 17.5 9.5 16.8284 9.5 16C9.5 15.1716 8.82843 14.5 8 14.5C7.17157 14.5 6.5 15.1716 6.5 16C6.5 16.8284 7.17157 17.5 8 17.5Z" fill="#262626"/>
</svg>
