<svg width="16" height="16" viewBox="0 0 16 16" fill="none" xmlns="http://www.w3.org/2000/svg">
<path d="M9.5 1C11.7091 1 13.5 2.79086 13.5 5V11C13.5 13.2091 11.7091 15 9.5 15H6.5C4.29086 15 2.5 13.2091 2.5 11V5C2.5 2.79086 4.29086 1 6.5 1H9.5ZM5.5 10C4.94772 10 4.5 10.4477 4.5 11C4.5 11.5523 4.94772 12 5.5 12H7.5C8.05228 12 8.5 11.5523 8.5 11C8.5 10.4477 8.05228 10 7.5 10H5.5ZM5.5 7C4.94772 7 4.5 7.44772 4.5 8C4.5 8.55228 4.94772 9 5.5 9H10.5C11.0523 9 11.5 8.55228 11.5 8C11.5 7.44772 11.0523 7 10.5 7H5.5ZM5.5 4C4.94772 4 4.5 4.44772 4.5 5C4.5 5.55228 4.94772 6 5.5 6H10.5C11.0523 6 11.5 5.55228 11.5 5C11.5 4.44772 11.0523 4 10.5 4H5.5Z" fill="#262626"/>
</svg>
