<svg width="24" height="24" viewBox="0 0 24 24" fill="none" xmlns="http://www.w3.org/2000/svg">
<path d="M4.9578 8.06479C4.85399 7.13056 4.78815 6.52166 4.79379 6.06534C4.79917 5.6305 4.87139 5.48658 4.92602 5.41152C4.96564 5.35709 5.01064 5.30681 5.06036 5.26142C5.12893 5.19883 5.26399 5.11116 5.69558 5.0578C6.14849 5.0018 6.76094 5 7.70092 5H16.2991C17.2391 5 17.8515 5.0018 18.3044 5.0578C18.736 5.11116 18.8711 5.19883 18.9396 5.26142C18.9894 5.30681 19.0344 5.35709 19.074 5.41151L19.8137 4.87309L19.074 5.41152C19.1286 5.48658 19.2008 5.6305 19.2062 6.06534C19.2119 6.52166 19.146 7.13056 19.0422 8.06479L18.2239 15.4293C18.0689 16.8245 17.9599 17.7936 17.7979 18.534C17.6401 19.2551 17.4522 19.6539 17.2026 19.9465C17.0276 20.1518 16.8257 20.3325 16.6024 20.4838C16.2839 20.6995 15.8669 20.8422 15.1328 20.9194C14.379 20.9987 13.4038 21 12 21C10.5962 21 9.62103 20.9987 8.86722 20.9194C8.13312 20.8422 7.71607 20.6995 7.39762 20.4838C7.17431 20.3325 6.97242 20.1518 6.79742 19.9465L6.06046 20.575L6.79742 19.9465C6.54785 19.6539 6.35989 19.2551 6.2021 18.534C6.04007 17.7936 5.9311 16.8245 5.77608 15.4293L4.9578 8.06479Z" stroke="#FF5533" stroke-width="2"/>
<path d="M7.96076 3.07848C8.43324 2.13351 8.66948 1.66103 9.07399 1.37225C9.14611 1.32076 9.22156 1.27413 9.29986 1.23265C9.73905 1 10.2673 1 11.3238 1H12.6762C13.7327 1 14.2609 1 14.7001 1.23265C14.7784 1.27413 14.8539 1.32076 14.926 1.37225C15.3305 1.66103 15.5668 2.13351 16.0392 3.07848L16.5 4H7.5L7.96076 3.07848Z" fill="#FF5533"/>
<path d="M2.60511 4.88211C2.63034 4.7938 2.64296 4.74965 2.65623 4.70966C2.89266 3.9972 3.50814 3.47713 4.25007 3.36289C4.2917 3.35648 4.33734 3.35141 4.42862 3.34126C4.9317 3.28537 5.18323 3.25742 5.4343 3.23153C9.79985 2.78129 14.2001 2.78129 18.5657 3.23153C18.8168 3.25742 19.0683 3.28537 19.5714 3.34126C19.6627 3.35141 19.7083 3.35648 19.7499 3.36289C20.4919 3.47713 21.1073 3.9972 21.3438 4.70966C21.357 4.74965 21.3697 4.7938 21.3949 4.88211L21.503 5.26053C21.6227 5.67943 21.6825 5.88889 21.6725 6.05875C21.6488 6.46136 21.3856 6.81034 21.005 6.94372C20.8444 7 20.6266 7 20.1909 7H3.80908C3.37341 7 3.15558 7 2.995 6.94372C2.61438 6.81034 2.35115 6.46136 2.32746 6.05875C2.31746 5.88889 2.3773 5.67943 2.49699 5.26053L2.60511 4.88211Z" fill="#FF5533"/>
</svg>
