<svg width="25" height="24" viewBox="0 0 25 24" fill="none" xmlns="http://www.w3.org/2000/svg">
<path fill-rule="evenodd" clip-rule="evenodd" d="M13.3603 5.07288C14.491 4.09815 15.0563 3.61079 15.6724 3.40652C16.4204 3.1585 17.2329 3.18855 17.9605 3.49115C18.5599 3.74037 19.0877 4.26817 20.1432 5.32376L20.9115 6.09205L20.9116 6.09208L20.9117 6.09217C21.2448 6.4253 21.4114 6.59188 21.5362 6.75221C22.402 7.86451 22.4591 9.40607 21.6777 10.5793C21.5651 10.7484 21.4113 10.9269 21.1036 11.2838L20.1082 12.4384C20.1724 12.5035 20.2201 12.5859 20.2435 12.6794L20.9752 15.6056C21.1769 16.4125 20.5666 17.1942 19.7349 17.1942C18.9031 17.1942 18.2928 16.4125 18.4945 15.6056L19.1975 12.7939L19.19 12.7929C18.7783 12.7325 18.3721 12.9333 18.1702 13.2972L16.5799 16.1634C16.3341 16.6064 16.2112 16.8278 16.0719 17.0388C16.011 17.131 15.9478 17.2216 15.8823 17.3106C15.7325 17.5142 15.5663 17.707 15.2338 18.0927C14.3997 19.0603 13.9827 19.544 13.4561 19.6631C13.2581 19.7079 13.0535 19.7154 12.8527 19.6854C12.3188 19.6056 11.8696 19.1564 10.9713 18.2581L9.90925 17.196L6.89519 20.8128C6.42473 21.3773 6.1895 21.6596 5.87944 21.7049C5.82555 21.7127 5.77102 21.7152 5.71664 21.7122C5.40375 21.6952 5.14394 21.4354 4.6243 20.9158L4.55184 20.8433C4.0322 20.3237 3.77238 20.0638 3.75536 19.7509C3.7524 19.6966 3.75487 19.642 3.76274 19.5881C3.80803 19.2781 4.0903 19.0429 4.65485 18.5724L8.27165 15.5584L7.34041 14.6272C6.31676 13.6035 5.80493 13.0917 5.76671 12.4731C5.76006 12.3655 5.76405 12.2575 5.77863 12.1506C5.86245 11.5365 6.41069 11.0639 7.50717 10.1187L13.3603 5.07288ZM15.5728 5.22075L14.5662 6.14205C14.5662 6.14205 15.2115 6.13912 15.795 6.75517C16.0259 6.9989 16.2461 7.51786 16.4178 7.92242C16.4782 8.06493 16.5327 8.19324 16.5795 8.29033C16.7228 8.5878 16.8839 8.94931 17.0363 9.30247C17.4232 10.1986 18.2143 10.8626 19.1712 11.0552L20.0921 9.82713C20.0921 9.82713 20.4464 9.19492 20.4009 8.5972C20.355 7.99598 19.9046 7.52415 19.9046 7.52415L18.7962 6.44925L17.6878 5.37436C17.6878 5.37436 17.1819 4.83073 16.5795 4.85701C16.0471 4.88023 15.5728 5.22075 15.5728 5.22075Z" fill="#47B35A"/>
</svg>
