<svg width="16" height="16" viewBox="0 0 16 16" fill="none" xmlns="http://www.w3.org/2000/svg">
<path fill-rule="evenodd" clip-rule="evenodd" d="M2.60169 9.60213C2.33467 9.33512 2.20117 9.20161 2.17813 9.03536C2.17409 9.00618 2.17263 8.9767 2.17378 8.94726C2.18032 8.77954 2.30002 8.63353 2.53943 8.3415L2.62792 8.23356C2.9049 7.8957 3.04339 7.72677 3.22843 7.69575C3.26065 7.69035 3.29331 7.68812 3.32596 7.68909C3.5135 7.69466 3.67368 7.84319 3.99402 8.14025L5.99957 10L11.8938 3.36237C12.1727 3.04829 12.3121 2.89125 12.4924 2.86479C12.5239 2.86017 12.5557 2.85857 12.5875 2.85999C12.7695 2.86817 12.924 3.01038 13.2331 3.29479L13.3582 3.40987C13.6421 3.67107 13.784 3.80167 13.8127 3.96992C13.8178 3.99941 13.8202 4.02931 13.8198 4.05923C13.8181 4.2299 13.6986 4.38129 13.4595 4.68406L7.80969 11.8407C7.24003 12.5623 6.9552 12.9231 6.57076 12.9851C6.50404 12.9958 6.43641 12.9998 6.3689 12.9969C5.97985 12.9803 5.65481 12.6553 5.00473 12.0052L2.60169 9.60213Z" fill="white"/>
</svg>
