<svg width="24" height="24" viewBox="0 0 24 24" fill="none" xmlns="http://www.w3.org/2000/svg">
<path fill-rule="evenodd" clip-rule="evenodd" d="M19.3047 4.2563C18.9265 3.57498 16.4822 3.21826 15.3639 3.05506L15.3639 3.05506C15.2188 3.03388 15.096 3.01596 15.0029 3.00102C14.9895 2.9987 14.9757 3.00037 14.9633 3.00579C14.951 3.01122 14.9408 3.02012 14.9343 3.03123C14.7386 3.36137 14.561 3.70047 14.4021 4.04725C12.8109 3.82269 11.1924 3.82269 9.60117 4.04725C9.44123 3.69959 9.26077 3.3604 9.06063 3.03123C9.05376 3.02036 9.04354 3.01167 9.03128 3.00628C9.01902 3.00089 9.00531 2.99905 8.99191 3.00102C8.88247 3.01856 8.7427 3.03872 8.58074 3.06208C7.42868 3.22826 5.15409 3.55636 4.68918 4.25553C1.96671 8.03532 1.22092 12.7847 1.58678 16.4259C1.76031 17.9305 5.63858 19.6487 6.85787 19.9973C6.87115 20.001 6.88533 20.0009 6.8985 19.9969C6.91167 19.9928 6.9232 19.9852 6.93155 19.9749C7.35981 19.4331 7.97666 17.9499 8.01142 17.2657C8.01186 17.2569 8.01031 17.2482 8.00687 17.2401C8.00343 17.232 7.99818 17.2246 7.99147 17.2186C7.98475 17.2125 7.97672 17.2078 7.96791 17.2048C7.40211 17.0035 6.85434 16.7609 6.32976 16.4792C6.32023 16.474 6.31223 16.4666 6.30646 16.4579C6.30069 16.4491 6.29733 16.4392 6.29668 16.4289C6.29602 16.4186 6.2981 16.4084 6.30271 16.3991C6.30733 16.3897 6.31435 16.3816 6.32315 16.3754C6.43323 16.2987 6.54337 16.2189 6.64848 16.1384C6.65781 16.1312 6.66911 16.1267 6.6811 16.1252C6.69309 16.1237 6.70529 16.1253 6.71633 16.1299C10.1531 17.5881 13.8739 17.5881 17.2699 16.1299C17.281 16.125 17.2933 16.1231 17.3055 16.1245C17.3177 16.1259 17.3292 16.1304 17.3387 16.1376C17.4438 16.2182 17.5539 16.2987 17.6648 16.3754C17.6736 16.3815 17.6807 16.3896 17.6854 16.3989C17.6901 16.4082 17.6923 16.4184 17.6917 16.4287C17.6911 16.439 17.6878 16.4489 17.6821 16.4577C17.6764 16.4665 17.6685 16.4739 17.659 16.4792C17.1356 16.7632 16.5874 17.0057 16.0201 17.204C16.0113 17.2071 16.0033 17.2119 15.9966 17.2181C15.9899 17.2243 15.9847 17.2317 15.9814 17.2399C15.978 17.2481 15.9765 17.2568 15.977 17.2656C16.0177 17.9533 16.6305 19.4249 17.0563 19.974C17.0644 19.9846 17.0759 19.9925 17.0891 19.9967C17.1023 20.0008 17.1166 20.001 17.13 19.9972C18.3252 19.6572 22.2659 17.9148 22.4095 16.4266C22.8475 12.217 21.6762 7.49789 19.3047 4.2563ZM10.5 11.5C10.5 12.8807 9.60457 14 8.5 14C7.39543 14 6.5 12.8807 6.5 11.5C6.5 10.1193 7.39543 9 8.5 9C9.60457 9 10.5 10.1193 10.5 11.5ZM15.5 14C16.6046 14 17.5 12.8807 17.5 11.5C17.5 10.1193 16.6046 9 15.5 9C14.3954 9 13.5 10.1193 13.5 11.5C13.5 12.8807 14.3954 14 15.5 14Z" fill="#262626"/>
</svg>
