<svg width="40" height="40" viewBox="0 0 40 40" fill="none" xmlns="http://www.w3.org/2000/svg">
<path d="M9.4367 15.5972C9.28099 14.1958 9.18222 13.2825 9.19069 12.598C9.19875 11.9457 9.30708 11.7299 9.38903 11.6173C9.44845 11.5356 9.51596 11.4602 9.59054 11.3921C9.6934 11.2982 9.89599 11.1667 10.5434 11.0867C11.2227 11.0027 12.1414 11 13.5514 11H26.4486C27.8586 11 28.7773 11.0027 29.4566 11.0867C30.104 11.1667 30.3066 11.2982 30.4095 11.3921C30.484 11.4602 30.5515 11.5356 30.611 11.6173C30.6929 11.7299 30.8013 11.9457 30.8093 12.598C30.8178 13.2825 30.719 14.1958 30.5633 15.5972L29.3359 26.644C29.1034 28.7367 28.9399 30.1904 28.6968 31.3011C28.4602 32.3827 28.1782 32.9808 27.8039 33.4198C27.5414 33.7277 27.2385 33.9987 26.9036 34.2256C26.4259 34.5492 25.8003 34.7634 24.6992 34.8792C23.5685 34.9981 22.1056 35 20 35C17.8944 35 16.4315 34.9981 15.3008 34.8792C14.1997 34.7634 13.5741 34.5492 13.0964 34.2256C12.7615 33.9987 12.4586 33.7277 12.1961 33.4198C11.8218 32.9808 11.5398 32.3827 11.3032 31.3011C11.0601 30.1904 10.8966 28.7367 10.6641 26.644L9.4367 15.5972Z" stroke="#3C8AF3" stroke-width="3"/>
<path d="M10 12H30L28 34H12L10 12Z" fill="#3C8AF3"/>
<path d="M11 25C19 25 21.5 22 29 22L27.4178 31.4932C27.1767 32.9398 25.9251 34 24.4586 34H15.4065C14.0004 34 12.783 33.0234 12.478 31.6508L11 25Z" fill="white"/>
<path fill-rule="evenodd" clip-rule="evenodd" d="M30.1064 3.54172L34.0566 4.67036C34.6528 4.84069 34.9509 4.92586 35.1036 5.1485C35.1303 5.18739 35.1533 5.22871 35.1722 5.2719C35.2805 5.51923 35.1953 5.81731 35.025 6.41347L34.9756 6.58654C34.8052 7.1827 34.7201 7.48077 34.4974 7.63354C34.4585 7.66022 34.4172 7.68317 34.374 7.70209C34.1267 7.81043 33.8286 7.72526 33.2325 7.55493L29.3637 6.44956C28.1659 6.10735 27.3929 5.889 26.7968 5.79201C26.2341 5.70045 26.0199 5.75312 25.8971 5.80514C25.8118 5.84129 25.73 5.88526 25.6528 5.9365C25.5417 6.01023 25.3796 6.15986 25.1457 6.67973C24.8978 7.23047 24.6536 7.99574 24.2785 9.18359L17.4336 30.1719C17.243 30.7564 17.1477 31.0486 16.9216 31.193C16.8821 31.2183 16.8403 31.2398 16.7968 31.2572C16.5478 31.357 16.2547 31.2644 15.6685 31.0793L15.497 31.0251C14.9007 30.8368 14.6025 30.7427 14.4559 30.5138C14.4304 30.4739 14.4086 30.4316 14.391 30.3875C14.2902 30.1352 14.3872 29.8379 14.581 29.2434L21.4177 8.28019C21.4263 8.25318 21.4348 8.22625 21.4432 8.19942C21.7855 7.11535 22.0811 6.17933 22.4099 5.44857C22.7608 4.66887 23.2222 3.94899 23.9939 3.43685C24.2256 3.28315 24.4709 3.15123 24.7269 3.0428C25.5797 2.68151 26.4347 2.69363 27.2786 2.83095C28.0695 2.95965 29.0133 3.22935 30.1064 3.54172Z" fill="#FC7059"/>
</svg>
