<svg width="24" height="24" viewBox="0 0 24 24" fill="none" xmlns="http://www.w3.org/2000/svg">
<path d="M4.60896 19.0952C4.63695 19.1377 4.67463 19.1754 4.75 19.2507C4.82537 19.3261 4.86305 19.3638 4.90553 19.3918C4.97607 19.4383 5.05724 19.4661 5.14147 19.4727C5.19217 19.4767 5.24505 19.4701 5.35079 19.4569L7.02062 19.2482C7.93737 19.1336 8.39577 19.0763 8.80794 18.8905C8.88233 18.8569 8.95532 18.8204 9.02673 18.7809C9.19249 18.6892 9.23942 18.4796 9.15471 18.3102L7.4929 14.9865C7.37386 14.7485 7.65987 14.514 7.86999 14.6774L10.2255 16.5095C10.5231 16.7409 10.6719 16.8567 10.8395 16.859C10.8689 16.8594 10.8983 16.8573 10.9274 16.8525C11.0928 16.8254 11.2229 16.689 11.483 16.4161L18.2833 9.28344C18.6142 8.93987 18.7796 8.76806 18.8883 8.59632C19.3086 7.93184 19.3005 7.08276 18.8678 6.42633C18.7559 6.25666 18.5873 6.08802 18.25 5.75075C17.9127 5.41347 17.7441 5.24482 17.5744 5.13296C16.918 4.70019 16.0689 4.69219 15.4044 5.11249C15.2327 5.22113 15.0609 5.38656 14.7173 5.71741L6.43689 13.6171C5.77138 14.2579 5.43863 14.5784 5.21985 14.974C5.18037 15.0454 5.14381 15.1184 5.11028 15.1928C4.92447 15.605 4.86717 16.0634 4.75258 16.9801L4.54385 18.6499C4.53063 18.7557 4.52402 18.8086 4.52801 18.8593C4.53463 18.9435 4.56248 19.0247 4.60896 19.0952Z" fill="#262626"/>
</svg>
