<svg width="16" height="16" viewBox="0 0 16 16" fill="none" xmlns="http://www.w3.org/2000/svg">
<path d="M1.07835 14.6386C1.10506 14.6792 1.14102 14.7151 1.21294 14.7871C1.28486 14.859 1.32082 14.8949 1.36135 14.9216C1.42867 14.966 1.50613 14.9926 1.5865 14.9989C1.63488 15.0027 1.68534 14.9964 1.78625 14.9838L3.37968 14.7846C4.25449 14.6752 4.69192 14.6206 5.08524 14.4433C5.15622 14.4113 5.22588 14.3764 5.29402 14.3387C5.4522 14.2512 5.49698 14.0512 5.41614 13.8895L3.83036 10.7179C3.71676 10.4907 3.9897 10.267 4.1902 10.4229L6.4086 12.1484C6.7056 12.3794 6.8541 12.4949 7.02138 12.4972C7.05074 12.4976 7.08009 12.4955 7.10907 12.4907C7.27416 12.4637 7.40398 12.3275 7.66361 12.0552L14.1272 5.27573C14.4429 4.94787 14.6007 4.78393 14.7044 4.62004C15.1055 3.98596 15.0978 3.17572 14.6849 2.54932C14.5781 2.38742 14.4172 2.22649 14.0954 1.90465C13.7735 1.5828 13.6126 1.42186 13.4507 1.31512C12.8243 0.902151 12.014 0.894508 11.38 1.29558C11.2161 1.39925 11.0521 1.55711 10.7243 1.87284L2.82266 9.41111C2.1876 10.0227 1.87007 10.3284 1.6613 10.706C1.62362 10.7741 1.58873 10.8438 1.55673 10.9148C1.37943 11.3081 1.32475 11.7455 1.2154 12.6203L1.01622 14.2137C1.0036 14.3146 0.997297 14.3651 1.0011 14.4135C1.00741 14.4939 1.03399 14.5713 1.07835 14.6386Z" fill="#262626" fill-opacity="0.2"/>
</svg>
