<svg width="16" height="16" viewBox="0 0 16 16" fill="none" xmlns="http://www.w3.org/2000/svg">
<g clip-path="url(#clip0_26653_334)">
<circle cx="8" cy="8" r="8" fill="white"/>
<path d="M7.15492 9.39666C7.28959 9.5 7.48112 9.5 7.86419 9.5H8.13434C8.51741 9.5 8.70895 9.5 8.84361 9.39666C8.86723 9.37853 8.88918 9.35833 8.9092 9.3363C9.02338 9.21068 9.03928 9.01981 9.07109 8.63806L9.3747 4.99482C9.40635 4.61499 9.42218 4.42508 9.38584 4.27078C9.30576 3.9307 9.05398 3.65707 8.72172 3.54902C8.57098 3.5 8.38041 3.5 7.99927 3.5C7.61812 3.5 7.42755 3.5 7.27681 3.54902C6.94455 3.65707 6.69277 3.9307 6.61269 4.27078C6.57636 4.42508 6.59218 4.61499 6.62383 4.99482L6.92744 8.63806C6.95925 9.01981 6.97516 9.21068 7.08933 9.3363C7.10935 9.35833 7.1313 9.37853 7.15492 9.39666Z" fill="#ED6142"/>
<path d="M7.99927 12.5C8.55155 12.5 8.99927 12.0523 8.99927 11.5C8.99927 10.9477 8.55155 10.5 7.99927 10.5C7.44698 10.5 6.99927 10.9477 6.99927 11.5C6.99927 12.0523 7.44698 12.5 7.99927 12.5Z" fill="#ED6142"/>
</g>
<defs>
<clipPath id="clip0_26653_334">
<rect width="16" height="16" fill="white"/>
</clipPath>
</defs>
</svg>
