<svg width="24" height="24" viewBox="0 0 24 24" fill="none" xmlns="http://www.w3.org/2000/svg">
<path d="M20.5227 10.1354C20.2807 10.3884 20.1597 10.5149 20.0894 10.6693C20.0767 10.6972 20.0654 10.7254 20.0553 10.7543C19.9995 10.9145 19.9996 11.0904 19.9999 11.4422C20 11.6222 20 11.808 20 12C20 13.906 19.9981 15.2018 19.9077 16.1993C19.8198 17.1692 19.661 17.659 19.4641 18C19.113 18.6081 18.6081 19.113 18 19.4641C17.659 19.661 17.1692 19.8198 16.1993 19.9077C15.2018 19.9981 13.906 20 12 20C10.094 20 8.79815 19.9981 7.80072 19.9077C6.83078 19.8198 6.34102 19.661 6 19.4641C5.39192 19.113 4.88697 18.6081 4.5359 18C4.33901 17.659 4.18023 17.1692 4.09232 16.1993C4.00192 15.2018 4 13.906 4 12C4 10.094 4.00192 8.79815 4.09232 7.80072C4.18023 6.83078 4.33901 6.34102 4.5359 6C4.88697 5.39192 5.39192 4.88697 6 4.5359C6.34102 4.33901 6.83078 4.18023 7.80072 4.09232C8.79815 4.00192 10.094 4 12 4C12.192 4 12.3778 4.00002 12.5578 4.00015C12.9096 4.0004 13.0855 4.00052 13.2457 3.94468C13.2746 3.93458 13.3028 3.9233 13.3307 3.91058C13.4851 3.84031 13.6116 3.71931 13.8646 3.47731L14.5706 2.802C14.8871 2.49931 15.0453 2.34796 15.0123 2.20862C15.0069 2.18583 14.998 2.16319 14.9864 2.14282C14.9157 2.0183 14.6985 2.01529 14.2642 2.00928C13.5942 2 12.8449 2 12 2C8.26154 2 6.3923 2 5 2.80385C4.08788 3.33046 3.33046 4.08788 2.80385 5C2 6.3923 2 8.26154 2 12C2 15.7385 2 17.6077 2.80385 19C3.33046 19.9121 4.08788 20.6695 5 21.1962C6.3923 22 8.26154 22 12 22C15.7385 22 17.6077 22 19 21.1962C19.9121 20.6695 20.6695 19.9121 21.1962 19C22 17.6077 22 15.7385 22 12C22 11.1551 22 10.4058 21.9907 9.73576C21.9847 9.30147 21.9817 9.08433 21.8572 9.0136C21.8368 9.00203 21.8142 8.99313 21.7914 8.98773C21.652 8.95469 21.5007 9.11291 21.198 9.42936L20.5227 10.1354Z" fill="#262626"/>
<path d="M20.2901 3.80535C20.2586 3.77318 20.2268 3.74137 20.1947 3.70991C20.1914 3.74603 20.1872 3.78207 20.182 3.81801C20.2179 3.81281 20.254 3.80858 20.2901 3.80535Z" fill="#262626"/>
<path d="M6.60945 17.0945C6.63744 17.137 6.67512 17.1746 6.75049 17.25C6.82586 17.3254 6.86354 17.3631 6.90602 17.391C6.97656 17.4375 7.05773 17.4654 7.14196 17.472C7.19266 17.476 7.24554 17.4694 7.35128 17.4562L9.02111 17.2474C9.93786 17.1328 10.3963 17.0755 10.8084 16.8897C10.8828 16.8562 10.9558 16.8196 11.0272 16.7802C11.193 16.6885 11.2399 16.4788 11.1552 16.3094L9.49339 12.9858C9.37435 12.7477 9.66036 12.5132 9.87048 12.6767L12.2294 14.5114C12.5256 14.7418 12.6737 14.8569 12.8407 14.8597C12.87 14.8601 12.8993 14.858 12.9283 14.8534C13.0932 14.8269 13.2233 14.6917 13.4836 14.4214L22.2838 5.28271C22.6147 4.93914 22.7801 4.76733 22.8887 4.59558C23.309 3.93111 23.301 3.08202 22.8683 2.4256C22.7564 2.25593 22.5878 2.08729 22.2505 1.75002C21.9132 1.41274 21.7446 1.24409 21.5749 1.13223C20.9185 0.699462 20.0694 0.691453 19.4049 1.11176C19.2332 1.2204 19.0614 1.38582 18.7178 1.71668L8.43738 11.6163C7.77187 12.2572 7.43912 12.5776 7.22034 12.9733C7.18086 13.0447 7.1443 13.1177 7.11076 13.1921C6.92496 13.6042 6.86766 14.0626 6.75307 14.9794L6.54434 16.6492C6.53112 16.7549 6.52451 16.8078 6.5285 16.8585C6.53511 16.9428 6.56296 17.0239 6.60945 17.0945Z" fill="#262626"/>
</svg>
