<svg width="4" height="10" viewBox="0 0 4 10" fill="none" xmlns="http://www.w3.org/2000/svg">
<path d="M1.15566 6.39666C1.29032 6.5 1.48185 6.5 1.86492 6.5H2.13507C2.51814 6.5 2.70968 6.5 2.84434 6.39666C2.86796 6.37853 2.88991 6.35833 2.90994 6.3363C3.02411 6.21068 3.04001 6.01981 3.07183 5.63806L3.37543 1.99482C3.40708 1.61499 3.42291 1.42508 3.38657 1.27078C3.30649 0.9307 3.05472 0.657073 2.72246 0.549022C2.57171 0.5 2.38114 0.5 2 0.5C1.61885 0.5 1.42828 0.5 1.27754 0.549022C0.94528 0.657073 0.693507 0.9307 0.613422 1.27078C0.577088 1.42508 0.592914 1.61499 0.624566 1.99482L0.92817 5.63806C0.959982 6.01981 0.975888 6.21068 1.09006 6.3363C1.11008 6.35833 1.13204 6.37853 1.15566 6.39666Z" fill="white"/>
<path d="M2 9.5C2.55228 9.5 3 9.05228 3 8.5C3 7.94772 2.55228 7.5 2 7.5C1.44771 7.5 0.999998 7.94772 0.999998 8.5C0.999998 9.05228 1.44771 9.5 2 9.5Z" fill="white"/>
</svg>
