<svg width="81" height="44" viewBox="0 0 81 44" fill="none" xmlns="http://www.w3.org/2000/svg">
<path d="M15.3316 21.9782L24.0668 11.995C24.3147 11.7118 24.7341 11.6561 25.0473 11.8649L25.6426 12.2617C25.8482 12.3988 25.9228 12.6654 25.8184 12.8892L22.5 20L28.8388 20.3729C29.6902 20.423 30.0921 21.4473 29.5021 22.0631L19.9347 32.0464C19.6832 32.3088 19.2797 32.3531 18.9772 32.1515L18.3574 31.7383C18.1518 31.6012 18.0772 31.3346 18.1816 31.1108L21.5 24L16.0176 23.6345C15.1914 23.5794 14.7863 22.6014 15.3316 21.9782Z" fill="white"/>
<path d="M40.633 27H39.0023L42.6664 16.8182H44.4412L48.1053 27H46.4746L43.5961 18.6676H43.5165L40.633 27ZM40.9064 23.0128H46.1962V24.3054H40.9064V23.0128ZM54.2937 23.8331V19.3636H55.7852V27H54.3235V25.6776H54.244C54.0683 26.0852 53.7866 26.425 53.3988 26.6967C53.0143 26.9652 52.5354 27.0994 51.962 27.0994C51.4715 27.0994 51.0373 26.9917 50.6594 26.7763C50.2849 26.5575 49.9899 26.2344 49.7745 25.8068C49.5624 25.3793 49.4563 24.8506 49.4563 24.2209V19.3636H50.9428V24.0419C50.9428 24.5623 51.087 24.9766 51.3754 25.2848C51.6637 25.593 52.0382 25.7472 52.4989 25.7472C52.7773 25.7472 53.0541 25.6776 53.3292 25.5384C53.6076 25.3991 53.8379 25.1887 54.0202 24.907C54.2058 24.6252 54.297 24.2673 54.2937 23.8331ZM61.3471 19.3636V20.5568H57.176V19.3636H61.3471ZM58.2946 17.5341H59.7811V24.7578C59.7811 25.0462 59.8242 25.2633 59.9103 25.4091C59.9965 25.5516 60.1075 25.6494 60.2434 25.7024C60.3826 25.7521 60.5334 25.777 60.6958 25.777C60.8152 25.777 60.9196 25.7687 61.0091 25.7521C61.0985 25.7356 61.1681 25.7223 61.2179 25.7124L61.4863 26.9403C61.4002 26.9735 61.2775 27.0066 61.1184 27.0398C60.9593 27.0762 60.7605 27.0961 60.5218 27.0994C60.1307 27.1061 59.7662 27.0365 59.4281 26.8906C59.09 26.7448 58.8166 26.5194 58.6078 26.2145C58.399 25.9096 58.2946 25.5268 58.2946 25.0661V17.5341ZM66.1261 27.1541C65.4102 27.1541 64.7854 26.9901 64.2518 26.6619C63.7182 26.3338 63.3039 25.8748 63.0089 25.2848C62.7139 24.6948 62.5664 24.0054 62.5664 23.2166C62.5664 22.4245 62.7139 21.7318 63.0089 21.1385C63.3039 20.5452 63.7182 20.0845 64.2518 19.7564C64.7854 19.4283 65.4102 19.2642 66.1261 19.2642C66.842 19.2642 67.4667 19.4283 68.0004 19.7564C68.534 20.0845 68.9483 20.5452 69.2433 21.1385C69.5382 21.7318 69.6857 22.4245 69.6857 23.2166C69.6857 24.0054 69.5382 24.6948 69.2433 25.2848C68.9483 25.8748 68.534 26.3338 68.0004 26.6619C67.4667 26.9901 66.842 27.1541 66.1261 27.1541ZM66.131 25.9062C66.5951 25.9062 66.9795 25.7836 67.2844 25.5384C67.5894 25.2931 67.8147 24.9666 67.9606 24.5589C68.1097 24.1513 68.1843 23.7022 68.1843 23.2116C68.1843 22.7244 68.1097 22.277 67.9606 21.8693C67.8147 21.4583 67.5894 21.1286 67.2844 20.88C66.9795 20.6314 66.5951 20.5071 66.131 20.5071C65.6637 20.5071 65.2759 20.6314 64.9677 20.88C64.6628 21.1286 64.4357 21.4583 64.2866 21.8693C64.1407 22.277 64.0678 22.7244 64.0678 23.2116C64.0678 23.7022 64.1407 24.1513 64.2866 24.5589C64.4357 24.9666 64.6628 25.2931 64.9677 25.5384C65.2759 25.7836 65.6637 25.9062 66.131 25.9062Z" fill="white"/>
</svg>
