<svg width="200" height="200" viewBox="0 0 200 200" fill="none" xmlns="http://www.w3.org/2000/svg">
<path d="M111.586 152.832C110.949 151.667 110.923 150.257 111.576 149.101C119.675 134.766 133.171 125.31 133.171 99.603C133.171 58.3263 112.836 22.1943 79.5405 2.32053C79.2112 2.12395 78.7972 2.13517 78.4781 2.34792L78.0083 2.66111C76.7732 3.48455 76.0956 4.92431 76.2484 6.40091L87.9597 119.61C87.9856 119.861 87.9161 120.112 87.765 120.313L85.6097 123.187C85.3607 123.519 84.839 123.421 84.7279 123.021L82.8927 116.417C81.9875 113.16 80.0741 110.273 77.4268 108.171L42.4675 80.4105C42.0345 80.0666 41.404 80.139 41.0669 80.5773C31.6124 92.8662 26 108.202 26 124.833C26 165.242 59.1309 198 100 198C140.869 198 174 165.242 174 124.833C174 118.471 173.179 112.299 171.635 106.414C171.566 106.149 171.39 105.926 171.15 105.795L170.259 105.309C168.811 104.52 167.028 104.7 165.767 105.762L121.654 142.922C119.231 144.963 117.125 147.352 115.404 150.011L113.411 153.092C113 153.728 112.058 153.693 111.694 153.029L111.586 152.832Z" fill="#FFC34D"/>
<path d="M126.492 171.496C126.769 171.5 127.001 171.728 126.992 172.004C126.63 184.001 113.315 190 100 190C86.6852 190 73.3704 184.001 73.0076 172.004C72.9992 171.728 73.2314 171.5 73.5075 171.496C86.6482 171.294 93.9992 163.258 97.4683 157.846C98.4751 156.275 101.525 156.275 102.532 157.846C106.001 163.258 113.352 171.294 126.492 171.496Z" fill="#EDEDF2"/>
<path d="M50.4352 68.4319C50.1906 68.1721 50.163 67.7758 50.3693 67.4845L57.8879 56.8646C58.1868 56.4424 58.8132 56.4424 59.1121 56.8646L66.6308 67.4845C66.8371 67.7758 66.8095 68.1721 66.5648 68.4319L59.0461 76.4198C58.75 76.7344 58.25 76.7344 57.9539 76.4198L50.4352 68.4319Z" fill="#FFC34D"/>
<path d="M154.414 84.4141C154.171 84.1707 154.124 83.793 154.301 83.4979L159.357 75.0719C159.648 74.5864 160.352 74.5864 160.643 75.0719L165.699 83.4979C165.876 83.793 165.829 84.1707 165.586 84.4141L160.53 89.4697C160.237 89.7626 159.763 89.7626 159.47 89.4697L154.414 84.4141Z" fill="#FFC34D"/>
<path d="M57.4591 35.4623C57.1942 35.1974 57.1654 34.7777 57.3916 34.4791L59.4234 31.7969C59.7252 31.3985 60.325 31.4012 60.6232 31.8024L62.6134 34.4799C62.8354 34.7786 62.8048 35.1949 62.5415 35.458L60.5267 37.4703C60.2337 37.7629 59.7591 37.7627 59.4663 37.4699L57.4591 35.4623Z" fill="#FFC34D"/>
<path d="M121.459 12.4623C121.194 12.1974 121.165 11.7777 121.392 11.4791L123.423 8.79691C123.725 8.39848 124.325 8.4012 124.623 8.80236L126.613 11.4799C126.835 11.7786 126.805 12.1949 126.541 12.458L124.527 14.4703C124.234 14.7629 123.759 14.7627 123.466 14.4699L121.459 12.4623Z" fill="#FFC34D"/>
</svg>
