<svg width="32" height="32" viewBox="0 0 32 32" fill="none" xmlns="http://www.w3.org/2000/svg">
<path d="M23.2565 16.4352L20.7865 18.4804C20.9264 17.7789 21 16.9716 21 16C21 10.5423 18.6599 5.46962 14.744 2.63308C13.8615 1.99382 12.6955 2.37285 12.251 3.26193C12.0811 3.60174 11.9987 3.97861 12.0114 4.35832L12.368 15.0558C12.3596 15.0484 12.3511 15.041 12.3427 15.0336L9.96197 12.9505C9.12437 12.2176 7.68532 12.2612 7.04432 13.4032C6.05073 15.1732 5.5 17.4642 5.5 19.5C5.5 25.5523 9.94772 30 16 30C22.0623 30 26.4976 25.4026 26.4976 19.5C26.4976 19.4933 26.4976 19.4861 26.4976 19.4786C26.4977 19.1401 26.4982 18.0259 26.223 17.1143C26.0072 16.4 25.4287 15.9892 24.7874 15.9293C24.2147 15.8758 23.6627 16.0989 23.2565 16.4352Z" fill="#F7C563" stroke="white" stroke-width="2"/>
<path d="M20.5543 24.5801C20.7994 24.594 21.0045 24.7985 20.9077 25.024C20.4345 26.126 18.2172 27 16 27C13.7828 27 11.5655 26.126 11.0923 25.024C10.9955 24.7985 11.2006 24.594 11.4457 24.5801C13.5881 24.4578 14.8378 23.4674 15.4698 22.7501C15.7159 22.4709 16.2841 22.4709 16.5302 22.7501C17.1622 23.4674 18.4119 24.4578 20.5543 24.5801Z" fill="#EF876E"/>
</svg>
