<svg width="24" height="24" viewBox="0 0 24 24" fill="none" xmlns="http://www.w3.org/2000/svg">
<path fill-rule="evenodd" clip-rule="evenodd" d="M12.7054 0.846509C12.3383 0.405982 11.6617 0.405981 11.2946 0.846508L10.9818 1.2219C8.72668 3.92801 8.90718 7.90719 11.398 10.398C11.7305 10.7305 12.2695 10.7305 12.602 10.398C15.0928 7.90719 15.2733 3.92801 13.0182 1.2219L12.7054 0.846509ZM19.4474 8.0702C15.7559 8.31629 12.8163 11.256 12.5702 14.9474C12.533 15.5046 12.9954 15.967 13.5526 15.9298C17.2441 15.6837 20.1837 12.7441 20.4298 9.05265C20.467 8.49539 20.0046 8.03304 19.4474 8.0702ZM11.4298 22.1974C11.1837 18.5059 8.24407 15.5663 4.55263 15.3202C3.99538 15.283 3.53303 15.7454 3.57018 16.3026C3.81627 19.9941 6.75594 22.9337 10.4474 23.1798C11.0046 23.217 11.467 22.7546 11.4298 22.1974ZM12.5702 22.1974C12.8163 18.5059 15.7559 15.5663 19.4474 15.3202C20.0046 15.283 20.467 15.7454 20.4298 16.3026C20.1837 19.9941 17.2441 22.9337 13.5526 23.1798C12.9954 23.217 12.533 22.7546 12.5702 22.1974ZM11.4298 14.9474C11.1837 11.256 8.24407 8.31629 4.55264 8.0702C3.99538 8.03304 3.53303 8.49539 3.57018 9.05265C3.81628 12.7441 6.75594 15.6837 10.4474 15.9298C11.0046 15.967 11.467 15.5046 11.4298 14.9474Z" fill="#FFC34D"/>
</svg>
