<svg width="24" height="24" viewBox="0 0 24 24" fill="none" xmlns="http://www.w3.org/2000/svg">
<path fill-rule="evenodd" clip-rule="evenodd" d="M12.0077 23C14.3136 23.001 15.285 19.8074 15.6093 18.3423C15.6855 17.9981 16.0648 17.8401 16.2749 18.1231C16.7968 18.8263 17.1748 20.0194 17.1536 21.0713C17.1464 21.428 17.5422 21.7394 17.8409 21.5445C19.7211 20.3173 21 18.3259 21 15.6675C21 12.7927 19.5594 10.7396 18.09 8.64542C16.6818 6.63838 15.247 4.5936 15.0286 1.75157C15.0012 1.39539 14.6366 1.15491 14.3232 1.32636C11.42 2.91467 9.41304 6.5065 10.2457 9.56832C10.3403 9.9164 10.0876 10.2796 9.7537 10.1431C8.61734 9.67854 7.94438 8.19483 7.87801 6.95183C7.85824 6.5816 7.404 6.26671 7.11143 6.49445C4.94024 8.18457 3 11.3021 3 15.1786C3 19.5104 6 23 12.0077 23Z" fill="#EF876E"/>
</svg>
