<svg width="40" height="40" viewBox="0 0 40 40" fill="none" xmlns="http://www.w3.org/2000/svg">
<path fill-rule="evenodd" clip-rule="evenodd" d="M16.6391 4.96559L5 17.5C3.34315 17.5 2 18.8431 2 20.5C2 22.1569 3.34315 23.5 5 23.5H5.03573C5.53636 30.5133 11.1726 36.0825 18.215 36.478C18.6072 36.5 19.0715 36.5 20 36.5C20.9285 36.5 21.3928 36.5 21.785 36.478C28.8274 36.0825 34.4636 30.5133 34.9643 23.5H35C36.6569 23.5 38 22.1569 38 20.5C38 18.8431 36.6569 17.5 35 17.5L23.3609 4.96559C22.4931 4.03102 21.2753 3.5 20 3.5C18.7247 3.5 17.5069 4.03102 16.6391 4.96559Z" fill="#FCDBE4"/>
<path d="M5.16152 16.3693C5.73931 12.3248 6.02821 10.3025 6.88921 8.72027C8.04231 6.6012 9.92262 4.97041 12.1835 4.12858C13.8716 3.5 15.9144 3.5 20 3.5C24.0856 3.5 26.1284 3.5 27.8165 4.12858C30.0774 4.97041 31.9577 6.6012 33.1108 8.72027C33.9718 10.3025 34.2607 12.3248 34.8385 16.3693L35 17.5C33.1614 17.5 31.4806 16.4612 30.6584 14.8167L29.7026 12.9051C29.3295 12.159 28.3869 11.9087 27.6929 12.3714C23.0344 15.477 16.9656 15.477 12.3071 12.3714C11.6131 11.9087 10.6705 12.159 10.2974 12.9051L9.34164 14.8167C8.51939 16.4612 6.8386 17.5 5 17.5L5.16152 16.3693Z" fill="#BBBCBF"/>
<path fill-rule="evenodd" clip-rule="evenodd" d="M15.5 18.5C14.8871 18.5 14.3269 18.8463 14.0528 19.3944L14.0189 19.4621C13.6923 20.1155 13.6923 20.8845 14.0189 21.5379L14.0528 21.6056C14.3269 22.1537 14.8871 22.5 15.5 22.5C16.1129 22.5 16.6731 22.1537 16.9472 21.6056L16.9811 21.5379C17.3077 20.8845 17.3077 20.1155 16.9811 19.4621L16.9472 19.3944C16.6731 18.8463 16.1129 18.5 15.5 18.5ZM24.5 18.5C23.8871 18.5 23.3269 18.8463 23.0528 19.3944L23.0189 19.4621C22.6923 20.1155 22.6923 20.8845 23.0189 21.5379L23.0528 21.6056C23.3269 22.1537 23.8871 22.5 24.5 22.5C25.1129 22.5 25.6731 22.1537 25.9472 21.6056L25.9811 21.5379C26.3078 20.8845 26.3078 20.1155 25.9811 19.4621L25.9472 19.3944C25.6731 18.8463 25.1129 18.5 24.5 18.5Z" fill="#3C8AF3"/>
<path d="M13.915 27.4368C13.7014 26.44 14.4613 25.5 15.4808 25.5H24.5192C25.5387 25.5 26.2986 26.44 26.085 27.4368L26.0476 27.611C25.4366 30.4627 22.9164 32.5 20 32.5C17.0836 32.5 14.5634 30.4627 13.9524 27.611L13.915 27.4368Z" fill="#FC7059"/>
</svg>
