<svg width="44" height="44" viewBox="0 0 44 44" fill="none" xmlns="http://www.w3.org/2000/svg">
<path fill-rule="evenodd" clip-rule="evenodd" d="M30.5001 30.4999C30.6364 30.3636 30.7045 30.2955 30.741 30.2219C30.8103 30.082 30.8103 29.9178 30.741 29.7779C30.7045 29.7044 30.6364 29.6362 30.5001 29.4999L22.2501 21.2499L14.5001 13.4999C14.3638 13.3636 14.2956 13.2955 14.2221 13.259C14.0822 13.1897 13.918 13.1897 13.7781 13.259C13.7045 13.2955 13.6364 13.3636 13.5001 13.4999C13.3638 13.6362 13.2956 13.7044 13.2592 13.7779C13.1899 13.9178 13.1899 14.082 13.2592 14.2219C13.2956 14.2955 13.3638 14.3636 13.5001 14.4999L21.2501 22.2499L29.5001 30.4999C29.6364 30.6362 29.7045 30.7044 29.7781 30.7408C29.918 30.8101 30.0822 30.8101 30.2221 30.7408C30.2956 30.7044 30.3638 30.6362 30.5001 30.4999Z" fill="white"/>
<path d="M24.0785 27.1997L19.435 32.0464C19.1835 32.3089 18.7795 32.3526 18.477 32.1509L17.8569 31.7378C17.6517 31.6008 17.5769 31.3345 17.6811 31.1109L20.9604 24.0816L24.0785 27.1997ZM28.3383 20.3726C29.1896 20.4227 29.5922 21.4473 29.0024 22.063L27.1342 24.0122L23.1909 20.0689L28.3383 20.3726ZM20.8696 23.9907L15.517 23.6343C14.6911 23.5789 14.2863 22.6011 14.8315 21.9781L16.7094 19.8306L20.8696 23.9907ZM23.5668 11.9947C23.8147 11.7116 24.2342 11.656 24.5473 11.8648L25.142 12.2613C25.3476 12.3983 25.4223 12.6653 25.3178 12.8892L22.3559 19.2339L19.6225 16.5005L23.5668 11.9947Z" fill="white"/>
</svg>
