<svg width="40" height="40" viewBox="0 0 40 40" fill="none" xmlns="http://www.w3.org/2000/svg">
<path d="M17.021 5.92878C18.517 3.95582 21.483 3.95582 22.979 5.92879L23.5003 6.61632C24.3166 7.69284 25.6502 8.24522 26.9886 8.0612L27.8434 7.94367C30.2963 7.60641 32.3936 9.7037 32.0563 12.1566L31.9388 13.0114C31.7548 14.3498 32.3072 15.6834 33.3837 16.4997L34.0712 17.021C36.0442 18.517 36.0442 21.483 34.0712 22.979L33.3837 23.5003C32.3072 24.3166 31.7548 25.6502 31.9388 26.9886L32.0563 27.8434C32.3936 30.2963 30.2963 32.3936 27.8434 32.0563L26.9886 31.9388C25.6502 31.7548 24.3166 32.3072 23.5003 33.3837L22.979 34.0712C21.483 36.0442 18.517 36.0442 17.021 34.0712L16.4997 33.3837C15.6834 32.3072 14.3498 31.7548 13.0114 31.9388L12.1566 32.0563C9.70369 32.3936 7.60641 30.2963 7.94367 27.8434L8.0612 26.9886C8.24522 25.6502 7.69284 24.3166 6.61632 23.5003L5.92878 22.979C3.95582 21.483 3.95582 18.517 5.92879 17.021L6.61632 16.4997C7.69284 15.6834 8.24522 14.3498 8.0612 13.0114L7.94367 12.1566C7.60641 9.7037 9.7037 7.60641 12.1566 7.94367L13.0114 8.0612C14.3498 8.24522 15.6834 7.69284 16.4997 6.61632L17.021 5.92878Z" fill="#FCC902"/>
<circle cx="20" cy="20" r="9.47427" fill="#FED900" stroke="#FCC902" stroke-width="1.05147"/>
<path d="M18.6252 26V18.134H16.9872V15.632C17.5032 15.632 17.9352 15.542 18.2832 15.362C18.6312 15.17 18.8652 14.756 18.9852 14.12H21.5412V26H18.6252Z" fill="#EF876E"/>
</svg>
