<svg width="24" height="24" viewBox="0 0 24 24" fill="none" xmlns="http://www.w3.org/2000/svg">
<path fill-rule="evenodd" clip-rule="evenodd" d="M23.2147 15.7011L23.2723 13.7411C23.3722 10.3463 23.4221 8.64885 22.5043 7.5014C22.3442 7.30131 22.1653 7.11706 21.97 6.95119C20.85 6 19.1519 6 15.7556 6H8.24445C4.84816 6 3.15001 6 2.03004 6.95119C1.83475 7.11706 1.65584 7.30131 1.49578 7.5014C0.57793 8.64885 0.627854 10.3463 0.727702 13.7411L0.785349 15.7011C0.879992 18.919 0.927314 20.5279 1.84445 21.6001C2.00488 21.7876 2.18231 21.9599 2.3745 22.1148C3.47318 23 5.08282 23 8.3021 23H15.6979C18.9172 23 20.5269 23 21.6255 22.1148C21.8177 21.9599 21.9952 21.7876 22.1556 21.6001C23.0727 20.5279 23.1201 18.919 23.2147 15.7011ZM8.00002 11.5C8.00002 12.3284 7.32845 13 6.50002 13C5.6716 13 5.00002 12.3284 5.00002 11.5C5.00002 10.6716 5.6716 10 6.50002 10C7.32845 10 8.00002 10.6716 8.00002 11.5ZM8.36754 15.2293C7.99269 15.2837 7.7068 15.6214 7.13502 16.2968L6.61988 16.9053C5.56695 18.1491 5.04048 18.771 5.2008 19.2934C5.22752 19.3804 5.26601 19.4634 5.31519 19.5401C5.61034 20 6.42514 20 8.05476 20H16.2041C17.7432 20 18.5128 20 18.8101 19.559C18.8599 19.4852 18.8995 19.4051 18.9281 19.3208C19.0987 18.817 18.6323 18.2049 17.6996 16.9806L16.1144 14.9002C15.4929 14.0844 15.1821 13.6765 14.7652 13.6245C14.6933 13.6155 14.6207 13.6144 14.5487 13.6211C14.1303 13.66 13.8069 14.058 13.1601 14.8538L11.1111 17.375L9.88875 16.1717C9.25809 15.5509 8.94276 15.2405 8.56452 15.2203C8.49873 15.2168 8.43275 15.2198 8.36754 15.2293Z" fill="white"/>
<path d="M3.61761 4.52955C3.84234 3.63062 4.65003 3 5.57663 3H18.4234C19.35 3 20.1577 3.63062 20.3824 4.52955C20.4421 4.76852 20.2614 5 20.0151 5H3.98493C3.73861 5 3.55787 4.76852 3.61761 4.52955Z" fill="white"/>
<path d="M5.6326 1.60219C5.85201 0.943972 6.46799 0.5 7.16181 0.5H16.8382C17.532 0.5 18.148 0.943972 18.3674 1.60219C18.4326 1.7979 18.287 2 18.0807 2H5.91933C5.71304 2 5.56737 1.7979 5.6326 1.60219Z" fill="white"/>
</svg>
