<svg width="24" height="24" viewBox="0 0 24 24" fill="none" xmlns="http://www.w3.org/2000/svg">
<path opacity="0.4" d="M15.01 8.24276C15.1479 7.40529 16.3521 7.40529 16.49 8.24276L17.3596 13.5222C17.4119 13.8395 17.6605 14.0881 17.9778 14.1404L23.2572 15.01C24.0947 15.1479 24.0947 16.3521 23.2572 16.49L17.9778 17.3596C17.6605 17.4119 17.4119 17.6605 17.3596 17.9778L16.49 23.2572C16.3521 24.0947 15.1479 24.0947 15.01 23.2572L14.1404 17.9778C14.0881 17.6605 13.8395 17.4119 13.5222 17.3596L8.24276 16.49C7.40529 16.3521 7.40529 15.1479 8.24276 15.01L13.5222 14.1404C13.8395 14.0881 14.0881 13.8395 14.1404 13.5222L15.01 8.24276Z" fill="#47B35A"/>
<path opacity="0.4" d="M6.19498 1.11957C6.29844 0.491465 7.20156 0.491465 7.30502 1.11957L7.7451 3.7913C7.78429 4.02923 7.97077 4.21571 8.2087 4.2549L10.8804 4.69498C11.5085 4.79844 11.5085 5.70156 10.8804 5.80502L8.2087 6.2451C7.97077 6.28429 7.78429 6.47077 7.7451 6.7087L7.30502 9.38043C7.20156 10.0085 6.29844 10.0085 6.19498 9.38043L5.7549 6.7087C5.71571 6.47077 5.52923 6.28429 5.2913 6.2451L2.61957 5.80502C1.99147 5.70156 1.99147 4.79844 2.61957 4.69498L5.2913 4.2549C5.52923 4.21571 5.71571 4.02923 5.7549 3.7913L6.19498 1.11957Z" fill="#47B35A"/>
</svg>
