<svg width="8" height="8" viewBox="0 0 8 8" fill="none" xmlns="http://www.w3.org/2000/svg">
<path fill-rule="evenodd" clip-rule="evenodd" d="M0.581179 5.08188C0.368576 4.86927 0.262274 4.76297 0.226602 4.63884C0.20067 4.5486 0.20067 4.45289 0.226603 4.36265C0.262275 4.23852 0.368577 4.13222 0.581182 3.91961C0.738565 3.76223 0.817256 3.68354 0.911739 3.64543C0.980812 3.61757 1.05524 3.60549 1.12958 3.61008C1.23126 3.61636 1.3308 3.66613 1.52987 3.76567L3.00005 4.50078L5.95716 1.12119C6.19853 0.845336 6.31922 0.707408 6.47924 0.671896C6.50738 0.665652 6.536 0.661853 6.56479 0.66054C6.72853 0.653071 6.88103 0.754734 7.18601 0.958061L7.20411 0.970125C7.55355 1.20309 7.72827 1.31957 7.7793 1.49447C7.78821 1.52498 7.79418 1.55628 7.79714 1.58793C7.81412 1.76933 7.6946 1.94198 7.45555 2.28729L4.78237 6.14871C4.22842 6.9489 3.95144 7.349 3.55372 7.42754C3.48496 7.44112 3.41496 7.44743 3.34488 7.44638C2.93953 7.44025 2.59544 7.09616 1.90727 6.40798L0.581179 5.08188Z" fill="#EBF7ED"/>
</svg>
