<svg width="17" height="16" viewBox="0 0 17 16" fill="none" xmlns="http://www.w3.org/2000/svg">
<path d="M8.50021 3.91667C9.44332 3.91667 10.3093 4.23956 11.0006 4.77653L13.1222 2.75239C11.8887 1.66497 10.2739 1 8.50021 1C5.81244 1 3.4816 2.51662 2.30859 4.73908L4.66785 6.60162C5.23936 5.0363 6.73707 3.91667 8.50021 3.91667Z" fill="#F44336"/>
<path d="M15.4394 8.87606C15.4758 8.58927 15.5 8.29671 15.5 7.99999C15.5 7.49958 15.4453 7.0123 15.3456 6.54166H8.5V9.45832H12.2836C11.9775 10.2539 11.4325 10.927 10.7388 11.3947L13.1069 13.2642C14.3621 12.1623 15.2212 10.6194 15.4394 8.87606Z" fill="#2196F3"/>
<path d="M4.41667 8.00003C4.41667 7.50802 4.50817 7.03847 4.66764 6.60165L2.30839 4.73911C1.79419 5.71337 1.5 6.82179 1.5 8.00003C1.5 9.16509 1.78878 10.2612 2.29229 11.2276L4.65454 9.36266C4.50326 8.93594 4.41667 8.47861 4.41667 8.00003Z" fill="#FFC107"/>
<path d="M8.4997 12.0833C6.72314 12.0833 5.21578 10.9467 4.65424 9.36264L2.29199 11.2276C3.45926 13.4679 5.79876 15 8.4997 15C10.2659 15 11.8765 14.3439 13.1066 13.2642L10.7385 11.3947C10.0987 11.826 9.33294 12.0833 8.4997 12.0833Z" fill="#00B060"/>
</svg>
