<svg width="40" height="40" viewBox="0 0 40 40" fill="none" xmlns="http://www.w3.org/2000/svg">
<mask id="path-1-outside-1_12708_16033" maskUnits="userSpaceOnUse" x="2" y="4" width="36" height="32" fill="black">
<rect fill="white" x="2" y="4" width="36" height="32"/>
<path fill-rule="evenodd" clip-rule="evenodd" d="M20.0007 10.4663L18.0826 12.4697C17.7215 12.8469 17.0968 12.4878 17.2409 11.9859L18.1462 8.83396C16.7214 7.78803 15.0416 7 13.3618 7C8.38323 7 4.44545 10.4888 5.06415 15.664C5.89338 22.6 15.0208 32.5197 19.6291 32.9795C19.8758 33.0041 20.1242 33.0041 20.3708 32.9795C24.9781 32.5199 34.1066 22.6 34.9358 15.664C35.5546 10.4886 31.6168 7 26.6381 7C24.163 7 21.6878 8.71098 20.0284 10.4369C20.0193 10.4468 20.0101 10.4566 20.0007 10.4663Z"/>
</mask>
<path fill-rule="evenodd" clip-rule="evenodd" d="M20.0007 10.4663L18.0826 12.4697C17.7215 12.8469 17.0968 12.4878 17.2409 11.9859L18.1462 8.83396C16.7214 7.78803 15.0416 7 13.3618 7C8.38323 7 4.44545 10.4888 5.06415 15.664C5.89338 22.6 15.0208 32.5197 19.6291 32.9795C19.8758 33.0041 20.1242 33.0041 20.3708 32.9795C24.9781 32.5199 34.1066 22.6 34.9358 15.664C35.5546 10.4886 31.6168 7 26.6381 7C24.163 7 21.6878 8.71098 20.0284 10.4369C20.0193 10.4468 20.0101 10.4566 20.0007 10.4663Z" fill="#FF5533"/>
<path d="M18.0826 12.4697L20.2496 14.5444L18.0826 12.4697ZM20.0007 10.4663L17.8338 8.39163L17.8338 8.39165L20.0007 10.4663ZM17.2409 11.9859L20.1243 12.8141L20.1243 12.8141L17.2409 11.9859ZM18.1462 8.83396L21.0296 9.66216L21.6068 7.65275L19.9215 6.41561L18.1462 8.83396ZM5.06415 15.664L8.04294 15.3078L5.06415 15.664ZM19.6291 32.9795L19.3313 35.9647L19.3313 35.9647L19.6291 32.9795ZM20.3708 32.9795L20.6687 35.9647L20.6687 35.9647L20.3708 32.9795ZM34.9358 15.664L37.9146 16.0201V16.0201L34.9358 15.664ZM20.0284 10.4369L17.8658 8.3576L17.8431 8.38123L17.8209 8.40536L20.0284 10.4369ZM20.2496 14.5444L22.1677 12.541L17.8338 8.39165L15.9157 10.395L20.2496 14.5444ZM14.3575 11.1577C13.3485 14.6706 17.722 17.1844 20.2496 14.5444L15.9157 10.395C17.7211 8.50932 20.845 10.3049 20.1243 12.8141L14.3575 11.1577ZM15.2628 8.00577L14.3575 11.1577L20.1243 12.8141L21.0296 9.66216L15.2628 8.00577ZM19.9215 6.41561C18.2394 5.18079 15.9389 4 13.3618 4V10C14.1443 10 15.2035 10.3953 16.371 11.2523L19.9215 6.41561ZM13.3618 4C10.185 4 7.16144 5.11585 4.99989 7.26278C2.79611 9.45166 1.66958 12.5422 2.08537 16.0201L8.04294 15.3078C7.84002 13.6105 8.37303 12.3691 9.22812 11.5198C10.1254 10.6285 11.5601 10 13.3618 10V4ZM2.08537 16.0201C2.60676 20.3813 5.5659 25.1556 8.66607 28.7193C10.2647 30.5571 12.0274 32.2206 13.7614 33.4816C15.4042 34.6764 17.3705 35.7691 19.3313 35.9647L19.927 29.9944C19.5836 29.9601 18.6809 29.6404 17.2903 28.6291C15.9909 27.6842 14.5558 26.3481 13.1929 24.7814C10.37 21.5363 8.35078 17.8827 8.04294 15.3078L2.08537 16.0201ZM19.3313 35.9647C19.776 36.0091 20.2239 36.0091 20.6687 35.9647L20.073 29.9944C20.0244 29.9992 19.9756 29.9992 19.927 29.9944L19.3313 35.9647ZM20.6687 35.9647C22.6293 35.7691 24.5955 34.6763 26.2382 33.4817C27.9721 32.2206 29.7348 30.5571 31.3335 28.7194C34.4337 25.1557 37.3932 20.3814 37.9146 16.0201L31.9571 15.3078C31.6492 17.8826 29.6298 21.5362 26.8067 24.7814C25.4437 26.3481 24.0086 27.6842 22.7092 28.6292C21.3186 29.6405 20.416 29.9601 20.073 29.9944L20.6687 35.9647ZM37.9146 16.0201C38.3304 12.5422 37.2039 9.45159 35.0001 7.26271C32.8385 5.11579 29.8149 4 26.6381 4V10C28.44 10 29.8746 10.6285 30.7719 11.5198C31.627 12.369 32.16 13.6104 31.9571 15.3078L37.9146 16.0201ZM26.6381 4C22.9218 4 19.7059 6.44381 17.8658 8.3576L22.1909 12.5162C23.6697 10.9782 25.4042 10 26.6381 10V4ZM22.1676 12.541C22.1906 12.5171 22.2134 12.4928 22.2358 12.4684L17.8209 8.40536C17.8252 8.40067 17.8295 8.3961 17.8338 8.39163L22.1676 12.541Z" fill="white" mask="url(#path-1-outside-1_12708_16033)"/>
</svg>
