<svg width="16" height="16" viewBox="0 0 16 16" fill="none" xmlns="http://www.w3.org/2000/svg">
<path fill-rule="evenodd" clip-rule="evenodd" d="M10.8413 5.34128C12.0104 6.51038 12.5949 7.09494 12.6627 7.81178C12.6745 7.93698 12.6745 8.06302 12.6627 8.18822C12.5949 8.90507 12.0104 9.48962 10.8413 10.6587L10.6587 10.8413C9.48962 12.0104 8.90506 12.5949 8.18822 12.6627C8.06302 12.6745 7.93698 12.6745 7.81178 12.6627C7.09493 12.5949 6.51038 12.0104 5.34128 10.8413L5.15872 10.6587C3.98962 9.48962 3.40507 8.90507 3.3373 8.18822C3.32547 8.06302 3.32547 7.93698 3.3373 7.81178C3.40506 7.09494 3.98962 6.51038 5.15872 5.34128L5.34128 5.15872C6.51038 3.98962 7.09493 3.40507 7.81178 3.3373C7.93698 3.32547 8.06302 3.32547 8.18822 3.3373C8.90507 3.40507 9.48962 3.98962 10.6587 5.15872L10.8413 5.34128Z" fill="#262626"/>
</svg>
