<svg width="24" height="24" viewBox="0 0 24 24" fill="none" xmlns="http://www.w3.org/2000/svg">
<g clip-path="url(#clip0_11649_2466)">
<path d="M3 12C3 10.1124 3.00096 8.7635 3.0964 7.71045C3.19059 6.67116 3.37047 6.01859 3.66987 5.5C4.10871 4.7399 4.7399 4.10871 5.5 3.66987C6.01859 3.37047 6.67116 3.19059 7.71045 3.0964C8.7635 3.00096 10.1124 3 12 3C13.8876 3 15.2365 3.00096 16.2895 3.0964C17.3288 3.19059 17.9814 3.37047 18.5 3.66987C19.2601 4.10871 19.8913 4.7399 20.3301 5.5C20.6295 6.01859 20.8094 6.67116 20.9036 7.71045C20.999 8.7635 21 10.1124 21 12C21 13.8876 20.999 15.2365 20.9036 16.2895C20.8094 17.3288 20.6295 17.9814 20.3301 18.5C19.8913 19.2601 19.2601 19.8913 18.5 20.3301C17.9814 20.6295 17.3288 20.8094 16.2895 20.9036C15.2365 20.999 13.8876 21 12 21C10.1124 21 8.7635 20.999 7.71045 20.9036C6.67116 20.8094 6.01859 20.6295 5.5 20.3301C4.7399 19.8913 4.10871 19.2601 3.66987 18.5C3.37047 17.9814 3.19059 17.3288 3.0964 16.2895C3.00096 15.2365 3 13.8876 3 12Z" stroke="#262626" stroke-opacity="0.1" stroke-width="2"/>
<path fill-rule="evenodd" clip-rule="evenodd" d="M6.94026 12.0184C6.6707 11.7264 6.53592 11.5804 6.46829 11.4233C6.35402 11.158 6.36006 10.8563 6.48484 10.5957C6.55871 10.4415 6.69922 10.301 6.98024 10.02C7.27159 9.72865 7.41726 9.58298 7.57625 9.50855C7.84492 9.38277 8.15557 9.38277 8.42424 9.50855C8.58322 9.58298 8.7289 9.72865 9.02025 10.02L11.5002 12.5L21.209 2.32896C21.3765 2.1534 21.4603 2.06562 21.5479 2.00602C21.8382 1.80846 22.2108 1.77763 22.5296 1.92477C22.6258 1.96916 22.7229 2.04197 22.917 2.1876C23.1427 2.35686 23.2556 2.44149 23.331 2.53249C23.5821 2.83552 23.6321 3.25767 23.4588 3.611C23.4068 3.71711 23.3168 3.82577 23.137 4.0431L14.7422 14.1865C13.5518 15.6249 12.9565 16.3441 12.1757 16.4456C12.0403 16.4632 11.9035 16.4669 11.7674 16.4567C10.9822 16.3975 10.349 15.7114 9.08261 14.3394L6.94026 12.0184Z" fill="#47B35A"/>
</g>
<defs>
<clipPath id="clip0_11649_2466">
<rect width="24" height="24" fill="white"/>
</clipPath>
</defs>
</svg>
