<svg width="24" height="24" viewBox="0 0 24 24" fill="none" xmlns="http://www.w3.org/2000/svg">
<path d="M3 12C3 10.1124 3.00096 8.7635 3.0964 7.71045C3.19059 6.67116 3.37047 6.01859 3.66987 5.5C4.10871 4.7399 4.7399 4.10871 5.5 3.66987C6.01859 3.37047 6.67116 3.19059 7.71045 3.0964C8.7635 3.00096 10.1124 3 12 3C13.8876 3 15.2365 3.00096 16.2895 3.0964C17.3288 3.19059 17.9814 3.37047 18.5 3.66987C19.2601 4.10871 19.8913 4.7399 20.3301 5.5C20.6295 6.01859 20.8094 6.67116 20.9036 7.71045C20.999 8.7635 21 10.1124 21 12C21 13.8876 20.999 15.2365 20.9036 16.2895C20.8094 17.3288 20.6295 17.9814 20.3301 18.5C19.8913 19.2601 19.2601 19.8913 18.5 20.3301C17.9814 20.6295 17.3288 20.8094 16.2895 20.9036C15.2365 20.999 13.8876 21 12 21C10.1124 21 8.7635 20.999 7.71045 20.9036C6.67116 20.8094 6.01859 20.6295 5.5 20.3301C4.7399 19.8913 4.10871 19.2601 3.66987 18.5C3.37047 17.9814 3.19059 17.3288 3.0964 16.2895C3.00096 15.2365 3 13.8876 3 12Z" stroke="#262626" stroke-width="2"/>
<circle cx="12" cy="12" r="4" stroke="#262626" stroke-width="2"/>
<circle cx="17" cy="7" r="1" fill="#262626"/>
</svg>
