<svg width="16" height="16" viewBox="0 0 16 16" fill="none" xmlns="http://www.w3.org/2000/svg">
<g clip-path="url(#clip0_10991_21628)">
<path d="M0.75 8C0.75 6.09177 0.756442 5.28478 0.928889 4.6412C1.41434 2.82947 2.82947 1.41434 4.6412 0.928889C5.28478 0.756442 6.09177 0.75 8 0.75C9.90823 0.75 10.7152 0.756442 11.3588 0.928889C13.1705 1.41434 14.5857 2.82947 15.0711 4.6412C15.2436 5.28478 15.25 6.09177 15.25 8C15.25 9.90823 15.2436 10.7152 15.0711 11.3588C14.5857 13.1705 13.1705 14.5857 11.3588 15.0711C10.7152 15.2436 9.90823 15.25 8 15.25C6.09177 15.25 5.28478 15.2436 4.6412 15.0711C2.82947 14.5857 1.41434 13.1705 0.928889 11.3588C0.756442 10.7152 0.75 9.90823 0.75 8Z" stroke="white" stroke-width="1.5"/>
<path d="M9.5 4C9.5 4.55228 9.05228 5 8.5 5C7.94772 5 7.5 4.55228 7.5 4C7.5 3.44772 7.94772 3 8.5 3C9.05228 3 9.5 3.44772 9.5 4Z" fill="white"/>
<path d="M6.5 6H8.35338C8.84782 6 9.09504 6 9.24103 6.14384C9.26624 6.16869 9.28875 6.19614 9.30816 6.22573C9.42058 6.39709 9.3721 6.63951 9.27513 7.12435L8.69732 10.0134C8.60703 10.4649 8.56188 10.6906 8.61303 10.9042C8.62219 10.9424 8.63359 10.9801 8.64719 11.017C8.72312 11.2231 8.8859 11.3859 9.21145 11.7115L9.22468 11.7247C9.35173 11.8517 9.41526 11.9153 9.45241 11.9942C9.4591 12.0084 9.46512 12.023 9.47044 12.0377C9.5 12.1198 9.5 12.2097 9.5 12.3894V13H7.64662C7.15218 13 6.90496 13 6.75897 12.8562C6.73376 12.8313 6.71125 12.8039 6.69184 12.7743C6.57942 12.6029 6.6279 12.3605 6.72487 11.8757L7.30268 8.98661C7.39297 8.53514 7.43812 8.30941 7.38697 8.0958C7.37781 8.05756 7.36641 8.01989 7.35281 7.98299C7.27688 7.77688 7.1141 7.6141 6.78855 7.28855L6.77532 7.27532C6.64827 7.14827 6.58474 7.08474 6.54759 7.00578C6.5409 6.99157 6.53488 6.97704 6.52956 6.96226C6.5 6.88016 6.5 6.79032 6.5 6.61064V6Z" fill="white"/>
</g>
<defs>
<clipPath id="clip0_10991_21628">
<rect width="16" height="16" rx="6" fill="white"/>
</clipPath>
</defs>
</svg>
