<svg width="40" height="40" viewBox="0 0 40 40" fill="none" xmlns="http://www.w3.org/2000/svg">
<g clip-path="url(#clip0_24913_24952)">
<path d="M20.0052 4C13.3254 4 11.3718 4.00689 10.992 4.0384C9.62121 4.15238 8.76821 4.36828 7.83889 4.83107C7.12273 5.18681 6.5579 5.59915 6.00047 6.17717C4.98528 7.23128 4.37001 8.52813 4.14728 10.0697C4.039 10.8181 4.00749 10.9707 4.00109 14.7933C3.99864 16.0675 4.00109 17.7444 4.00109 19.9937C4.00109 26.67 4.00847 28.6221 4.04047 29.0013C4.15122 30.3355 4.36041 31.175 4.8034 32.0932C5.65002 33.8509 7.26693 35.1704 9.17181 35.6627C9.83139 35.8326 10.5599 35.9261 11.4951 35.9705C11.8913 35.9877 15.9299 36 19.971 36C24.0121 36 28.0532 35.9951 28.4396 35.9754C29.5224 35.9244 30.1513 35.84 30.8465 35.6603C32.7637 35.1655 34.3511 33.8657 35.2149 32.0834C35.6493 31.1873 35.8696 30.3158 35.9692 29.0512C35.9909 28.7755 36 24.3796 36 19.9895C36 15.5988 35.9902 11.2109 35.9685 10.9352C35.8676 9.6502 35.6473 8.78613 35.1989 7.87281C34.831 7.12518 34.4225 6.56685 33.8293 5.99599C32.7708 4.9847 31.4763 4.36926 29.9337 4.14672C29.1863 4.03864 29.0374 4.00664 25.2129 4H20.0052Z" fill="url(#paint0_radial_24913_24952)"/>
<path d="M20.0052 4C13.3254 4 11.3718 4.00689 10.992 4.0384C9.62121 4.15238 8.76821 4.36828 7.83889 4.83107C7.12273 5.18681 6.5579 5.59915 6.00047 6.17717C4.98528 7.23128 4.37001 8.52813 4.14728 10.0697C4.039 10.8181 4.00749 10.9707 4.00109 14.7933C3.99864 16.0675 4.00109 17.7444 4.00109 19.9937C4.00109 26.67 4.00847 28.6221 4.04047 29.0013C4.15122 30.3355 4.36041 31.175 4.8034 32.0932C5.65002 33.8509 7.26693 35.1704 9.17181 35.6627C9.83139 35.8326 10.5599 35.9261 11.4951 35.9705C11.8913 35.9877 15.9299 36 19.971 36C24.0121 36 28.0532 35.9951 28.4396 35.9754C29.5224 35.9244 30.1513 35.84 30.8465 35.6603C32.7637 35.1655 34.3511 33.8657 35.2149 32.0834C35.6493 31.1873 35.8696 30.3158 35.9692 29.0512C35.9909 28.7755 36 24.3796 36 19.9895C36 15.5988 35.9902 11.2109 35.9685 10.9352C35.8676 9.6502 35.6473 8.78613 35.1989 7.87281C34.831 7.12518 34.4225 6.56685 33.8293 5.99599C32.7708 4.9847 31.4763 4.36926 29.9337 4.14672C29.1863 4.03864 29.0374 4.00664 25.2129 4H20.0052Z" fill="url(#paint1_radial_24913_24952)"/>
<path d="M20.0052 4C13.3254 4 11.3718 4.00689 10.992 4.0384C9.62121 4.15238 8.76821 4.36828 7.83889 4.83107C7.12273 5.18681 6.5579 5.59915 6.00047 6.17717C4.98528 7.23128 4.37001 8.52813 4.14728 10.0697C4.039 10.8181 4.00749 10.9707 4.00109 14.7933C3.99864 16.0675 4.00109 17.7444 4.00109 19.9937C4.00109 26.67 4.00847 28.6221 4.04047 29.0013C4.15122 30.3355 4.36041 31.175 4.8034 32.0932C5.65002 33.8509 7.26693 35.1704 9.17181 35.6627C9.83139 35.8326 10.5599 35.9261 11.4951 35.9705C11.8913 35.9877 15.9299 36 19.971 36C24.0121 36 28.0532 35.9951 28.4396 35.9754C29.5224 35.9244 30.1513 35.84 30.8465 35.6603C32.7637 35.1655 34.3511 33.8657 35.2149 32.0834C35.6493 31.1873 35.8696 30.3158 35.9692 29.0512C35.9909 28.7755 36 24.3796 36 19.9895C36 15.5988 35.9902 11.2109 35.9685 10.9352C35.8676 9.6502 35.6473 8.78613 35.1989 7.87281C34.831 7.12518 34.4225 6.56685 33.8293 5.99599C32.7708 4.9847 31.4763 4.36926 29.9337 4.14672C29.1863 4.03864 29.0374 4.00664 25.2129 4H20.0052Z" fill="url(#paint2_radial_24913_24952)"/>
<path d="M20.0052 4C13.3254 4 11.3718 4.00689 10.992 4.0384C9.62121 4.15238 8.76821 4.36828 7.83889 4.83107C7.12273 5.18681 6.5579 5.59915 6.00047 6.17717C4.98528 7.23128 4.37001 8.52813 4.14728 10.0697C4.039 10.8181 4.00749 10.9707 4.00109 14.7933C3.99864 16.0675 4.00109 17.7444 4.00109 19.9937C4.00109 26.67 4.00847 28.6221 4.04047 29.0013C4.15122 30.3355 4.36041 31.175 4.8034 32.0932C5.65002 33.8509 7.26693 35.1704 9.17181 35.6627C9.83139 35.8326 10.5599 35.9261 11.4951 35.9705C11.8913 35.9877 15.9299 36 19.971 36C24.0121 36 28.0532 35.9951 28.4396 35.9754C29.5224 35.9244 30.1513 35.84 30.8465 35.6603C32.7637 35.1655 34.3511 33.8657 35.2149 32.0834C35.6493 31.1873 35.8696 30.3158 35.9692 29.0512C35.9909 28.7755 36 24.3796 36 19.9895C36 15.5988 35.9902 11.2109 35.9685 10.9352C35.8676 9.6502 35.6473 8.78613 35.1989 7.87281C34.831 7.12518 34.4225 6.56685 33.8293 5.99599C32.7708 4.9847 31.4763 4.36926 29.9337 4.14672C29.1863 4.03864 29.0374 4.00664 25.2129 4H20.0052Z" fill="url(#paint3_radial_24913_24952)"/>
<path d="M20.0065 8.10889C16.7752 8.10889 16.3697 8.123 15.1006 8.18072C13.834 8.23867 12.9694 8.43905 12.2129 8.73307C11.4304 9.03673 10.7666 9.44293 10.1053 10.104C9.44345 10.7648 9.03693 11.4281 8.73206 12.2098C8.43708 12.966 8.2363 13.8302 8.1793 15.0954C8.12254 16.3636 8.10767 16.769 8.10767 19.9979C8.10767 23.2268 8.12205 23.6307 8.17954 24.8989C8.2378 26.1646 8.43833 27.0285 8.7323 27.7844C9.03644 28.5664 9.44295 29.2297 10.1045 29.8905C10.7656 30.5519 11.4294 30.9591 12.2114 31.2627C12.9684 31.5567 13.8333 31.7571 15.0996 31.8151C16.3687 31.8728 16.774 31.8869 20.005 31.8869C23.2365 31.8869 23.6408 31.8728 24.9099 31.8151C26.1765 31.7571 27.0421 31.5567 27.7991 31.2627C28.5814 30.9591 29.2442 30.5519 29.9053 29.8905C30.5671 29.2297 30.9736 28.5664 31.2785 27.7847C31.5709 27.0285 31.7717 26.1643 31.8312 24.8991C31.8882 23.631 31.9031 23.2267 31.9031 19.9979C31.9031 16.769 31.8882 16.3638 31.8312 15.0957C31.7717 13.83 31.5709 12.966 31.2785 12.2101C30.9736 11.4281 30.5671 10.7648 29.9053 10.104C29.2434 9.44268 28.5816 9.03647 27.7983 8.73306C27.0399 8.43905 26.1748 8.23867 24.9082 8.18072C23.639 8.123 23.235 8.10889 20.0028 8.10889H20.0065ZM18.9392 10.2514C19.2559 10.2509 19.6094 10.2514 20.0065 10.2514C23.1832 10.2514 23.5597 10.2628 24.8142 10.3197C25.9743 10.3728 26.6038 10.5664 27.0232 10.7292C27.5785 10.9447 27.9743 11.2023 28.3905 11.6184C28.8069 12.0345 29.0647 12.4308 29.2809 12.9856C29.4437 13.4042 29.6378 14.0333 29.6906 15.1925C29.7476 16.4458 29.76 16.8223 29.76 19.9952C29.76 23.168 29.7476 23.5445 29.6906 24.7978C29.6375 25.957 29.4437 26.5861 29.2809 27.0047C29.0652 27.5595 28.8069 27.9546 28.3905 28.3705C27.9741 28.7866 27.5787 29.0442 27.0232 29.2597C26.6043 29.4231 25.9743 29.6163 24.8142 29.6693C23.56 29.7263 23.1832 29.7387 20.0065 29.7387C16.8295 29.7387 16.453 29.7263 15.1988 29.6693C14.0387 29.6159 13.4092 29.4222 12.9895 29.2594C12.4343 29.0439 12.0377 28.7863 11.6212 28.3702C11.2048 27.9541 10.947 27.5588 10.7309 27.0037C10.568 26.5851 10.374 25.956 10.3212 24.7968C10.2642 23.5435 10.2527 23.1671 10.2527 19.9922C10.2527 16.8173 10.2642 16.4428 10.3212 15.1895C10.3742 14.0303 10.568 13.4012 10.7309 12.9821C10.9465 12.4273 11.2048 12.031 11.6212 11.6149C12.0377 11.1988 12.4343 10.9412 12.9895 10.7252C13.4089 10.5617 14.0387 10.3685 15.1988 10.3153C16.2964 10.2657 16.7217 10.2509 18.9392 10.2484L18.9392 10.2514ZM26.3575 12.2255C25.5692 12.2255 24.9297 12.8638 24.9297 13.6516C24.9297 14.4393 25.5692 15.0783 26.3575 15.0783C27.1457 15.0783 27.7852 14.4393 27.7852 13.6516C27.7852 12.864 27.1457 12.225 26.3575 12.225L26.3575 12.2255ZM20.0065 13.8924C16.6322 13.8924 13.8965 16.6261 13.8965 19.9979C13.8965 23.3697 16.6322 26.1021 20.0065 26.1021C23.3808 26.1021 26.1155 23.3697 26.1155 19.9979C26.1155 16.6261 23.3805 13.8924 20.0063 13.8924H20.0065ZM20.0065 16.0349C22.1967 16.0349 23.9724 17.8091 23.9724 19.9979C23.9724 22.1865 22.1967 23.9609 20.0065 23.9609C17.8161 23.9609 16.0406 22.1865 16.0406 19.9979C16.0406 17.8091 17.8161 16.0349 20.0065 16.0349Z" fill="white"/>
</g>
<defs>
<radialGradient id="paint0_radial_24913_24952" cx="0" cy="0" r="1" gradientUnits="userSpaceOnUse" gradientTransform="translate(34.9667 18.9988) rotate(164.25) scale(20.4462 14.7305)">
<stop stop-color="#FF005F"/>
<stop offset="1" stop-color="#FC01D8"/>
</radialGradient>
<radialGradient id="paint1_radial_24913_24952" cx="0" cy="0" r="1" gradientUnits="userSpaceOnUse" gradientTransform="translate(12.4998 38.4647) rotate(-90) scale(25.543 27.1006)">
<stop stop-color="#FFCC00"/>
<stop offset="0.1242" stop-color="#FFCC00"/>
<stop offset="0.5672" stop-color="#FE4A05"/>
<stop offset="0.6942" stop-color="#FF0F3F"/>
<stop offset="1" stop-color="#FE0657" stop-opacity="0"/>
</radialGradient>
<radialGradient id="paint2_radial_24913_24952" cx="0" cy="0" r="1" gradientUnits="userSpaceOnUse" gradientTransform="translate(20.8086 35.5487) rotate(-59.8703) scale(10.5623 13.7509)">
<stop stop-color="#FFCC00"/>
<stop offset="1" stop-color="#FFCC00" stop-opacity="0"/>
</radialGradient>
<radialGradient id="paint3_radial_24913_24952" cx="0" cy="0" r="1" gradientUnits="userSpaceOnUse" gradientTransform="translate(8.34171 5.30303) rotate(164.274) scale(20.2194 6.88873)">
<stop stop-color="#780CFF"/>
<stop offset="1" stop-color="#820BFF" stop-opacity="0"/>
</radialGradient>
<clipPath id="clip0_24913_24952">
<rect x="4" y="4" width="32" height="32" rx="10" fill="white"/>
</clipPath>
</defs>
</svg>
