<svg width="24" height="24" viewBox="0 0 24 24" fill="none" xmlns="http://www.w3.org/2000/svg">
<path fill-rule="evenodd" clip-rule="evenodd" d="M3.29941 5.88845C2.42368 4.23605 2.68175 3.27843 3.47795 2.47493C4.28146 1.67872 5.23597 1.42376 6.88837 2.29949C6.94008 2.32686 7.03225 2.37458 7.15327 2.43722L7.15354 2.43736L7.1536 2.4374C7.73719 2.73948 8.99057 3.38829 9.61074 3.77734C11.4698 4.94374 11.7675 7.65747 10.1923 9.19216C8.65756 10.7674 5.94366 10.4699 4.77726 8.61082C4.38821 7.99065 3.7394 6.73727 3.43731 6.15369C3.37459 6.03251 3.32681 5.94021 3.29941 5.88845ZM1.69767 12.0001C1.31236 12.0001 1 12.3124 1 12.6978C1 17.8353 5.16479 22.0001 10.3023 22.0001H13.6977C18.8352 22.0001 23 17.8353 23 12.6978C23 12.3124 22.6876 12.0001 22.3023 12.0001H1.69767ZM13.1121 10.0503C12.4118 10.0503 12.0936 9.17557 12.6303 8.72561L16.6684 5.33993C17.1341 4.94943 17.8376 5.06128 18.1593 5.57696L19.9958 8.52107C20.4113 9.18715 19.9324 10.0503 19.1474 10.0503H13.1121ZM4.98505 17.7635C5.3607 17.9521 5.75733 17.659 5.78527 17.1719C5.79712 16.9654 5.79424 16.7541 5.77549 16.5398C5.65393 15.1504 4.89776 14.004 3.89764 13.5017C3.52198 13.313 3.12535 13.6062 3.09741 14.0932C3.08557 14.2997 3.08844 14.511 3.1072 14.7253C3.22876 16.1148 3.98493 17.2612 4.98505 17.7635Z" fill="#CEB591"/>
</svg>
