<svg width="43" height="41" viewBox="0 0 43 41" fill="none" xmlns="http://www.w3.org/2000/svg">
<path d="M4.25672 25.1896C4.58665 22.2201 4.75162 20.7354 5.66193 19.7643C5.82181 19.5938 5.99634 19.4376 6.1835 19.2975C7.24915 18.5 8.74301 18.5 11.7307 18.5H28.2693C31.257 18.5 32.7509 18.5 33.8165 19.2975C34.0037 19.4376 34.1782 19.5938 34.3381 19.7643C35.2484 20.7354 35.4133 22.2201 35.7433 25.1896L36.1253 28.6277C36.5081 32.0728 36.6995 33.7954 35.853 35.0239C35.7056 35.2378 35.5376 35.4369 35.3516 35.6183C34.2834 36.6598 32.5532 36.7616 29.0929 36.9651L20 37.5L10.9071 36.9651C7.44677 36.7616 5.71659 36.6598 4.6484 35.6183C4.46235 35.4369 4.29443 35.2378 4.147 35.0239C3.30052 33.7954 3.49191 32.0728 3.8747 28.6277L4.25672 25.1896Z" fill="#EFCF33"/>
<path fill-rule="evenodd" clip-rule="evenodd" d="M16.6391 5.96559L5 18.5C3.34315 18.5 2 19.8431 2 21.5C2 23.1569 3.34315 24.5 5 24.5H5.03573C5.53636 31.5133 11.1726 37.0825 18.215 37.478C18.6072 37.5 19.0715 37.5 20 37.5C20.9285 37.5 21.3928 37.5 21.785 37.478C28.8274 37.0825 34.4636 31.5133 34.9643 24.5H35C36.6569 24.5 38 23.1569 38 21.5C38 19.8431 36.6569 18.5 35 18.5L23.3609 5.96559C22.4931 5.03102 21.2753 4.5 20 4.5C18.7247 4.5 17.5069 5.03102 16.6391 5.96559Z" fill="#FCDBE4"/>
<path d="M5.16152 17.3693C5.73931 13.3248 6.02821 11.3025 6.88921 9.72027C8.04231 7.6012 9.92262 5.97041 12.1835 5.12858C13.8716 4.5 15.9144 4.5 20 4.5C24.0856 4.5 26.1284 4.5 27.8165 5.12858C30.0774 5.97041 31.9577 7.6012 33.1108 9.72027C33.9718 11.3025 34.2607 13.3248 34.8385 17.3693L35 18.5C33.1614 18.5 31.4806 17.4612 30.6584 15.8167L30.3171 15.1341C29.6177 13.7354 27.8507 13.2662 26.5496 14.1336C22.2789 16.9807 17.2611 18.5 12.1284 18.5H8H5L5.16152 17.3693Z" fill="#EFCF33"/>
<path fill-rule="evenodd" clip-rule="evenodd" d="M15.5 19.5C14.8871 19.5 14.3269 19.8463 14.0528 20.3944L14.0189 20.4621C13.6923 21.1155 13.6923 21.8845 14.0189 22.5379L14.0528 22.6056C14.3269 23.1537 14.8871 23.5 15.5 23.5C16.1129 23.5 16.6731 23.1537 16.9472 22.6056L16.9811 22.5379C17.3077 21.8845 17.3077 21.1155 16.9811 20.4621L16.9472 20.3944C16.6731 19.8463 16.1129 19.5 15.5 19.5ZM24.5 19.5C23.8871 19.5 23.3269 19.8463 23.0528 20.3944L23.0189 20.4621C22.6923 21.1155 22.6923 21.8845 23.0189 22.5379L23.0528 22.6056C23.3269 23.1537 23.8871 23.5 24.5 23.5C25.1129 23.5 25.6731 23.1537 25.9472 22.6056L25.9811 22.5379C26.3078 21.8845 26.3078 21.1155 25.9811 20.4621L25.9472 20.3944C25.6731 19.8463 25.1129 19.5 24.5 19.5Z" fill="#3C8AF3"/>
<path d="M13.915 28.4368C13.7014 27.44 14.4613 26.5 15.4808 26.5H24.5192C25.5387 26.5 26.2986 27.44 26.085 28.4368L26.0476 28.611C25.4366 31.4627 22.9164 33.5 20 33.5C17.0836 33.5 14.5634 31.4627 13.9524 28.611L13.915 28.4368Z" fill="#FC7059"/>
<path d="M39.7378 4.47592L39.7276 4.46343C38.6968 3.21793 37.1248 2.59638 35.6269 2.65022C34.4424 2.68984 33.3758 3.14089 32.4889 3.73951C31.9198 3.35759 31.274 3.04658 30.5492 2.86329L30.5492 2.86327L30.5411 2.86126C29.0572 2.49255 27.3692 2.73639 26.0404 3.76608L26.0194 3.78252C24.7309 4.80872 24.0578 6.32854 24.0046 7.86107C23.9319 9.72646 24.7209 11.3915 25.6286 12.6033C26.4332 13.6861 27.9382 14.8172 29.0512 15.5831C29.6514 15.9962 30.2243 16.3609 30.6736 16.6311C30.8971 16.7655 31.1009 16.8831 31.2691 16.9742C31.3517 17.019 31.4404 17.0653 31.5264 17.1065C31.5277 17.1071 31.5296 17.108 31.5318 17.1091C31.5746 17.1298 31.7782 17.2284 32.0189 17.2857C32.0774 17.2996 32.1365 17.3109 32.196 17.3195C32.1976 17.3198 32.1999 17.3201 32.203 17.3206C32.2447 17.3269 32.4167 17.3529 32.602 17.3529C32.8826 17.3529 33.0977 17.2984 33.1728 17.2794L33.1744 17.279L33.2049 17.2711C33.4823 17.1962 33.7812 17.0496 33.9077 16.9875L33.9176 16.9826C34.1115 16.8876 34.3342 16.7714 34.5529 16.6534C34.9765 16.4248 35.4715 16.1428 35.7769 15.9442L35.789 15.9363C36.7079 15.3292 37.602 14.6256 38.4144 13.7837L38.4144 13.7837L38.422 13.7758C39.484 12.663 40.6504 11.0687 40.9398 9.09267C40.9421 9.07661 40.9443 9.06052 40.9462 9.04441C41.1279 7.5515 40.8743 5.87202 39.7378 4.47592Z" stroke="white" stroke-width="4" stroke-miterlimit="10" stroke-linecap="round" stroke-linejoin="round"/>
<path d="M38.1868 5.73856C37.581 5.00652 36.6218 4.61497 35.6962 4.64902C34.6529 4.68307 33.6264 5.26188 32.785 6.06201C32.6167 6.23225 32.3474 6.21523 32.1792 6.06201C31.5734 5.46617 30.8666 5.00652 30.0588 4.80224C29.0996 4.5639 28.0563 4.73414 27.2654 5.347C26.4745 5.97689 26.0369 6.93024 26.0033 7.93465C25.9528 9.19443 26.4913 10.4202 27.2317 11.4075C28.3929 12.9738 32.196 15.272 32.4821 15.3401C32.5999 15.3571 32.6167 15.3571 32.684 15.3401C32.9364 15.272 34.2154 14.574 34.6865 14.2676C35.5111 13.7228 36.2852 13.1099 36.9752 12.3949C37.9175 11.4075 38.7589 10.1818 38.9609 8.80287C39.0955 7.69631 38.8936 6.60678 38.1868 5.73856Z" fill="#FC7059" stroke="#FC7059" stroke-width="1.52941" stroke-miterlimit="10" stroke-linecap="round" stroke-linejoin="round"/>
</svg>
