<svg width="24" height="24" viewBox="0 0 24 24" fill="none" xmlns="http://www.w3.org/2000/svg">
<path fill-rule="evenodd" clip-rule="evenodd" d="M13.9782 12L14 12.0343V12H13.9782ZM15 15.5C15 14.6141 14.8228 13.7696 14.5018 13H18C18.5523 13 19 12.5522 19 12V8.99998H21.12C21.9467 8.99998 22.36 8.99998 22.6374 8.7705C22.6859 8.73042 22.7304 8.68586 22.7705 8.63741C23 8.36001 23 7.94667 23 7.11998V3.6364C23 3.34846 23 3.20449 22.933 3.08845C22.9211 3.06782 22.9077 3.04808 22.893 3.02936C22.8101 2.92403 22.6764 2.87056 22.4091 2.76363L21.0086 2.20342C20.7767 2.11067 20.6608 2.06429 20.543 2.07419C20.5219 2.07595 20.501 2.07905 20.4804 2.08346C20.3648 2.10815 20.2673 2.18616 20.0723 2.34217L11.0831 9.53349C10.2914 9.19025 9.41791 8.99998 8.5 8.99998C4.91015 8.99998 2 11.9101 2 15.5C2 19.0898 4.91015 22 8.5 22C12.0899 22 15 19.0898 15 15.5ZM7 18.5C8.10457 18.5 9 17.6046 9 16.5C9 15.3954 8.10457 14.5 7 14.5C5.89543 14.5 5 15.3954 5 16.5C5 17.6046 5.89543 18.5 7 18.5Z" fill="#EF876E"/>
</svg>
