<svg width="16" height="16" viewBox="0 0 16 16" fill="none" xmlns="http://www.w3.org/2000/svg">
<path fill-rule="evenodd" clip-rule="evenodd" d="M5.49976 3C5.22362 3 4.99976 3.22386 4.99976 3.5V4.08271C4.99976 4.32435 5.17257 4.53142 5.41032 4.57465L9.25884 5.27438C8.25682 5.95545 7.33471 6.7486 6.51064 7.63898C6.46211 7.69142 6.41381 7.74454 6.31723 7.85078L3.60268 10.8368C3.33645 11.1296 3.20333 11.2761 3.19157 11.4498C3.18951 11.4802 3.19024 11.5107 3.19374 11.541C3.21375 11.714 3.35368 11.8539 3.63354 12.1338L3.86598 12.3662C4.14583 12.6461 4.28576 12.786 4.45873 12.806C4.48901 12.8095 4.51955 12.8102 4.54997 12.8082C4.72369 12.7964 4.87012 12.6633 5.16297 12.3971L8.14898 9.68253C8.25522 9.58594 8.30834 9.53765 8.36078 9.48912C9.25115 8.66504 10.0443 7.74293 10.7254 6.74092L11.4251 10.5894C11.4683 10.8272 11.6754 11 11.917 11H12.4998C12.7759 11 12.9998 10.7761 12.9998 10.5V4C12.9998 3.44772 12.552 3 11.9998 3H5.49976Z" fill="#262626" fill-opacity="0.4"/>
</svg>
