<svg width="16" height="16" viewBox="0 0 16 16" fill="none" xmlns="http://www.w3.org/2000/svg">
<path fill-rule="evenodd" clip-rule="evenodd" d="M7.16968 15.3333H8.8304C9.43005 15.3333 9.72988 15.3333 9.98398 15.3006C11.7358 15.0753 13.1325 13.7276 13.4203 11.9849C13.462 11.7321 13.4727 11.4325 13.4941 10.8332C13.5169 10.1943 13.5283 9.87479 13.502 9.60793C13.3202 7.76209 11.8934 6.28336 10.0552 6.03579C9.78945 6 9.46977 6 8.8304 6H7.16968C6.53032 6 6.21063 6 5.94488 6.03579C4.10671 6.28336 2.67984 7.76209 2.49804 9.60793C2.47176 9.87479 2.48317 10.1943 2.50599 10.8332C2.52739 11.4325 2.53809 11.7321 2.57983 11.9849C2.86755 13.7276 4.26423 15.0753 6.0161 15.3006C6.2702 15.3333 6.57003 15.3333 7.16968 15.3333ZM8.66639 10.8218C9.0651 10.5913 9.33338 10.1603 9.33338 9.66667C9.33338 8.93029 8.73642 8.33333 8.00004 8.33333C7.26367 8.33333 6.66671 8.93029 6.66671 9.66667C6.66671 10.1601 6.9347 10.5908 7.33305 10.8214V12.6667C7.33305 13.0349 7.63153 13.3333 7.99972 13.3333C8.36791 13.3333 8.66639 13.0349 8.66639 12.6667V10.8218Z" fill="#262626"/>
<path d="M5.50698 4.04381C5.57035 2.71306 6.66774 1.66669 8 1.66669C9.33226 1.66669 10.4296 2.71306 10.493 4.04381L10.8109 10.7188C10.8873 12.3237 9.60671 13.6667 8 13.6667C6.39329 13.6667 5.11271 12.3237 5.18913 10.7188L5.50698 4.04381Z" stroke="#262626" stroke-width="2"/>
</svg>
