<svg width="16" height="16" viewBox="0 0 16 16" fill="none" xmlns="http://www.w3.org/2000/svg">
<path fill-rule="evenodd" clip-rule="evenodd" d="M7.16964 15.3333H8.83035C10.6432 15.3333 11.5497 15.3333 12.2119 14.9036C12.4989 14.7173 12.7474 14.4775 12.9438 14.1973C13.397 13.5508 13.4293 12.645 13.494 10.8332C13.5631 8.90035 13.5976 7.93392 13.1528 7.23498C12.9605 6.93278 12.7093 6.67242 12.4141 6.46945C11.7315 6 10.7645 6 8.83036 6H7.16964C5.23553 6 4.26848 6 3.58586 6.46945C3.29072 6.67242 3.03949 6.93278 2.84718 7.23498C2.4024 7.93392 2.43691 8.90035 2.50594 10.8332C2.57065 12.645 2.603 13.5508 3.05614 14.1973C3.25255 14.4775 3.50105 14.7173 3.78808 14.9036C4.45032 15.3333 5.35676 15.3333 7.16964 15.3333ZM8.66634 10.8218C9.06505 10.5913 9.33333 10.1603 9.33333 9.66667C9.33333 8.93029 8.73638 8.33333 8 8.33333C7.26362 8.33333 6.66666 8.93029 6.66666 9.66667C6.66666 10.1601 6.93465 10.5908 7.333 10.8214V12.6667C7.333 13.0349 7.63148 13.3333 7.99967 13.3333C8.36786 13.3333 8.66634 13.0349 8.66634 12.6667V10.8218Z" fill="#262626"/>
<path d="M8 1.33366C8.77663 1.33366 9.04779 1.33818 9.25977 1.38933C9.95597 1.55735 10.509 2.08474 10.71 2.77214C10.7711 2.98145 10.7892 3.2522 10.8262 4.028L11.1436 10.7028C11.229 12.4978 9.79703 13.9997 8 13.9997C6.20297 13.9997 4.77097 12.4978 4.85645 10.7028L5.17383 4.028C5.21077 3.2522 5.22885 2.98145 5.29004 2.77214C5.49103 2.08474 6.04403 1.55735 6.74023 1.38933C6.95221 1.33818 7.22337 1.33366 8 1.33366Z" stroke="#262626" stroke-width="1.33333"/>
</svg>
