<svg width="24" height="24" viewBox="0 0 24 24" fill="none" xmlns="http://www.w3.org/2000/svg">
<path fill-rule="evenodd" clip-rule="evenodd" d="M10.7545 23H13.2455C15.9648 23 17.3245 23 18.3179 22.3553C18.7484 22.0759 19.1212 21.7162 19.4158 21.2959C20.0955 20.3262 20.144 18.9674 20.2411 16.2498C20.3446 13.3505 20.3964 11.9009 19.7292 10.8525C19.4407 10.3992 19.0639 10.0086 18.6212 9.70417C17.5973 9 16.1467 9 13.2455 9H10.7545C7.8533 9 6.40272 9 5.3788 9.70417C4.93608 10.0086 4.55924 10.3992 4.27077 10.8525C3.6036 11.9009 3.65537 13.3505 3.75892 16.2498C3.85597 18.9674 3.9045 20.3262 4.58421 21.2959C4.87883 21.7162 5.25158 22.0759 5.68213 22.3553C6.67548 23 8.03514 23 10.7545 23ZM12.9995 16.2327C13.5976 15.887 14 15.2405 14 14.5C14 13.3954 13.1046 12.5 12 12.5C10.8954 12.5 10 13.3954 10 14.5C10 15.2401 10.402 15.8863 10.9995 16.2322V19C10.9995 19.5523 11.4472 20 11.9995 20C12.5518 20 12.9995 19.5523 12.9995 19V16.2327Z" fill="#262626"/>
<path d="M7.76104 6.0419C7.81646 4.87821 7.84279 4.47222 7.93456 4.15826C8.23601 3.12706 9.06586 2.33578 10.1102 2.08373C10.4282 2.00699 10.835 2 12 2C13.165 2 13.5718 2.00699 13.8898 2.08373C14.9341 2.33578 15.764 3.12706 16.0654 4.15826C16.1572 4.47222 16.1835 4.87821 16.239 6.04191L16.7157 16.0544C16.844 18.7469 14.6956 21 12 21C9.30445 21 7.15604 18.7469 7.28426 16.0544L7.76104 6.0419Z" stroke="#262626" stroke-width="2"/>
</svg>
