<svg width="40" height="40" viewBox="0 0 40 40" fill="none" xmlns="http://www.w3.org/2000/svg">
<path d="M30.5516 27.2893C30.8768 26.9172 31.2095 26.6443 31.5484 26.3998C31.6596 26.3196 31.7913 26.2299 31.9323 26.1339C32.2416 25.9232 32.5958 25.6821 32.8768 25.4433C33.3535 25.0382 33.7825 24.5289 34.0774 23.7775C34.363 23.05 34.5002 22.1532 34.5002 21C34.5002 14.3425 32.3343 8.04994 27.5558 4.51531C26.5766 3.79098 25.2737 4.21646 24.7782 5.20753C24.5952 5.57344 24.5 5.97691 24.5 6.38601V24V35C24.5 36.1043 25.395 37 26.4998 37H26.5055H26.5112H26.5168H26.5225H26.5282H26.5339H26.5396H26.5452H26.5509H26.5566H26.5623H26.568H26.5737H26.5794H26.5851H26.5908H26.5965H26.6022H26.6079H26.6136H26.6194H26.6251H26.6308H26.6365H26.6422H26.648H26.6537H26.6594H26.6651H26.6709H26.6766H26.6823H26.6881H26.6938H26.6996H26.7053H26.711H26.7168H26.7225H26.7283H26.734H26.7398H26.7456H26.7513H26.7571H26.7628H26.7686H26.7744H26.7801H26.7859H26.7917H26.7975H26.8032H26.809H26.8148H26.8206H26.8263H26.8321H26.8379H26.8437H26.8495H26.8553H26.8611H26.8669H26.8727H26.8785H26.8843H26.8901H26.8959H26.9017H26.9075H26.9133H26.9191H26.9249H26.9307H26.9365H26.9423H26.9482H26.954H26.9598H26.9656H26.9714H26.9773H26.9831H26.9889H26.9947H27.0006H27.0064H27.0122H27.0181H27.0239H27.0298H27.0356H27.0414H27.0473H27.0531H27.059H27.0648H27.0707H27.0765H27.0824H27.0882H27.0941H27.0999H27.1058H27.1116H27.1175H27.1233H27.1292H27.1351H27.1409H27.1468H27.1527H27.1585H27.1644H27.1703H27.1761H27.182H27.1879H27.1938H27.1996H27.2055H27.2114H27.2173H27.2232H27.229H27.2349H27.2408H27.2467H27.2526H27.2585H27.2643H27.2702H27.2761H27.282H27.2879H27.2938H27.2997H27.3056H27.3115H27.3174H27.3233H27.3292H27.3351H27.341H27.3469H27.3528H27.3587H27.3646H27.3705H27.3764H27.3823H27.3882H27.3942H27.4001H27.406H27.4119H27.4178H27.4237H27.4296H27.4356H27.4415H27.4474H27.4533H27.4592H27.4651H27.4711H27.477H27.4829H27.4888H27.4948H27.5007H27.5066H27.5125H27.5185H27.5244H27.5303H27.5362H27.5422H27.5481H27.554H27.56H27.5659H27.5718H27.5778H27.5837H27.5896H27.5956H27.6015H27.6075H27.6134H27.6193H27.6253H27.6312H27.6371H27.6431H27.649H27.655H27.6609H27.6668H27.6728H27.6787H27.6847H27.6906H27.6966H27.7025H27.7085H27.7144H27.7204H27.7263H27.7322H27.7382H27.7441H27.7501H27.756H27.762H27.7679H27.7739H27.7798H27.7858H27.7917H27.7977H27.8036H27.8096H27.8155H27.8215H27.8274H27.8334H27.8394H27.8453H27.8513H27.8572H27.8632H27.8691H27.8751H27.881H27.887H27.8929H27.8989H27.9048H27.9108H27.9168H27.9227H27.9287H27.9346H27.9406H27.9465H27.9525H27.9584H27.9644H27.9704H27.9763H27.9823H27.9882H27.9942H28.0001H28.0061H28.0121H28.018H28.024H28.0299H28.0359H28.0418H28.0478H28.0537H28.0597H28.0657H28.0716H28.0776H28.0835H28.0895H28.0954H28.1014H28.1073H28.1133H28.1193H28.1252H28.1312H28.1371H28.1431H28.149H28.155H28.1609H28.1669H28.1728H28.1788H28.1847H28.1907H28.1966H28.2026H28.2085H28.2145H28.2204H28.2264H28.2323H28.2383H28.2442H28.2502H28.2561H28.2621H28.268H28.274H28.2799H28.2859H28.2918H28.2978H28.3037H28.3097H28.3156H28.3215H28.3275H28.3334H28.3394H28.3453H28.3513H28.3572H28.3631H28.3691H28.375H28.3809H28.3869H28.3928H28.3988H28.4047H28.4106H28.4166H28.4225H28.4284H28.4344H28.4403H28.4462H28.4522H28.4581H28.464H28.47H28.4759H28.4818H28.4877H28.4937H28.4996H28.5055H28.5114H28.5174H28.5233H28.5292H28.5351H28.541H28.547H28.5529H28.5588H28.5647H28.5706H28.5765H28.5825H28.5884H28.5943H28.6002H28.6061H28.612H28.6179H28.6238H28.6297H28.6356H28.6416H28.6475H28.6534H28.6593H28.6652H28.6711H28.677H28.6829H28.6888H28.6947H28.7006H28.7064H28.7123H28.7182H28.7241H28.73H28.7359H28.7418H28.7477H28.7536H28.7594H28.7653H28.7712H28.7771H28.783H28.7889H28.7947H28.8006H28.8065H28.8124H28.8182H28.8241H28.83H28.8358H28.8417H28.8476H28.8534H28.8593H28.8652H28.871H28.8769H28.8828H28.8886H28.8945H28.9003H28.9062H28.912H28.9179H28.9237H28.9296H28.9354H28.9413H28.9471H28.953H28.9588H28.9646H28.9705H28.9763H28.9822H28.988H28.9938H28.9997H29.0055H29.0113H29.0171H29.023H29.0288H29.0346H29.0404H29.0462H29.0521H29.0579H29.0637H29.0695H29.0753H29.0811H29.0869H29.0927H29.0986H29.1044H29.1102H29.116H29.1218H29.1276H29.1333H29.1391H29.1449H29.1507H29.1565H29.1623H29.1681H29.1739H29.1796H29.1854H29.1912H29.197H29.2028H29.2085H29.2143H29.2201H29.2258H29.2316H29.2374H29.2431H29.2489H29.2546H29.2604H29.2661H29.2719H29.2777H29.2834H29.2891H29.2949H29.3006H29.3064H29.3121H29.3178H29.3236H29.3293H29.335H29.3408H29.3465H29.3522H29.358H29.3637H29.3694H29.3751H29.3808H29.3865H29.3922H29.398H29.4037H29.4094H29.4151H29.4208H29.4265H29.4322H29.4379H29.4435H29.4492H29.4549H29.4606H29.4663H29.472H29.4776H29.4833H29.489H29.4947H29.5003C30.5927 37 31.5311 36.1042 31.4712 34.9488C31.3751 33.0949 31.0413 30.7182 30.5516 27.2893Z" fill="#99BBFF" stroke="white" stroke-width="2"/>
<mask id="path-2-outside-1_7710_28748" maskUnits="userSpaceOnUse" x="4.67578" y="3" width="17" height="35" fill="black">
<rect fill="white" x="4.67578" y="3" width="17" height="35"/>
<path fill-rule="evenodd" clip-rule="evenodd" d="M13.524 5C13.7907 5 14.0105 5.2094 14.0234 5.47583L14.5304 15.953C15.3923 15.7629 16.0496 15.0161 16.0954 14.0999L16.4766 6.47503C16.4899 6.20893 16.7096 6 16.976 6H18.0374C18.2986 6 18.5158 6.20115 18.5359 6.46165L19.3131 16.566C19.4281 18.0605 18.6979 19.4938 17.4213 20.2794L17.1932 20.4198C16.4399 20.8834 15.629 21.2111 14.7942 21.4031L15.4498 34.9517C15.4774 35.5223 15.0223 36 14.451 36H11.5499C10.9787 36 10.5235 35.5223 10.5511 34.9517L11.2067 21.4031C10.3718 21.2112 9.56089 20.8834 8.8076 20.4198L8.57943 20.2794C7.30287 19.4938 6.57264 18.0605 6.6876 16.566L7.46486 6.46165C7.4849 6.20115 7.70212 6 7.96339 6H9.02475C9.29119 6 9.51082 6.20893 9.52413 6.47503L9.90537 14.0999C9.95118 15.0161 10.6085 15.7629 11.4704 15.9531L11.9773 5.47583C11.9902 5.2094 12.21 5 12.4768 5H13.524Z"/>
</mask>
<path fill-rule="evenodd" clip-rule="evenodd" d="M13.524 5C13.7907 5 14.0105 5.2094 14.0234 5.47583L14.5304 15.953C15.3923 15.7629 16.0496 15.0161 16.0954 14.0999L16.4766 6.47503C16.4899 6.20893 16.7096 6 16.976 6H18.0374C18.2986 6 18.5158 6.20115 18.5359 6.46165L19.3131 16.566C19.4281 18.0605 18.6979 19.4938 17.4213 20.2794L17.1932 20.4198C16.4399 20.8834 15.629 21.2111 14.7942 21.4031L15.4498 34.9517C15.4774 35.5223 15.0223 36 14.451 36H11.5499C10.9787 36 10.5235 35.5223 10.5511 34.9517L11.2067 21.4031C10.3718 21.2112 9.56089 20.8834 8.8076 20.4198L8.57943 20.2794C7.30287 19.4938 6.57264 18.0605 6.6876 16.566L7.46486 6.46165C7.4849 6.20115 7.70212 6 7.96339 6H9.02475C9.29119 6 9.51082 6.20893 9.52413 6.47503L9.90537 14.0999C9.95118 15.0161 10.6085 15.7629 11.4704 15.9531L11.9773 5.47583C11.9902 5.2094 12.21 5 12.4768 5H13.524Z" fill="#99BBFF"/>
<path d="M14.0234 5.47583L16.0211 5.37916V5.37916L14.0234 5.47583ZM14.5304 15.953L12.5328 16.0497L12.6473 18.4167L14.9614 17.9061L14.5304 15.953ZM16.0954 14.0999L14.0979 14V14L16.0954 14.0999ZM16.4766 6.47503L18.4741 6.57491L18.4741 6.5749L16.4766 6.47503ZM18.5359 6.46165L20.53 6.30826V6.30826L18.5359 6.46165ZM19.3131 16.566L17.319 16.7194V16.7194L19.3131 16.566ZM17.4213 20.2794L18.4695 21.9827L18.4695 21.9827L17.4213 20.2794ZM17.1932 20.4198L16.145 18.7165L16.145 18.7165L17.1932 20.4198ZM14.7942 21.4031L14.346 19.4539L12.7156 19.8288L12.7965 21.4998L14.7942 21.4031ZM15.4498 34.9517L17.4475 34.855V34.855L15.4498 34.9517ZM10.5511 34.9517L8.55344 34.855L10.5511 34.9517ZM11.2067 21.4031L13.2043 21.4998L13.2852 19.8288L11.6548 19.454L11.2067 21.4031ZM8.8076 20.4198L9.85579 18.7165L9.85579 18.7165L8.8076 20.4198ZM8.57943 20.2794L7.53124 21.9827L7.53124 21.9827L8.57943 20.2794ZM6.6876 16.566L8.68171 16.7194L6.6876 16.566ZM7.46486 6.46165L5.47075 6.30826L7.46486 6.46165ZM9.52413 6.47503L7.52662 6.57491L7.52662 6.57491L9.52413 6.47503ZM9.90537 14.0999L7.90786 14.1997L9.90537 14.0999ZM11.4704 15.9531L11.0395 17.9061L13.3535 18.4166L13.4681 16.0497L11.4704 15.9531ZM11.9773 5.47583L9.97969 5.37917V5.37917L11.9773 5.47583ZM16.0211 5.37916C15.9566 4.04699 14.8577 3 13.524 3V7C12.7237 7 12.0644 6.37181 12.0257 5.57251L16.0211 5.37916ZM16.5281 15.8564L16.0211 5.37916L12.0257 5.5725L12.5328 16.0497L16.5281 15.8564ZM14.9614 17.9061C16.6854 17.5256 18.0012 16.0343 18.0929 14.1997L14.0979 14C14.0978 14.002 14.0976 14.0025 14.0977 14.002C14.0978 14.0016 14.098 14.0008 14.0983 14.0001C14.0989 13.9986 14.0993 13.9985 14.0986 13.9992C14.0978 14.0002 14.0969 14.0008 14.0966 14.001C14.0966 14.001 14.0968 14.0009 14.0974 14.0007C14.098 14.0004 14.0987 14.0002 14.0994 14L14.9614 17.9061ZM18.0929 14.1998L18.4741 6.57491L14.4791 6.37516L14.0979 14L18.0929 14.1998ZM18.4741 6.5749C18.4342 7.37322 17.7753 8 16.976 8V4C15.6438 4 14.5456 5.04464 14.4791 6.37516L18.4741 6.5749ZM16.976 8H18.0374V4H16.976V8ZM18.0374 8C17.2536 8 16.6019 7.39654 16.5418 6.61505L20.53 6.30826C20.4298 5.00577 19.3437 4 18.0374 4V8ZM16.5418 6.61504L17.319 16.7194L21.3073 16.4126L20.53 6.30826L16.5418 6.61504ZM17.319 16.7194C17.3765 17.4666 17.0114 18.1833 16.3731 18.5761L18.4695 21.9827C20.3844 20.8044 21.4797 18.6543 21.3073 16.4126L17.319 16.7194ZM16.3731 18.5761L16.145 18.7165L18.2413 22.1231L18.4695 21.9827L16.3731 18.5761ZM16.145 18.7165C15.5795 19.0645 14.9716 19.3101 14.346 19.4539L15.2423 23.3522C16.2863 23.1122 17.3003 22.7023 18.2413 22.1231L16.145 18.7165ZM17.4475 34.855L16.7918 21.3064L12.7965 21.4998L13.4521 35.0483L17.4475 34.855ZM14.451 38C16.1648 38 17.5303 36.5667 17.4475 34.855L13.4521 35.0483C13.4245 34.4778 13.8797 34 14.451 34V38ZM11.5499 38H14.451V34H11.5499V38ZM8.55344 34.855C8.47061 36.5667 9.83608 38 11.5499 38V34C12.1212 34 12.5764 34.4778 12.5488 35.0483L8.55344 34.855ZM9.20901 21.3064L8.55344 34.855L12.5488 35.0483L13.2043 21.4998L9.20901 21.3064ZM11.6548 19.454C11.0292 19.3101 10.4213 19.0645 9.85579 18.7165L7.7594 22.1231C8.7005 22.7023 9.71451 23.1122 10.7585 23.3522L11.6548 19.454ZM9.85579 18.7165L9.62762 18.5761L7.53124 21.9827L7.7594 22.1231L9.85579 18.7165ZM9.62763 18.5761C8.98935 18.1833 8.62423 17.4666 8.68171 16.7194L4.6935 16.4126C4.52105 18.6544 5.6164 20.8044 7.53124 21.9827L9.62763 18.5761ZM8.68171 16.7194L9.45897 6.61505L5.47075 6.30826L4.6935 16.4126L8.68171 16.7194ZM9.45897 6.61505C9.39886 7.39654 8.7472 8 7.96339 8V4C6.65704 4 5.57094 5.00577 5.47075 6.30826L9.45897 6.61505ZM7.96339 8H9.02475V4H7.96339V8ZM9.02475 8C8.22544 8 7.56654 7.37322 7.52662 6.57491L11.5216 6.37516C11.4551 5.04463 10.3569 4 9.02475 4V8ZM7.52662 6.57491L7.90786 14.1997L11.9029 14L11.5216 6.37516L7.52662 6.57491ZM7.90786 14.1997C7.99959 16.0343 9.31545 17.5257 11.0395 17.9061L11.9013 14C11.902 14.0002 11.9027 14.0004 11.9034 14.0007C11.9039 14.0009 11.9042 14.001 11.9041 14.001C11.9038 14.0008 11.9029 14.0002 11.9022 13.9992C11.9015 13.9985 11.9018 13.9986 11.9024 14.0001C11.9027 14.0008 11.9029 14.0016 11.903 14.002C11.9032 14.0025 11.903 14.002 11.9029 14L7.90786 14.1997ZM9.97969 5.37917L9.47273 15.8564L13.4681 16.0497L13.975 5.5725L9.97969 5.37917ZM12.4768 3C11.143 3 10.0441 4.04699 9.97969 5.37917L13.975 5.5725C13.9363 6.3718 13.277 7 12.4768 7V3ZM13.524 3H12.4768V7H13.524V3Z" fill="white" mask="url(#path-2-outside-1_7710_28748)"/>
</svg>
