<svg width="25" height="24" viewBox="0 0 25 24" fill="none" xmlns="http://www.w3.org/2000/svg">
<path fill-rule="evenodd" clip-rule="evenodd" d="M8.51524 2.3052C8.50669 2.13423 8.36558 2 8.1944 2H7.30556C7.13438 2 6.99327 2.13423 6.98472 2.3052L6.63748 9.25H6.53494C5.82528 9.25 5.24998 8.6747 5.24998 7.96504V2.82124C5.24998 2.64382 5.10616 2.5 4.92874 2.5H4.04413C3.87765 2.5 3.73876 2.62718 3.72413 2.79301L3.15066 9.2923C3.05587 10.3666 3.47518 11.4224 4.28123 12.139C4.88127 12.6724 5.64953 12.9762 6.45005 12.9987L6.03371 21.3254C6.01536 21.6924 6.30781 22 6.67524 22H8.82472C9.19215 22 9.4846 21.6924 9.46625 21.3254L9.04992 12.9987C9.85028 12.9761 10.6184 12.6724 11.2184 12.1392C12.0247 11.4225 12.4442 10.3665 12.3494 9.29187L11.7759 2.79301C11.7613 2.62718 11.6224 2.5 11.4559 2.5H10.5713C10.3939 2.5 10.2501 2.64382 10.2501 2.82124V7.96504C10.2501 8.6747 9.67478 9.25 8.96511 9.25H8.86248L8.51524 2.3052ZM18.8183 15.2977C18.7752 15.3302 18.7522 15.3824 18.7562 15.4362L19.1978 21.3093C19.2258 21.6821 18.931 22 18.5572 22H16.3921C16.0373 22 15.75 21.7124 15.75 21.3575V3.2402C15.75 2.78656 16.0063 2.37185 16.412 2.16897C16.622 2.06401 16.8725 2.07428 17.066 2.20712C19.8725 4.13391 21.5 7.64258 21.5 11.5C21.5 13.4017 20.3211 14.2318 19.292 14.9565C19.1285 15.0716 18.9689 15.184 18.8183 15.2977Z" fill="#9FBBFA"/>
</svg>
