<svg width="10" height="4" viewBox="0 0 10 4" fill="none" xmlns="http://www.w3.org/2000/svg">
<path fill-rule="evenodd" clip-rule="evenodd" d="M10 2.14931C10 2.52659 10 2.71523 9.89886 2.84902C9.8811 2.87251 9.86131 2.89438 9.83971 2.91438C9.71664 3.02834 9.52894 3.04711 9.15353 3.08465L7.99307 3.20069C6.59331 3.34067 5.89343 3.41066 5.19136 3.41905C5.06379 3.42058 4.93621 3.42058 4.80864 3.41905C4.10657 3.41066 3.40669 3.34067 2.00692 3.20069L0.846466 3.08465C0.471061 3.04711 0.283359 3.02834 0.160293 2.91438C0.13869 2.89438 0.118896 2.87251 0.101141 2.84902C-2.58161e-08 2.71523 -2.84396e-08 2.52659 -3.36864e-08 2.14931L-3.78395e-08 1.85069C-4.30864e-08 1.47341 -4.57098e-08 1.28477 0.101141 1.15098C0.118896 1.12749 0.13869 1.10562 0.160293 1.08562C0.283359 0.971664 0.471062 0.952893 0.846468 0.915353L2.00693 0.799307C3.40669 0.65933 4.10657 0.589342 4.80864 0.580945C4.93621 0.579419 5.06379 0.579419 5.19136 0.580945C5.89343 0.589342 6.59331 0.65933 7.99307 0.799307L9.15353 0.915353C9.52894 0.952893 9.71664 0.971664 9.83971 1.08562C9.86131 1.10562 9.8811 1.12749 9.89886 1.15098C10 1.28477 10 1.47341 10 1.85069L10 2.14931Z" fill="white"/>
</svg>
