<svg width="24" height="24" viewBox="0 0 24 24" fill="none" xmlns="http://www.w3.org/2000/svg">
<path fill-rule="evenodd" clip-rule="evenodd" d="M8.26536 2.3052C8.25682 2.13423 8.11571 2 7.94452 2H7.05568C6.8845 2 6.74339 2.13423 6.73484 2.3052L6.3876 9.25H6.28507C5.5754 9.25 5.0001 8.6747 5.0001 7.96504V2.82124C5.0001 2.64382 4.85628 2.5 4.67886 2.5H3.79425C3.62777 2.5 3.48888 2.62718 3.47425 2.79301L2.90078 9.2923C2.80599 10.3666 3.2253 11.4224 4.03135 12.139C4.63139 12.6724 5.39966 12.9762 6.20017 12.9987L5.78383 21.3254C5.76548 21.6924 6.05793 22 6.42536 22H8.57484C8.94228 22 9.23472 21.6924 9.21638 21.3254L8.80004 12.9987C9.6004 12.9761 10.3685 12.6724 10.9685 12.1392C11.7748 11.4225 12.1943 10.3665 12.0995 9.29187L11.5261 2.79301C11.5114 2.62718 11.3725 2.5 11.2061 2.5H10.3214C10.144 2.5 10.0002 2.64382 10.0002 2.82124V7.96504C10.0002 8.6747 9.4249 9.25 8.71524 9.25H8.6126L8.26536 2.3052ZM18.5684 15.2977C18.5253 15.3302 18.5023 15.3824 18.5063 15.4362L18.9479 21.3093C18.976 21.6821 18.6811 22 18.3073 22H16.1422C15.7874 22 15.5001 21.7124 15.5001 21.3575V3.2402C15.5001 2.78656 15.7564 2.37185 16.1622 2.16897C16.3721 2.06401 16.6226 2.07428 16.8161 2.20712C19.6226 4.13391 21.2501 7.64258 21.2501 11.5C21.2501 13.4017 20.0712 14.2318 19.0421 14.9565C18.8786 15.0716 18.719 15.184 18.5684 15.2977Z" fill="#9FBBFA"/>
</svg>
