<svg width="24" height="24" viewBox="0 0 24 24" fill="none" xmlns="http://www.w3.org/2000/svg">
<path fill-rule="evenodd" clip-rule="evenodd" d="M21.8679 9.4848L21.6024 15.1488C21.4689 17.9972 21.4022 19.4214 20.5776 20.3666C20.4332 20.5321 20.274 20.684 20.1019 20.8205C19.1192 21.5999 17.6934 21.5999 14.8419 21.5999H9.15823C6.3067 21.5999 4.88093 21.5999 3.89818 20.8205C3.72612 20.684 3.56692 20.5321 3.42255 20.3666C2.59793 19.4214 2.53117 17.9972 2.39766 15.1488L2.13216 9.48481C1.98675 6.3828 1.91405 4.83179 2.73967 3.77872C2.88351 3.59526 3.04483 3.4262 3.22135 3.27393C4.23461 2.3999 5.78732 2.3999 8.89273 2.3999H15.1074C18.2128 2.3999 19.7655 2.3999 20.7787 3.27393C20.9553 3.4262 21.1166 3.59526 21.2604 3.77872C22.0861 4.83179 22.0134 6.3828 21.8679 9.4848ZM17.3101 11.9999C17.6071 11.9999 17.8594 11.7826 17.9034 11.4889L17.906 11.4719C17.9454 11.2092 18.0001 10.8451 18.0001 10.4999C18.0001 7.33359 15.3009 4.79991 12.0001 4.79991C8.70232 4.79991 6.00006 7.29173 6.00006 10.4999C6.00006 10.8451 6.05471 11.2092 6.09415 11.4719L6.0967 11.4889C6.14076 11.7826 6.39306 11.9999 6.69006 11.9999H17.3101Z" fill="#FF8066"/>
<path d="M10.7683 7.49963C10.7859 6.83208 11.3321 6.30005 11.9999 6.30005C12.6677 6.30005 13.2139 6.83208 13.2315 7.49963L13.3144 10.6505C13.3338 11.39 12.7397 12 11.9999 12C11.2601 12 10.666 11.39 10.6854 10.6505L10.7683 7.49963Z" fill="#FF8066"/>
</svg>
