<svg width="16" height="16" viewBox="0 0 16 16" fill="none" xmlns="http://www.w3.org/2000/svg">
<g clip-path="url(#clip0_14548_39477)">
<path fill-rule="evenodd" clip-rule="evenodd" d="M14.9261 11.9261C15.5896 11.2625 16 10.3459 16 9.33333C16 7.9669 15.434 6.64553 14.2504 6.02867L14.2504 6.02865C13.4648 5.61923 13.072 5.41452 12.9825 5.33648C12.911 5.27414 12.8935 5.26381 12.8808 5.24933C12.8681 5.23485 12.8601 5.21622 12.8074 5.13727C12.7416 5.03844 12.6219 4.71225 12.3827 4.05985C11.7278 2.27416 10.0127 1 8 1C6.88112 1 5.85421 1.39377 5.05028 2.05028L14.9261 11.9261ZM2.00888 5.00888L10 13H4V12.9874C1.76252 12.8172 0 10.9477 0 8.66667C0 7.12876 0.801153 5.77797 2.00888 5.00888Z" fill="white"/>
<path fill-rule="evenodd" clip-rule="evenodd" d="M15.5 15.5C15.6363 15.3637 15.7045 15.2955 15.7409 15.222C15.8102 15.0821 15.8102 14.9179 15.7409 14.778C15.7045 14.7045 15.6363 14.6363 15.5 14.5L1.5 0.5C1.36369 0.363688 1.29553 0.295531 1.22201 0.259097C1.08212 0.189777 0.91788 0.189777 0.777992 0.259097C0.704469 0.295531 0.636312 0.363688 0.5 0.5C0.363688 0.636312 0.295531 0.704469 0.259097 0.777992C0.189776 0.917881 0.189776 1.08212 0.259097 1.22201C0.295531 1.29553 0.363688 1.36369 0.5 1.5L14.5 15.5C14.6363 15.6363 14.7045 15.7045 14.778 15.7409C14.9179 15.8102 15.0821 15.8102 15.222 15.7409C15.2955 15.7045 15.3637 15.6363 15.5 15.5Z" fill="white"/>
</g>
<defs>
<clipPath id="clip0_14548_39477">
<rect width="16" height="16" fill="white"/>
</clipPath>
</defs>
</svg>
