<svg width="24" height="24" viewBox="0 0 24 24" fill="none" xmlns="http://www.w3.org/2000/svg">
<path fill-rule="evenodd" clip-rule="evenodd" d="M18.6299 11.7275C18.4767 12.2335 18.4594 12.7788 18.6564 13.2695L19.8548 16.255C20.3823 17.569 19.4147 19 17.9987 19H6.00155C4.58558 19 3.61803 17.569 4.14551 16.255L5.34389 13.2695C5.54087 12.7788 5.52363 12.2335 5.37039 11.7275C5.15196 11.0061 5.03395 10.2365 5.03395 9.4375C5.03395 5.32988 8.15282 2 12.0001 2C15.8475 2 18.9663 5.32988 18.9663 9.4375C18.9663 10.2365 18.8483 11.0061 18.6299 11.7275ZM14.7583 20.7654C14.9932 20.3854 14.6234 20 14.1767 20H12H9.82333C9.37663 20 9.00685 20.3854 9.24177 20.7654C9.39181 21.008 9.61172 21.2285 9.88895 21.4142C10.1662 21.5999 10.4953 21.7472 10.8575 21.8478C11.2197 21.9483 11.608 22 12 22C12.3921 22 12.7803 21.9483 13.1425 21.8478C13.5047 21.7472 13.8339 21.5999 14.1111 21.4142C14.3883 21.2285 14.6082 21.008 14.7583 20.7654Z" fill="#4F8BEC"/>
</svg>
