<svg width="24" height="24" viewBox="0 0 24 24" fill="none" xmlns="http://www.w3.org/2000/svg">
<path fill-rule="evenodd" clip-rule="evenodd" d="M20.5001 20.5C20.6364 20.3637 20.7045 20.2956 20.741 20.2221C20.8103 20.0822 20.8103 19.9179 20.741 19.778C20.7045 19.7045 20.6364 19.6364 20.5001 19.5L12.2501 11.25L4.50008 3.50005C4.36376 3.36373 4.29561 3.29558 4.22208 3.25914C4.0822 3.18982 3.91796 3.18982 3.77807 3.25914C3.70455 3.29558 3.63639 3.36373 3.50008 3.50005C3.36376 3.63636 3.29561 3.70452 3.25917 3.77804C3.18985 3.91793 3.18985 4.08217 3.25917 4.22205C3.29561 4.29558 3.36376 4.36373 3.50008 4.50005L11.2501 12.25L19.5001 20.5C19.6364 20.6364 19.7045 20.7045 19.7781 20.7409C19.918 20.8103 20.0822 20.8103 20.2221 20.7409C20.2956 20.7045 20.3638 20.6364 20.5001 20.5Z" fill="#262626"/>
<path fill-rule="evenodd" clip-rule="evenodd" d="M6.70996 9.83137L4.83146 11.9782C4.28616 12.6014 4.69126 13.5794 5.51752 13.6345L10.8699 13.9913L6.70996 9.83137ZM10.9613 14.0827L7.68153 21.1108C7.57707 21.3346 7.65174 21.6012 7.85728 21.7383L8.47711 22.1515C8.77958 22.3531 9.18311 22.3088 9.43463 22.0464L14.0788 17.2002L10.9613 14.0827ZM17.1338 14.0125L19.002 12.0631C19.592 11.4473 19.1901 10.423 18.3387 10.3729L13.1913 10.0701L17.1338 14.0125ZM12.3567 9.23545L9.6232 6.50196L13.5667 1.99504C13.8146 1.71177 14.234 1.65609 14.5472 1.86488L15.1425 2.26176C15.3481 2.39878 15.4227 2.66538 15.3183 2.88923L12.3567 9.23545Z" fill="#262626"/>
</svg>
