<svg width="40" height="40" viewBox="0 0 40 40" fill="none" xmlns="http://www.w3.org/2000/svg">
<path fill-rule="evenodd" clip-rule="evenodd" d="M21.6687 3.64216C20.8942 2.41583 19.1058 2.41583 18.3313 3.64216C17.5181 4.92975 17.5181 6.57029 18.3313 7.85788C19.1058 9.0842 20.8942 9.0842 21.6687 7.85788C22.4819 6.57029 22.4819 4.92975 21.6687 3.64216ZM21.6687 32.1422C20.8942 30.9158 19.1058 30.9158 18.3313 32.1422C17.5181 33.4297 17.5181 35.0703 18.3313 36.3579C19.1058 37.5842 20.8942 37.5842 21.6687 36.3579C22.4819 35.0703 22.4819 33.4297 21.6687 32.1422ZM29.5 20C29.5 25.2467 25.2467 29.5 20 29.5C14.7533 29.5 10.5 25.2467 10.5 20C10.5 14.7533 14.7533 10.5 20 10.5C25.2467 10.5 29.5 14.7533 29.5 20ZM3.64216 21.6687C2.41583 20.8941 2.41583 19.1057 3.64216 18.3312C4.92975 17.518 6.57029 17.518 7.85788 18.3312C9.0842 19.1057 9.0842 20.8941 7.85788 21.6687C6.57029 22.4819 4.92975 22.4819 3.64216 21.6687ZM32.1422 21.6687C30.9158 20.8941 30.9158 19.1057 32.1422 18.3312C33.4297 17.518 35.0703 17.518 36.3579 18.3312C37.5842 19.1057 37.5842 20.8941 36.3579 21.6687C35.0703 22.4819 33.4297 22.4819 32.1422 21.6687ZM9.61319 7.25332C8.19837 6.93385 6.93379 8.19844 7.25326 9.61325C7.5887 11.0987 8.74873 12.2588 10.2342 12.5942C11.649 12.9137 12.9136 11.6491 12.5942 10.2343C12.2587 8.7488 11.0987 7.58876 9.61319 7.25332ZM29.7657 27.4059C28.3509 27.0864 27.0863 28.351 27.4058 29.7658C27.7412 31.2513 28.9013 32.4113 30.3868 32.7468C31.8016 33.0662 33.0662 31.8016 32.7467 30.3868C32.4113 28.9013 31.2512 27.7413 29.7657 27.4059ZM9.61319 32.7466C8.19838 33.0661 6.93379 31.8015 7.25326 30.3867C7.5887 28.9012 8.74873 27.7412 10.2342 27.4057C11.649 27.0863 12.9136 28.3508 12.5942 29.7657C12.2587 31.2511 11.0987 32.4112 9.61319 32.7466ZM29.7657 12.5941C28.3509 12.9135 27.0863 11.649 27.4058 10.2341C27.7412 8.74865 28.9013 7.58861 30.3868 7.25318C31.8016 6.93371 33.0662 8.19829 32.7467 9.61311C32.4113 11.0986 31.2512 12.2586 29.7657 12.5941Z" fill="#EFCF33"/>
<path d="M15.2271 17.2271C15.2271 16.1225 16.1225 15.2271 17.2271 15.2271C17.2271 16.3316 16.3316 17.2271 15.2271 17.2271Z" stroke="#FFF7B2" stroke-width="3" stroke-linecap="round" stroke-linejoin="round"/>
</svg>
