<svg width="40" height="40" viewBox="0 0 40 40" fill="none" xmlns="http://www.w3.org/2000/svg">
<path d="M16.9313 16.1655C16.9424 17.646 16.7656 18.9718 15.669 19.9634C14.0225 21.4743 10.3148 24.4757 7.51992 26.7137C5.65272 28.2088 5.48994 30.9975 7.18137 32.6889C8.87497 34.3825 11.6678 34.2173 13.1632 32.3463C15.3641 29.5929 18.3133 25.9479 19.9117 24.206C20.9033 23.1095 22.2291 22.9327 23.7096 22.9437C26.1023 22.961 30.5183 21.3776 33.3467 18.5492C34.7001 17.1957 38.2964 13.5994 36.5294 11.8324C35.7456 11.0486 34.4743 11.059 33.7009 11.8324L30.8725 14.6608C30.482 15.0513 29.8488 15.0513 29.4583 14.6608C29.0678 14.2703 29.0678 13.6371 29.4583 13.2466L32.2867 10.4181C33.0657 9.63922 33.0677 8.37071 32.286 7.58902C31.5044 6.80734 30.2358 6.80941 29.4569 7.58833L26.6285 10.4168C26.238 10.8073 25.6048 10.8073 25.2143 10.4168C24.8238 10.0262 24.8238 9.39307 25.2143 9.00254L28.0427 6.17412C28.8161 5.40072 28.8265 4.12945 28.0427 3.34569C26.2756 1.57861 22.6793 5.17491 21.3259 6.52836C18.4975 9.35679 16.9141 13.7728 16.9313 16.1655Z" fill="#FC7059"/>
<path d="M18.0898 23.0422C18.8106 23.2429 19.5591 23.6754 20.0883 24.2045C21.5944 25.8521 24.8033 29.8116 26.8387 32.3535C28.3338 34.2207 31.1225 34.3835 32.8139 32.6921C34.376 31.13 34.3783 28.595 32.8162 27.0329L25.038 19.2548L11.9565 6.17328C10.7191 4.93584 8.59777 5.64295 7.53711 6.70361C4.35513 9.88559 6.37187 14.7308 9.30488 17.6638C11.8964 20.2553 14.1912 21.9565 18.0898 23.0422Z" fill="#3C8AF3"/>
</svg>
