<svg width="16" height="16" viewBox="0 0 16 16" fill="none" xmlns="http://www.w3.org/2000/svg">
<g clip-path="url(#clip0_22307_1461)">
<path fill-rule="evenodd" clip-rule="evenodd" d="M8.84902 3.10114C8.71523 3 8.52659 3 8.14931 3H7.85069C7.47341 3 7.28477 3 7.15098 3.10114C7.12749 3.1189 7.10562 3.13869 7.08562 3.16029C6.97166 3.28336 6.95289 3.47106 6.91535 3.84647L6.79931 5.00693C6.73072 5.69277 6.67894 6.21059 6.64297 6.64297C6.21059 6.67894 5.69277 6.73072 5.00693 6.79931L3.84647 6.91535C3.47106 6.95289 3.28336 6.97166 3.16029 7.08562C3.13869 7.10562 3.1189 7.12749 3.10114 7.15098C3 7.28477 3 7.47341 3 7.85069V8.14931C3 8.52659 3 8.71523 3.10114 8.84902C3.1189 8.87251 3.13869 8.89438 3.16029 8.91438C3.28336 9.02834 3.47106 9.04711 3.84647 9.08465L5.00692 9.20069C5.69277 9.26928 6.21059 9.32106 6.64297 9.35703C6.67894 9.7894 6.73072 10.3072 6.7993 10.9931L6.79931 10.9931L6.91535 12.1535C6.95289 12.5289 6.97166 12.7166 7.08562 12.8397C7.10562 12.8613 7.12749 12.8811 7.15098 12.8989C7.28477 13 7.47341 13 7.85069 13H8.14931C8.52659 13 8.71523 13 8.84902 12.8989C8.87251 12.8811 8.89438 12.8613 8.91438 12.8397C9.02834 12.7166 9.04711 12.5289 9.08465 12.1535L9.20069 10.9931C9.26928 10.3072 9.32106 9.78941 9.35703 9.35703C9.78941 9.32106 10.3072 9.26928 10.9931 9.20069L12.1535 9.08465C12.5289 9.04711 12.7166 9.02834 12.8397 8.91438C12.8613 8.89438 12.8811 8.87251 12.8989 8.84902C13 8.71523 13 8.52659 13 8.14931V7.85069C13 7.47341 13 7.28477 12.8989 7.15098C12.8811 7.12749 12.8613 7.10562 12.8397 7.08562C12.7166 6.97166 12.5289 6.95289 12.1535 6.91535L10.9931 6.79931C10.3072 6.73072 9.78941 6.67894 9.35703 6.64297C9.32106 6.21059 9.26928 5.69277 9.20069 5.00693L9.08465 3.84647C9.04711 3.47106 9.02834 3.28336 8.91438 3.16029C8.89438 3.13869 8.87251 3.1189 8.84902 3.10114Z" fill="#262626" fill-opacity="0.4"/>
</g>
<defs>
<clipPath id="clip0_22307_1461">
<rect width="16" height="16" fill="white"/>
</clipPath>
</defs>
</svg>
