<svg width="16" height="16" viewBox="0 0 16 16" fill="none" xmlns="http://www.w3.org/2000/svg">
<g clip-path="url(#clip0_21232_33380)">
<rect width="16" height="16" rx="4" fill="#262626"/>
<g clip-path="url(#clip1_21232_33380)">
<path fill-rule="evenodd" clip-rule="evenodd" d="M13 8.14931C13 8.52659 13 8.71523 12.8989 8.84902C12.8811 8.87251 12.8613 8.89438 12.8397 8.91438C12.7166 9.02834 12.5289 9.04711 12.1535 9.08465L10.9931 9.20069C9.59331 9.34067 8.89343 9.41066 8.19136 9.41905C8.06379 9.42058 7.93621 9.42058 7.80864 9.41905C7.10657 9.41066 6.40669 9.34067 5.00692 9.20069L3.84647 9.08465C3.47106 9.04711 3.28336 9.02834 3.16029 8.91438C3.13869 8.89438 3.1189 8.87251 3.10114 8.84902C3 8.71523 3 8.52659 3 8.14931L3 7.85069C3 7.47341 3 7.28477 3.10114 7.15098C3.1189 7.12749 3.13869 7.10562 3.16029 7.08562C3.28336 6.97166 3.47106 6.95289 3.84647 6.91535L5.00693 6.79931C6.40669 6.65933 7.10657 6.58934 7.80864 6.58095C7.93621 6.57942 8.06379 6.57942 8.19136 6.58095C8.89343 6.58934 9.59331 6.65933 10.9931 6.79931L12.1535 6.91535C12.5289 6.95289 12.7166 6.97166 12.8397 7.08562C12.8613 7.10562 12.8811 7.12749 12.8989 7.15098C13 7.28477 13 7.47341 13 7.85069L13 8.14931Z" fill="white"/>
<path fill-rule="evenodd" clip-rule="evenodd" d="M8.14931 3C8.52659 3 8.71523 3 8.84902 3.10114C8.87251 3.1189 8.89438 3.13869 8.91438 3.16029C9.02833 3.28336 9.04711 3.47106 9.08465 3.84647L9.20069 5.00693C9.34067 6.40669 9.41066 7.10657 9.41905 7.80864C9.42058 7.93621 9.42058 8.06379 9.41905 8.19136C9.41066 8.89343 9.34067 9.59331 9.20069 10.9931L9.08465 12.1535C9.04711 12.5289 9.02834 12.7166 8.91438 12.8397C8.89438 12.8613 8.87251 12.8811 8.84902 12.8989C8.71523 13 8.52659 13 8.14931 13L7.85069 13C7.47341 13 7.28477 13 7.15098 12.8989C7.12749 12.8811 7.10562 12.8613 7.08562 12.8397C6.97166 12.7166 6.95289 12.5289 6.91535 12.1535L6.79931 10.9931C6.65933 9.59331 6.58934 8.89343 6.58094 8.19136C6.57942 8.06379 6.57942 7.93621 6.58094 7.80864C6.58934 7.10657 6.65933 6.40669 6.79931 5.00693L6.91535 3.84647C6.95289 3.47106 6.97166 3.28336 7.08562 3.16029C7.10562 3.13869 7.12749 3.1189 7.15098 3.10114C7.28477 3 7.47341 3 7.85069 3L8.14931 3Z" fill="white"/>
</g>
</g>
<defs>
<clipPath id="clip0_21232_33380">
<rect width="16" height="16" rx="4" fill="white"/>
</clipPath>
<clipPath id="clip1_21232_33380">
<rect width="16" height="16" rx="4" fill="white"/>
</clipPath>
</defs>
</svg>
