<svg width="16" height="16" viewBox="0 0 16 16" fill="none" xmlns="http://www.w3.org/2000/svg">
<path fill-rule="evenodd" clip-rule="evenodd" d="M7.99976 15C7.71594 15 7.57403 15 7.46374 14.9411C7.39219 14.903 7.33099 14.848 7.28543 14.7809C7.21519 14.6775 7.20008 14.5364 7.16985 14.2542L6.84321 11.2044C6.68272 9.70601 6.60248 8.95679 6.59288 8.2049C6.59113 8.06829 6.59114 7.93166 6.59289 7.79505C6.60255 7.04315 6.68285 6.29394 6.84345 4.79552L7.17033 1.74559C7.20057 1.46348 7.21569 1.32243 7.28589 1.21905C7.33147 1.15195 7.39268 1.09694 7.46425 1.05877C7.57452 0.999973 7.71638 0.999962 8.0001 0.999939C8.28388 0.999916 8.42577 0.999905 8.53606 1.0587C8.60764 1.09687 8.66887 1.15188 8.71445 1.21899C8.78467 1.32239 8.79978 1.46347 8.83001 1.74563L9.15669 4.79514C9.31722 6.29374 9.39749 7.04304 9.4071 7.79502C9.40885 7.93165 9.40884 8.06829 9.40709 8.20491C9.39743 8.95689 9.31712 9.70619 9.1565 11.2048L8.82965 14.2543C8.79941 14.5364 8.78428 14.6775 8.71405 14.7809C8.66848 14.848 8.60729 14.903 8.53574 14.9412C8.42545 15 8.28355 15 7.99976 15Z" fill="#262626"/>
<path fill-rule="evenodd" clip-rule="evenodd" d="M1.00021 8.0003C1.00021 7.71651 1.00021 7.57461 1.05903 7.46432C1.09719 7.39277 1.15217 7.33158 1.21925 7.28601C1.32264 7.21578 1.46373 7.20065 1.74591 7.17041L4.79452 6.84364C6.29352 6.68297 7.04302 6.60263 7.79521 6.59299C7.93187 6.59124 8.06855 6.59124 8.20522 6.59299C8.9574 6.60262 9.70691 6.68295 11.2059 6.84361L14.2546 7.17037C14.5367 7.2006 14.6777 7.21572 14.7811 7.28593C14.8482 7.3315 14.9032 7.39271 14.9414 7.46429C15.0002 7.57455 15.0002 7.71641 15.0002 8.00013C15.0002 8.28391 15.0002 8.4258 14.9415 8.53609C14.9033 8.60768 14.8483 8.6689 14.7812 8.71448C14.6778 8.7847 14.5367 8.79982 14.2545 8.83004L11.2038 9.15685C9.70579 9.31732 8.95677 9.39756 8.20508 9.40719C8.06851 9.40895 7.93192 9.40895 7.79534 9.4072C7.04365 9.39758 6.29464 9.31736 4.79661 9.15693L1.74598 8.83021C1.46378 8.79998 1.32268 8.78487 1.21927 8.71464C1.15219 8.66907 1.0972 8.60787 1.05904 8.53632C1.00021 8.42603 1.00021 8.28412 1.00021 8.0003Z" fill="#262626"/>
</svg>
