<svg width="16" height="16" viewBox="0 0 16 16" fill="none" xmlns="http://www.w3.org/2000/svg">
<rect width="16" height="16" rx="8" fill="#262626"/>
<path fill-rule="evenodd" clip-rule="evenodd" d="M7.99983 12.6665C7.81062 12.6665 7.71602 12.6665 7.64249 12.6273C7.59479 12.6018 7.55399 12.5652 7.52361 12.5204C7.47679 12.4515 7.46671 12.3574 7.44656 12.1693L7.2288 10.1361C7.12181 9.13718 7.06831 8.6377 7.06191 8.13643C7.06075 8.04536 7.06075 7.95428 7.06192 7.8632C7.06836 7.36194 7.12189 6.86247 7.22896 5.86352L7.44688 3.83023C7.46704 3.64216 7.47712 3.54812 7.52392 3.4792C7.55431 3.43447 7.59512 3.3978 7.64283 3.37235C7.71634 3.33315 7.81091 3.33315 8.00006 3.33313C8.18925 3.33311 8.28384 3.33311 8.35737 3.37231C8.40509 3.39775 8.44591 3.43443 8.47629 3.47917C8.52311 3.54809 8.53318 3.64215 8.55333 3.83026L8.77112 5.86327C8.87814 6.86233 8.93165 7.36186 8.93806 7.86318C8.93923 7.95427 8.93922 8.04536 8.93805 8.13645C8.93162 8.63777 8.87808 9.1373 8.771 10.1364L8.5531 12.1694C8.53293 12.3575 8.52285 12.4515 8.47603 12.5205C8.44565 12.5652 8.40485 12.6018 8.35715 12.6273C8.28363 12.6665 8.18903 12.6665 7.99983 12.6665Z" fill="#EDEDF2"/>
<path fill-rule="evenodd" clip-rule="evenodd" d="M3.3335 7.99965C3.3335 7.81046 3.3335 7.71586 3.37271 7.64233C3.39815 7.59463 3.43481 7.55384 3.47953 7.52346C3.54845 7.47664 3.64251 7.46655 3.83063 7.44639L5.86304 7.22854C6.86237 7.12143 7.36204 7.06787 7.8635 7.06144C7.95461 7.06027 8.04573 7.06027 8.13684 7.06144C8.6383 7.06787 9.13796 7.12142 10.1373 7.22853L12.1697 7.44636C12.3578 7.46652 12.4518 7.4766 12.5208 7.5234C12.5655 7.55378 12.6022 7.59459 12.6276 7.64231C12.6668 7.71582 12.6668 7.81039 12.6668 7.99954C12.6669 8.18873 12.6669 8.28332 12.6277 8.35684C12.6022 8.40457 12.5655 8.44539 12.5208 8.47577C12.4519 8.52259 12.3578 8.53266 12.1697 8.55281L10.1359 8.77068C9.13722 8.87767 8.63787 8.93116 8.13675 8.93758C8.0457 8.93875 7.95464 8.93875 7.86359 8.93758C7.36246 8.93117 6.86312 8.87769 5.86443 8.77074L3.83068 8.55292C3.64254 8.53277 3.54848 8.5227 3.47954 8.47587C3.43482 8.4455 3.39816 8.4047 3.37272 8.357C3.3335 8.28347 3.3335 8.18886 3.3335 7.99965Z" fill="#EDEDF2"/>
</svg>
