<svg width="40" height="40" viewBox="0 0 40 40" fill="none" xmlns="http://www.w3.org/2000/svg">
<g clip-path="url(#clip0_24937_3216)">
<path d="M19.0114 18.9159L7.08435 32.6408C7.51817 34.092 8.89654 35.1103 10.4371 35.1103C11.1077 35.1103 11.6947 34.9455 12.1977 34.6159L26.8682 26.3787L19.0114 18.9159Z" fill="#EA4335"/>
<path d="M33.0713 16.9847L26.7833 13.4408L20.0771 19.9509L26.8674 26.3789L33.1548 22.9177C34.2448 22.3407 34.9995 21.1871 34.9995 19.9509C34.9153 18.7147 34.1613 17.5612 33.0713 16.9847Z" fill="#FBBC04"/>
<path d="M18.9825 21.0215L26.7847 13.4405L12.2818 5.36461C11.7789 5.03503 11.1077 4.87024 10.4371 4.87024C8.84487 4.87024 7.41963 5.94167 7.08435 7.34269L18.9825 21.0215Z" fill="#34A853"/>
<path d="M7.08352 7.34265C7 7.58954 7 7.91971 7 8.24871V31.7352C7 32.0642 7 32.3117 7.08412 32.6413L20.0789 19.9506L7.08352 7.34265Z" fill="#4285F4"/>
</g>
<defs>
<clipPath id="clip0_24937_3216">
<rect width="28" height="30.24" fill="white" transform="translate(7 4.87012)"/>
</clipPath>
</defs>
</svg>
