<svg width="24" height="24" viewBox="0 0 24 24" fill="none" xmlns="http://www.w3.org/2000/svg">
<path fill-rule="evenodd" clip-rule="evenodd" d="M12.075 23C17.1675 23 21 19.246 21 13.6587C21 9.44611 17.1675 1 12.075 1C6.98262 1 3 9.25299 3 13.6587C3 19.246 6.98262 23 12.075 23ZM8.6029 5.36647C8.8471 5.2368 9.12223 5.4043 9.16264 5.67783C9.20211 5.94506 9.22378 6.21983 9.22633 6.49995C9.24418 8.0458 8 11.5001 6.0782 11.5001C5.87555 11.4981 5.68459 11.25 5.68459 11.0001C5.68459 9.00001 7.02164 6.20611 8.6029 5.36647Z" fill="#D2B48C"/>
</svg>
