<svg width="24" height="24" viewBox="0 0 24 24" fill="none" xmlns="http://www.w3.org/2000/svg">
<path fill-rule="evenodd" clip-rule="evenodd" d="M5.47452 19.1019L6.01703 16.9319C6.31532 15.7387 7.23464 14.7996 8.42119 14.476C10.7643 13.837 13.2357 13.837 15.5788 14.476C16.7654 14.7996 17.6847 15.7387 17.983 16.9319L18.5255 19.1019C18.9014 18.7959 19.22 18.4229 19.4641 18C19.661 17.659 19.8198 17.1692 19.9077 16.1993C19.9981 15.2018 20 13.906 20 12C20 10.094 19.9981 8.79815 19.9077 7.80072C19.8198 6.83078 19.661 6.34102 19.4641 6C19.113 5.39192 18.6081 4.88697 18 4.5359C17.659 4.33901 17.1692 4.18023 16.1993 4.09232C15.2018 4.00192 13.906 4 12 4C10.094 4 8.79815 4.00192 7.80072 4.09232C6.83078 4.18023 6.34102 4.33901 6 4.5359C5.39192 4.88697 4.88697 5.39192 4.5359 6C4.33901 6.34102 4.18023 6.83078 4.09232 7.80072C4.00192 8.79815 4 10.094 4 12C4 13.906 4.00192 15.2018 4.09232 16.1993C4.18023 17.1692 4.33901 17.659 4.5359 18C4.78004 18.4229 5.09861 18.7959 5.47452 19.1019ZM2 12C2 8.26154 2 6.3923 2.80385 5C3.33046 4.08788 4.08788 3.33046 5 2.80385C6.3923 2 8.26154 2 12 2C15.7385 2 17.6077 2 19 2.80385C19.9121 3.33046 20.6695 4.08788 21.1962 5C22 6.3923 22 8.26154 22 12C22 15.7385 22 17.6077 21.1962 19C20.6695 19.9121 19.9121 20.6695 19 21.1962C17.6077 22 15.7385 22 12 22C8.26154 22 6.3923 22 5 21.1962C4.08788 20.6695 3.33046 19.9121 2.80385 19C2 17.6077 2 15.7385 2 12ZM14.75 9.22727C14.75 10.7335 13.5188 12.5 12 12.5C10.4812 12.5 9.25 10.7335 9.25 9.22727C9.25 7.72104 10.4812 6.5 12 6.5C13.5188 6.5 14.75 7.72104 14.75 9.22727Z" fill="#262626"/>
</svg>
