<svg width="24" height="24" viewBox="0 0 24 24" fill="none" xmlns="http://www.w3.org/2000/svg">
<path fill-rule="evenodd" clip-rule="evenodd" d="M11.8639 21C11.4809 21 11.2893 21 11.1547 20.8967C11.1311 20.8785 11.1091 20.8583 11.0891 20.8363C10.9749 20.7107 10.959 20.5198 10.9272 20.1381L10.2555 12.0781C10.2525 12.0415 10.251 12.0233 10.2508 12.005C10.2507 12.0017 10.2507 11.9983 10.2508 11.995C10.251 11.9767 10.2525 11.9585 10.2555 11.9219L10.9271 3.86195C10.959 3.48022 10.9749 3.28936 11.089 3.16375C11.109 3.14171 11.131 3.12151 11.1546 3.10339C11.2893 3.00004 11.4808 3.00003 11.8638 3.00001L12.1339 2.99999C12.517 2.99997 12.7085 2.99996 12.8432 3.1033C12.8668 3.12142 12.8888 3.14162 12.9088 3.16366C13.023 3.28927 13.0389 3.48015 13.0707 3.86191L13.7425 11.9219C13.7456 11.9584 13.7471 11.9767 13.7473 11.995C13.7473 11.9983 13.7473 12.0017 13.7473 12.005C13.7471 12.0233 13.7456 12.0416 13.7425 12.0781L13.0709 20.1381C13.039 20.5198 13.0231 20.7107 12.909 20.8363C12.8889 20.8583 12.867 20.8785 12.8434 20.8967C12.7087 21 12.5172 21 12.1341 21L11.8639 21Z" fill="#262626"/>
<path fill-rule="evenodd" clip-rule="evenodd" d="M21.001 11.865C21.001 11.4819 21.001 11.2904 20.8977 11.1557C20.8796 11.1321 20.8594 11.1102 20.8373 11.0901C20.7117 10.976 20.5208 10.96 20.1391 10.9282L12.079 10.2566C12.0425 10.2536 12.0243 10.2521 12.006 10.2519C12.0026 10.2518 11.9993 10.2518 11.996 10.2519C11.9777 10.2521 11.9594 10.2536 11.9229 10.2566L3.86311 10.9281C3.48133 10.9599 3.29045 10.9758 3.16482 11.09C3.14279 11.11 3.12259 11.1319 3.10446 11.1556C3.00112 11.2902 3.00113 11.4818 3.00115 11.8649L3.00117 12.1351C3.00119 12.5182 3.0012 12.7097 3.10455 12.8444C3.12267 12.868 3.14287 12.8899 3.1649 12.91C3.29051 13.0241 3.48137 13.04 3.86309 13.0718L11.9229 13.7436C11.9594 13.7467 11.9777 13.7482 11.996 13.7484C11.9993 13.7484 12.0026 13.7484 12.006 13.7484C12.0243 13.7482 12.0425 13.7467 12.079 13.7436L20.1391 13.0719C20.5208 13.0401 20.7117 13.0242 20.8373 12.9101C20.8593 12.89 20.8795 12.8681 20.8976 12.8445C21.001 12.7098 21.001 12.5183 21.001 12.1352L21.001 11.865Z" fill="#262626"/>
</svg>
