<svg width="33" height="32" viewBox="0 0 33 32" fill="none" xmlns="http://www.w3.org/2000/svg">
<path fill-rule="evenodd" clip-rule="evenodd" d="M17.3443 27.8965C17.2097 27.9999 17.0181 27.9999 16.6351 27.9999L16.3649 27.9999C15.9818 27.9998 15.7903 27.9998 15.6556 27.8965C15.632 27.8784 15.61 27.8582 15.59 27.8361C15.4758 27.7105 15.4599 27.5196 15.4281 27.1379L14.6539 17.846L5.3622 17.0717C4.98047 17.0398 4.78961 17.0239 4.664 16.9098C4.64197 16.8897 4.62177 16.8678 4.60364 16.8442C4.5003 16.7095 4.50029 16.518 4.50026 16.135L4.50024 15.8647C4.50022 15.4816 4.50021 15.29 4.60356 15.1554C4.62168 15.1318 4.64188 15.1098 4.66392 15.0898C4.78953 14.9756 4.98042 14.9597 5.36219 14.9279L14.6539 14.1537L15.4282 4.86195C15.4601 4.48023 15.476 4.28937 15.5901 4.16375C15.6101 4.14172 15.6321 4.12152 15.6557 4.1034C15.7904 4.00005 15.9819 4.00004 16.3649 4.00002L16.6352 4C17.0183 3.99998 17.2098 3.99997 17.3445 4.10331C17.3681 4.12144 17.3901 4.14164 17.4101 4.16367C17.5243 4.28929 17.5402 4.48018 17.572 4.86195L18.3462 14.1537L27.6382 14.9281C28.0199 14.9599 28.2108 14.9758 28.3364 15.09C28.3585 15.11 28.3787 15.1319 28.3968 15.1556C28.5001 15.2902 28.5001 15.4818 28.5001 15.8648L28.5001 16.135C28.5001 16.5181 28.5001 16.7096 28.3967 16.8443C28.3786 16.8679 28.3584 16.8899 28.3364 16.9099C28.2108 17.0241 28.0199 17.04 27.6382 17.0718L18.3462 17.846L17.5718 27.1379C17.54 27.5197 17.5241 27.7106 17.4099 27.8362C17.3899 27.8582 17.368 27.8784 17.3443 27.8965Z" fill="white"/>
</svg>
