<svg width="24" height="24" viewBox="0 0 24 24" fill="none" xmlns="http://www.w3.org/2000/svg">
<path fill-rule="evenodd" clip-rule="evenodd" d="M2 12C2 8.26154 2 6.3923 2.80385 5C3.33046 4.08788 4.08788 3.33046 5 2.80385C6.3923 2 8.26154 2 12 2C15.7385 2 17.6077 2 19 2.80385C19.9121 3.33046 20.6695 4.08788 21.1962 5C22 6.3923 22 8.26154 22 12C22 15.7385 22 17.6077 21.1962 19C20.6695 19.9121 19.9121 20.6695 19 21.1962C17.6077 22 15.7385 22 12 22C8.26154 22 6.3923 22 5 21.1962C4.08788 20.6695 3.33046 19.9121 2.80385 19C2 17.6077 2 15.7385 2 12ZM6.71737 16.6958C6.89285 15.6429 7.60514 14.7579 8.5962 14.3615C10.7812 13.4875 13.2188 13.4875 15.4038 14.3615C16.3949 14.7579 17.1071 15.6429 17.2826 16.6958L17.442 17.6523C17.4724 17.8343 17.332 18 17.1475 18L12 18H6.85253C6.66799 18 6.52762 17.8343 6.55796 17.6523L6.71737 16.6958ZM12 12C13.3807 12 14.5 10.8807 14.5 9.5C14.5 8.11929 13.3807 7 12 7C10.6193 7 9.5 8.11929 9.5 9.5C9.5 10.8807 10.6193 12 12 12Z" fill="#47B25A"/>
</svg>
