<svg width="25" height="24" viewBox="0 0 25 24" fill="none" xmlns="http://www.w3.org/2000/svg">
<mask id="path-1-outside-1_26761_21551" maskUnits="userSpaceOnUse" x="-0.0117188" y="1.25342" width="25" height="21" fill="black">
<rect fill="white" x="-0.0117188" y="1.25342" width="25" height="21"/>
<path d="M17.5414 3.25342C20.4618 3.25347 21.5733 10.7558 21.6977 11.6665C22.5557 12.8538 23.1203 14.1709 22.978 15.5425C22.6798 18.4114 19.6636 20.4339 14.7651 20.4253L10.1147 20.4907C8.9848 20.5432 2.78172 20.2756 2.05414 15.6021C1.77182 13.7857 2.42635 12.3009 3.46039 11.0903C3.99747 9.08624 5.74556 3.2538 7.92914 3.25342C9.97762 3.25341 10.3264 5.31685 10.3676 6.41357C11.6074 5.84492 13.2084 5.53802 13.2084 6.81006C14.003 5.54402 14.6324 5.48008 15.1606 5.77393C15.3173 4.66522 15.8474 3.2536 17.5414 3.25342Z"/>
</mask>
<path d="M17.5414 3.25342C20.4618 3.25347 21.5733 10.7558 21.6977 11.6665C22.5557 12.8538 23.1203 14.1709 22.978 15.5425C22.6798 18.4114 19.6636 20.4339 14.7651 20.4253L10.1147 20.4907C8.9848 20.5432 2.78172 20.2756 2.05414 15.6021C1.77182 13.7857 2.42635 12.3009 3.46039 11.0903C3.99747 9.08624 5.74556 3.2538 7.92914 3.25342C9.97762 3.25341 10.3264 5.31685 10.3676 6.41357C11.6074 5.84492 13.2084 5.53802 13.2084 6.81006C14.003 5.54402 14.6324 5.48008 15.1606 5.77393C15.3173 4.66522 15.8474 3.2536 17.5414 3.25342Z" fill="#C9C9D9"/>
<path d="M17.5414 3.25342L17.5415 1.75342H17.5413L17.5414 3.25342ZM21.6977 11.6665L20.2115 11.8694C20.2448 12.1134 20.3377 12.3455 20.4819 12.5451L21.6977 11.6665ZM22.978 15.5425L24.4699 15.6976L24.47 15.6973L22.978 15.5425ZM14.7651 20.4253L14.7677 18.9253C14.7598 18.9253 14.7519 18.9253 14.744 18.9254L14.7651 20.4253ZM10.1147 20.4907L10.0936 18.9909C10.0774 18.9911 10.0612 18.9916 10.0451 18.9923L10.1147 20.4907ZM2.05414 15.6021L0.571934 15.8324L0.571991 15.8328L2.05414 15.6021ZM3.46039 11.0903L4.60092 12.0646C4.74607 11.8947 4.85141 11.6945 4.90926 11.4786L3.46039 11.0903ZM7.92914 3.25342L7.92913 1.75342H7.92887L7.92914 3.25342ZM10.3676 6.41357L8.86867 6.46993C8.88749 6.97048 9.15493 7.42861 9.58155 7.69111C10.0082 7.95361 10.5377 7.98583 10.993 7.777L10.3676 6.41357ZM13.2084 6.81006L11.7084 6.81011C11.7085 7.47875 12.151 8.06664 12.7936 8.25156C13.4362 8.43647 14.1235 8.17376 14.479 7.6074L13.2084 6.81006ZM15.1606 5.77393L14.4314 7.08474C14.8632 7.32501 15.3858 7.33711 15.8283 7.1171C16.2709 6.89709 16.5767 6.4732 16.6458 5.98383L15.1606 5.77393ZM17.5414 3.25342L17.5414 4.75342C17.5602 4.75342 17.7856 4.75747 18.1882 5.31656C18.5746 5.85305 18.9339 6.6527 19.2441 7.5898C19.8582 9.44516 20.1526 11.4383 20.2115 11.8694L21.6977 11.6665L23.1839 11.4636C23.1184 10.984 22.7949 8.77061 22.0921 6.64713C21.7438 5.5948 21.2698 4.46194 20.6226 3.56327C19.9916 2.68721 18.9829 1.75344 17.5415 1.75342L17.5414 3.25342ZM21.6977 11.6665L20.4819 12.5451C21.2349 13.5871 21.5744 14.5354 21.486 15.3877L22.978 15.5425L24.47 15.6973C24.6662 13.8064 23.8764 12.1205 22.9135 10.7879L21.6977 11.6665ZM22.978 15.5425L21.486 15.3874C21.3925 16.2867 20.8831 17.1259 19.8109 17.7852C18.7106 18.4618 17.0284 18.9293 14.7677 18.9253L14.7651 20.4253L14.7624 21.9253C17.4003 21.9299 19.6754 21.3904 21.3824 20.3407C23.1175 19.2737 24.2652 17.6672 24.4699 15.6976L22.978 15.5425ZM14.7651 20.4253L14.744 18.9254L10.0936 18.9909L10.1147 20.4907L10.1358 21.9906L14.7862 21.9251L14.7651 20.4253ZM10.1147 20.4907L10.0451 18.9923C9.61121 19.0125 7.98751 18.9662 6.4435 18.408C4.91168 17.8542 3.77999 16.9367 3.53628 15.3713L2.05414 15.6021L0.571991 15.8328C1.05586 18.9409 3.38951 20.494 5.42359 21.2293C7.44548 21.9602 9.48827 22.0214 10.1843 21.9891L10.1147 20.4907ZM2.05414 15.6021L3.53634 15.3717C3.33855 14.0992 3.76821 13.0394 4.60092 12.0646L3.46039 11.0903L2.31985 10.1161C1.08448 11.5623 0.205079 13.4722 0.571934 15.8324L2.05414 15.6021ZM3.46039 11.0903L4.90926 11.4786C5.17172 10.4993 5.71773 8.63561 6.44275 7.04148C6.80859 6.23708 7.18391 5.58311 7.53997 5.15365C7.93471 4.67753 8.06965 4.75339 7.9294 4.75342L7.92914 3.25342L7.92887 1.75342C6.69683 1.75363 5.79443 2.55869 5.23048 3.2389C4.62786 3.96576 4.12317 4.89523 3.71191 5.79949C2.88271 7.6227 2.28614 9.67732 2.01151 10.702L3.46039 11.0903ZM7.92914 3.25342L7.92914 4.75342C8.17604 4.75342 8.2909 4.81122 8.3465 4.84765C8.4123 4.89076 8.49366 4.97085 8.5777 5.12837C8.76606 5.48138 8.851 5.99979 8.86867 6.46993L10.3676 6.41357L11.8666 6.35722C11.843 5.73063 11.7329 4.66897 11.2245 3.71608C10.9601 3.22064 10.5676 2.71633 9.99061 2.33828C9.40338 1.95354 8.70647 1.75342 7.92913 1.75342L7.92914 3.25342ZM10.3676 6.41357L10.993 7.777C11.2421 7.66272 11.4977 7.5673 11.7308 7.50346C11.9734 7.437 12.1382 7.41955 12.2227 7.42125C12.3237 7.42329 12.1737 7.4464 11.9786 7.28383C11.8734 7.19617 11.7956 7.08582 11.7501 6.97547C11.7078 6.87273 11.7084 6.80668 11.7084 6.81011L13.2084 6.81006L14.7084 6.81001C14.7084 6.15712 14.4871 5.46914 13.8992 4.97917C13.3651 4.53415 12.7374 4.43102 12.2832 4.42186C11.3915 4.40388 10.4355 4.7322 9.74226 5.05015L10.3676 6.41357ZM13.2084 6.81006L14.479 7.6074C14.6361 7.35709 14.7572 7.21142 14.8364 7.13206C14.9149 7.05333 14.9292 7.06278 14.8724 7.08697C14.8033 7.11641 14.6995 7.13754 14.5853 7.12535C14.483 7.11444 14.4278 7.08277 14.4314 7.08474L15.1606 5.77393L15.8898 4.46311C15.3314 4.15246 14.5495 3.96356 13.6964 4.3271C12.9575 4.64193 12.3974 5.28053 11.9379 6.01271L13.2084 6.81006ZM15.1606 5.77393L16.6458 5.98383C16.7088 5.53851 16.8302 5.193 16.9801 4.99048C17.0446 4.90339 17.1049 4.8552 17.1641 4.82468C17.2214 4.79512 17.3329 4.75344 17.5416 4.75342L17.5414 3.25342L17.5413 1.75342C16.1986 1.75356 15.2033 2.34852 14.5689 3.20547C13.9911 3.98599 13.7691 4.90063 13.6753 5.56402L15.1606 5.77393Z" fill="white" mask="url(#path-1-outside-1_26761_21551)"/>
<path opacity="0.5" d="M17.251 9.99951C19.4601 9.99951 21.251 11.7904 21.251 13.9995C21.2504 16.2081 19.4597 17.9995 17.251 17.9995C15.415 17.9995 14.0096 17.0536 13.3672 16.5669C13.3705 16.5963 13.3745 16.627 13.374 16.6587H13.375C13.3861 17.0068 13.0737 17.4006 12.7217 17.4751C12.4007 17.5428 12.0179 17.4707 11.7988 17.2134C11.6906 17.0864 11.6178 16.9269 11.626 16.7573C11.6298 16.6791 11.6477 16.6042 11.6758 16.5347C11.0538 17.0108 9.6275 17.9995 7.75098 17.9995C5.54224 17.9995 3.7516 16.2081 3.75098 13.9995C3.75098 11.7904 5.54186 9.99953 7.75098 9.99951C9.05047 9.99951 9.86358 10.5231 10.5996 10.9976C11.2084 11.39 11.7655 11.7495 12.501 11.7495C13.2365 11.7495 13.7936 11.39 14.4023 10.9976C15.1384 10.5231 15.9515 9.99952 17.251 9.99951Z" fill="black"/>
<path d="M17.2505 16.75C18.7693 16.75 20.0005 15.5188 20.0005 14C20.0005 12.4812 18.7693 11.25 17.2505 11.25C15.7317 11.25 14.5005 12.4812 14.5005 14C14.5005 15.5188 15.7317 16.75 17.2505 16.75Z" fill="white"/>
<path d="M7.75049 16.75C9.26927 16.75 10.5005 15.5188 10.5005 14C10.5005 12.4812 9.26927 11.25 7.75049 11.25C6.2317 11.25 5.00049 12.4812 5.00049 14C5.00049 15.5188 6.2317 16.75 7.75049 16.75Z" fill="white"/>
<path d="M17.2505 15.8745C18.286 15.8745 19.1255 15.035 19.1255 13.9995C19.1255 12.964 18.286 12.1245 17.2505 12.1245C16.215 12.1245 15.3755 12.964 15.3755 13.9995C15.3755 15.035 16.215 15.8745 17.2505 15.8745Z" fill="#65656D"/>
<path d="M7.75 15.8745C8.78553 15.8745 9.625 15.035 9.625 13.9995C9.625 12.964 8.78553 12.1245 7.75 12.1245C6.71447 12.1245 5.875 12.964 5.875 13.9995C5.875 15.035 6.71447 15.8745 7.75 15.8745Z" fill="#65656D"/>
<path d="M10.25 6.37518C8.625 7.25018 5 9.37518 3.5 10.8752C4.125 8.37518 5.85996 3.72819 7.625 3.37518C9.5 3.00017 10.25 4.87518 10.25 6.37518Z" fill="#65656D"/>
<path d="M15.125 5.62517C16.75 6.50017 20 9.04869 21.5 10.5487C20.875 8.04869 19.89 3.72819 18.125 3.37517C16.25 3.00017 15.5 4.12517 15.125 5.62517Z" fill="#65656D"/>
</svg>
