<svg width="24" height="24" viewBox="0 0 24 24" fill="none" xmlns="http://www.w3.org/2000/svg">
<path fill-rule="evenodd" clip-rule="evenodd" d="M2 12C2 6.47715 6.47715 2 12 2C17.5228 2 22 6.47715 22 12C22 17.5228 17.5228 22 12 22C6.47715 22 2 17.5228 2 12ZM11.2 9.4L8.53333 7.4C8.26667 7.2 8.26667 6.8 8.53333 6.6L11.2 4.6C11.5296 4.35279 12 4.58798 12 5V6C13.1867 6 14.3467 6.35189 15.3334 7.01118C16.3201 7.67047 17.0892 8.60754 17.5433 9.7039C17.9974 10.8003 18.1162 12.0067 17.8847 13.1705C17.6532 14.3344 17.0818 15.4035 16.2426 16.2426C15.4035 17.0818 14.3344 17.6532 13.1705 17.8847C12.0067 18.1162 10.8003 17.9974 9.7039 17.5433C8.60754 17.0892 7.67047 16.3201 7.01118 15.3334C6.35189 14.3467 6 13.1867 6 12C6 11.4477 6.44772 11 7 11C7.55229 11 8 11.4477 8 12C8 12.7911 8.23459 13.5645 8.67412 14.2223C9.11365 14.8801 9.73836 15.3928 10.4693 15.6955C11.2002 15.9983 12.0044 16.0775 12.7804 15.9231C13.5563 15.7688 14.269 15.3878 14.8284 14.8284C15.3878 14.269 15.7688 13.5563 15.9231 12.7804C16.0775 12.0044 15.9983 11.2002 15.6955 10.4693C15.3928 9.73836 14.8801 9.11365 14.2223 8.67412C13.5645 8.2346 12.7911 8 12 8V9C12 9.41202 11.5296 9.64721 11.2 9.4Z" fill="#4F8BEC"/>
</svg>
