<svg width="24" height="24" viewBox="0 0 24 24" fill="none" xmlns="http://www.w3.org/2000/svg">
<path fill-rule="evenodd" clip-rule="evenodd" d="M12.06 16C12.4733 16 12.68 16 12.8187 15.8853C12.8429 15.8652 12.8652 15.8429 12.8853 15.8187C13 15.68 13 15.4733 13 15.06V4C13 3.76751 13 3.65126 12.9744 3.55589C12.9051 3.29707 12.7029 3.09491 12.4441 3.02556C12.3487 3 12.2325 3 12 3C11.7675 3 11.6513 3 11.5559 3.02556C11.2971 3.09491 11.0949 3.29707 11.0256 3.55589C11 3.65126 11 3.76751 11 4V15.06C11 15.4733 11 15.68 11.1147 15.8187C11.1348 15.8429 11.1571 15.8652 11.1813 15.8853C11.32 16 11.5267 16 11.94 16H12.06Z" fill="#262626"/>
<path d="M7.10355 6.60355C6.90829 6.40829 6.90829 6.09171 7.10355 5.89645L11.2929 1.70711C11.6834 1.31658 12.3166 1.31658 12.7071 1.70711L16.8964 5.89645C17.0917 6.09171 17.0917 6.40829 16.8964 6.60355L16.276 7.22395C16.1138 7.38619 15.862 7.41719 15.6652 7.29915L14.3964 6.53782C13.8087 6.18519 13.3214 5.68747 12.9814 5.0924L12 3.375L11.0186 5.0924C10.6786 5.68747 10.1913 6.18519 9.60364 6.53782L8.33476 7.29915C8.13802 7.41719 7.88619 7.38619 7.72395 7.22395L7.10355 6.60355Z" fill="#262626"/>
<path fill-rule="evenodd" clip-rule="evenodd" d="M7.03716 9.99889C7.4495 9.99726 7.65567 9.99645 7.795 10.1112C7.81927 10.1312 7.84176 10.1536 7.86185 10.1778C7.97715 10.3167 7.97715 10.5244 7.97715 10.94V11.06C7.97715 11.472 7.97715 11.678 7.86343 11.8164C7.84347 11.8407 7.82159 11.8628 7.79745 11.8829C7.65992 11.9976 7.45227 11.9992 7.03697 12.0022C6.47494 12.0064 6.03612 12.0183 5.67187 12.0529C5.13867 12.1034 4.87651 12.1947 4.6997 12.3056C4.39212 12.4985 4.14284 12.7715 3.9786 13.0953C3.88419 13.2814 3.81697 13.5507 3.81489 14.0863C3.80704 16.1139 3.89863 18.3152 4.30028 20.3104C4.40953 20.8531 4.54074 21.1174 4.69666 21.2997C4.80367 21.4249 4.92573 21.5363 5.06006 21.6316C5.25579 21.7703 5.53081 21.8771 6.08122 21.9368C6.65205 21.9987 7.39816 22 8.49983 22L15.5003 22.0001C16.6019 22.0001 17.3481 21.9987 17.9189 21.9368C18.4693 21.8772 18.7443 21.7704 18.94 21.6317C19.0744 21.5364 19.1964 21.425 19.3034 21.2998C19.4594 21.1174 19.5906 20.8532 19.6998 20.3105C20.1015 18.3153 20.1931 16.114 20.1852 14.0864C20.1831 13.5508 20.1159 13.2815 20.0215 13.0953C19.8573 12.7715 19.608 12.4986 19.3004 12.3057C19.1236 12.1948 18.8614 12.1035 18.3282 12.0529C17.964 12.0184 17.5252 12.0064 16.9631 12.0023C16.5478 11.9992 16.3402 11.9977 16.2027 11.883C16.1785 11.8628 16.1566 11.8408 16.1367 11.8165C16.023 11.6781 16.023 11.4721 16.023 11.0601V10.9401C16.023 10.5245 16.023 10.3167 16.1383 10.1779C16.1583 10.1537 16.1808 10.1313 16.2051 10.1113C16.3444 9.99652 16.5506 9.99734 16.9629 9.99897C17.482 10.001 18.0012 10.013 18.517 10.0619C19.1925 10.1259 19.8088 10.2638 20.3629 10.6113C20.9781 10.9971 21.4767 11.543 21.8051 12.1906C22.1011 12.7739 22.1826 13.4002 22.1852 14.0786C22.1936 16.2411 22.0889 18.5772 21.6605 20.7052C21.5168 21.4191 21.2886 22.0556 20.8236 22.5995C20.6096 22.8498 20.3654 23.0727 20.0968 23.2632C19.513 23.6771 18.8585 23.8467 18.1345 23.9252C17.4431 24.0001 16.588 24.0001 15.5553 24.0001L8.44481 24C7.41209 24.0001 6.55699 24.0001 5.86565 23.9251C5.14164 23.8466 4.48713 23.677 3.90333 23.2631C3.63466 23.0727 3.39055 22.8497 3.17653 22.5994C2.71147 22.0555 2.48333 21.419 2.33961 20.7051C1.91122 18.5771 1.80653 16.241 1.81491 14.0786C1.81754 13.4001 1.89904 12.7738 2.19496 12.1905C2.52344 11.5429 3.022 10.997 3.63716 10.6112C4.19134 10.2637 4.80763 10.1258 5.48309 10.0618C5.99889 10.0129 6.51812 10.0009 7.03716 9.99889Z" fill="#262626"/>
</svg>
