<svg width="25" height="24" viewBox="0 0 25 24" fill="none" xmlns="http://www.w3.org/2000/svg">
<path fill-rule="evenodd" clip-rule="evenodd" d="M11.0184 4.58906C11.286 4.5173 11.3688 4.20831 11.1729 4.01235C10.6537 3.49297 9.62431 2.62129 8.27155 2.25882C6.91879 1.89635 5.59147 2.13655 4.88213 2.32674C4.61451 2.3985 4.53172 2.70749 4.72761 2.90345C5.24681 3.42283 6.27621 4.29451 7.62897 4.65698C8.98173 5.01945 10.3091 4.77925 11.0184 4.58906ZM12.9948 7.78029C12.8657 8.19859 12.6603 8.70033 12.4359 9.18741L14.7306 3.31878L14.7306 3.31877C14.8578 2.99355 14.9213 2.83094 14.8725 2.68772C14.864 2.66273 14.8531 2.63862 14.84 2.61571C14.7649 2.48437 14.6009 2.42449 14.2729 2.30473L14.0598 2.22695C13.7307 2.1068 13.5662 2.04672 13.4238 2.09911C13.399 2.10825 13.3751 2.11975 13.3525 2.13345C13.2227 2.212 13.167 2.37808 13.0555 2.71024L10.4278 10.5418C10.3167 10.3288 10.2768 10.0757 10.3362 9.81809L10.8981 7.38308C10.1473 6.95237 9.29386 6.68187 8.46809 6.68187C5.69154 6.68187 3.84759 8.97254 3.84766 11.9905C3.84772 14.7323 5.11382 17.7588 6.21767 19.8765C6.34068 20.1125 6.40218 20.2305 6.5465 20.429C7.26151 21.4127 8.80352 21.9841 9.98688 21.7039C10.2257 21.6474 10.4076 21.5746 10.7715 21.4291L10.7715 21.4291L10.7716 21.429L10.7718 21.429C11.0151 21.3316 11.1368 21.283 11.2578 21.245C11.9027 21.0427 12.5941 21.0427 13.2391 21.245C13.3601 21.283 13.4818 21.3316 13.7252 21.429L13.7253 21.4291L13.7254 21.4291C14.0892 21.5746 14.2712 21.6474 14.5101 21.704C15.6934 21.9841 17.2354 21.4127 17.9504 20.4291C18.0947 20.2305 18.1562 20.1125 18.2792 19.8765C19.3831 17.7588 20.6492 14.7323 20.6492 11.9905C20.6492 8.97246 18.8053 6.68187 16.0288 6.68187C14.9717 6.68187 13.8692 7.12513 12.9948 7.78029Z" fill="#FF5533"/>
</svg>
