<svg width="16" height="16" viewBox="0 0 16 16" fill="none" xmlns="http://www.w3.org/2000/svg">
<path fill-rule="evenodd" clip-rule="evenodd" d="M4.30362 1.21878C4.20658 0.926199 3.7923 0.927375 3.69692 1.2205L3.34419 2.30448C3.2642 2.55031 3.12653 2.77344 2.94268 2.9552C2.76034 3.13548 2.53781 3.2699 2.29339 3.3474L1.22426 3.68641C0.930922 3.77943 0.925966 4.19273 1.21699 4.29275L1.83726 4.50594C2.21722 4.63653 2.56289 4.85103 2.84861 5.13351C3.14724 5.42877 3.37217 5.79017 3.5052 6.18849L3.69721 6.76341C3.79403 7.05333 4.20365 7.05461 4.30229 6.76531L4.49478 6.20078C4.63149 5.79983 4.85945 5.4361 5.1607 5.13826C5.45153 4.85072 5.80314 4.63204 6.18965 4.49833L6.78512 4.29232C7.07538 4.19191 7.07036 3.77967 6.77774 3.68635L5.72897 3.3519C5.48027 3.27259 5.25386 3.13557 5.06823 2.95204C4.88266 2.76857 4.74311 2.54383 4.66096 2.29615L4.30362 1.21878ZM10.4847 5.43881C10.3264 4.96164 9.65082 4.96356 9.49526 5.44161L8.92006 7.2093C8.78958 7.61026 8.56504 7.97418 8.26519 8.27063C7.9678 8.56466 7.60485 8.7839 7.2062 8.91031L5.46266 9.46317C4.98427 9.61486 4.97619 10.2889 5.4508 10.452L6.46264 10.7998C7.08223 11.0127 7.6459 11.3625 8.1118 11.8231C8.59877 12.3046 8.96556 12.8939 9.18248 13.5435L9.49568 14.4812C9.65358 14.9541 10.3216 14.9561 10.4825 14.4843L10.7963 13.5639C11.0193 12.9099 11.3911 12.3167 11.8825 11.8309C12.3568 11.3619 12.9303 11.0052 13.5608 10.7871L14.5316 10.4512C15.005 10.2875 14.9968 9.61517 14.5196 9.46298L12.8092 8.91753C12.4036 8.78819 12.0344 8.56474 11.7316 8.26543C11.429 7.96623 11.2014 7.59971 11.0675 7.19579L10.4847 5.43881Z" fill="#262626" fill-opacity="0.4"/>
</svg>
