<svg width="16" height="16" viewBox="0 0 16 16" fill="none" xmlns="http://www.w3.org/2000/svg">
<path fill-rule="evenodd" clip-rule="evenodd" d="M12.8644 14C13.2297 14 13.5837 13.8539 13.8146 13.5708C14.8682 12.2793 15.5 10.6301 15.5 8.83331C15.5 4.69118 12.1421 1.33331 8 1.33331C3.85786 1.33331 0.5 4.69118 0.5 8.83331C0.5 10.6301 1.13182 12.2793 2.1854 13.5708C2.41631 13.8539 2.77033 14 3.13565 14H12.8644ZM9.23421 9.28067C9.18162 9.42581 9.10384 9.56054 9.00444 9.67866C8.06014 10.8008 6.26612 9.76504 6.76579 8.38617C6.81839 8.24103 6.89617 8.10631 6.99556 7.98819L10.5428 3.77287C10.7825 3.48793 11.2381 3.75094 11.1112 4.10106L9.23421 9.28067Z" fill="white"/>
</svg>
