<svg width="24" height="24" viewBox="0 0 24 24" fill="none" xmlns="http://www.w3.org/2000/svg">
<path fill-rule="evenodd" clip-rule="evenodd" d="M18.7453 7.97702C18.6042 7.72621 18.5508 7.4342 18.6151 7.15371L18.9815 5.55607L18.9815 5.55603C19.1515 4.81493 19.2365 4.44438 19.1958 4.10027C19.1507 3.71812 18.9962 3.35711 18.751 3.06055C18.5302 2.79351 18.2035 2.59909 17.5501 2.21025C16.8654 1.80284 16.5231 1.59913 16.1689 1.53447C15.7757 1.46268 15.37 1.51038 15.0041 1.67142C14.6745 1.81646 14.3888 2.094 13.8173 2.64908L12.7655 3.6708C12.5617 3.86875 12.2841 3.9686 12 3.9686C11.7159 3.9686 11.4383 3.86875 11.2345 3.6708L10.1827 2.64908C9.6112 2.094 9.32546 1.81646 8.99592 1.67142C8.63005 1.51038 8.2243 1.46268 7.83105 1.53447C7.47686 1.59913 7.13455 1.80284 6.44993 2.21025C5.7965 2.59909 5.46979 2.79351 5.24899 3.06055C5.00377 3.35711 4.84932 3.71812 4.80416 4.10027C4.76349 4.44438 4.84848 4.81495 5.01846 5.55607L5.3849 7.15371C5.44923 7.4342 5.39576 7.72621 5.25467 7.97702C5.10946 8.23515 4.87793 8.43837 4.59498 8.52586L3.25664 8.9397C2.44525 9.19059 2.03956 9.31604 1.73923 9.55992C1.47565 9.77396 1.2709 10.0516 1.14428 10.3666C1 10.7256 1 11.1503 1 11.9995C1 12.8488 1 13.2735 1.14428 13.6325C1.2709 13.9475 1.47565 14.2251 1.73923 14.4392C2.03956 14.6831 2.44525 14.8085 3.25664 15.0594L4.59471 15.4731C4.87784 15.5607 5.1095 15.764 5.2548 16.0223C5.396 16.2733 5.44952 16.5655 5.38514 16.8462L5.01889 18.443C4.84891 19.1841 4.76392 19.5547 4.80459 19.8988C4.84975 20.281 5.0042 20.642 5.24942 20.9385C5.47022 21.2056 5.79693 21.4 6.45036 21.7888C7.13498 22.1963 7.47729 22.4 7.83148 22.4646C8.22473 22.5364 8.63048 22.4887 8.99635 22.3277C9.32589 22.1826 9.61163 21.9051 10.1831 21.35L11.2352 20.328C11.4388 20.1303 11.7161 20.0305 12 20.0305C12.2839 20.0305 12.5612 20.1303 12.7648 20.328L13.8169 21.35C14.3884 21.9051 14.6741 22.1826 15.0036 22.3277C15.3695 22.4887 15.7753 22.5364 16.1685 22.4646C16.5227 22.4 16.865 22.1963 17.5496 21.7888C18.2031 21.4 18.5298 21.2056 18.7506 20.9385C18.9958 20.642 19.1502 20.281 19.1954 19.8988C19.2361 19.5547 19.1511 19.1841 18.9811 18.443L18.6149 16.8462C18.5505 16.5655 18.604 16.2733 18.7452 16.0223C18.8905 15.764 19.1222 15.5607 19.4053 15.4731L20.7434 15.0594C21.5547 14.8085 21.9604 14.6831 22.2608 14.4392C22.5244 14.2251 22.7291 13.9475 22.8557 13.6325C23 13.2735 23 12.8488 23 11.9995C23 11.1503 23 10.7256 22.8557 10.3666C22.7291 10.0516 22.5244 9.77396 22.2608 9.55992C21.9604 9.31604 21.5547 9.19059 20.7434 8.9397L19.405 8.52586C19.1221 8.43837 18.8905 8.23515 18.7453 7.97702ZM12 14.9996C13.6569 14.9996 15 13.6564 15 11.9996C15 10.3427 13.6569 8.99958 12 8.99958C10.3431 8.99958 9 10.3427 9 11.9996C9 13.6564 10.3431 14.9996 12 14.9996Z" fill="#262626"/>
</svg>
