<svg width="16" height="16" viewBox="0 0 16 16" fill="none" xmlns="http://www.w3.org/2000/svg">
<circle cx="8" cy="8" r="8" fill="#EBF7ED"/>
<path d="M8 1C8 0.447715 8.44946 -0.0064539 8.99743 0.0623925C10.7514 0.282756 12.3936 1.0799 13.6569 2.34315C15.1571 3.84344 16 5.87827 16 8C16 10.1217 15.1571 12.1566 13.6569 13.6569C12.3936 14.9201 10.7514 15.7172 8.99743 15.9376C8.44946 16.0065 8 15.5523 8 15L8 8V1Z" fill="#FFC34D"/>
<path d="M8 1C8 0.447715 7.55054 -0.00645391 7.00257 0.0623925C5.2486 0.282756 3.60639 1.0799 2.34315 2.34315C0.842855 3.84344 1.85488e-07 5.87827 0 8C-1.85488e-07 10.1217 0.842854 12.1566 2.34315 13.6569C3.60639 14.9201 5.2486 15.7172 7.00257 15.9376C7.55054 16.0065 8 15.5523 8 15L8 8V1Z" fill="#47B35A"/>
</svg>
