<svg width="16" height="16" viewBox="0 0 16 16" fill="none" xmlns="http://www.w3.org/2000/svg">
<circle cx="8" cy="8" r="8" fill="#EBF7ED"/>
<path d="M8 1C8 0.447715 8.44945 -0.00644194 8.99742 0.0624157C10.2262 0.216827 11.4072 0.655131 12.4446 1.34824C13.7602 2.22729 14.7855 3.47672 15.391 4.93853C15.9965 6.40034 16.155 8.00887 15.8463 9.56072C15.5376 11.1126 14.7757 12.538 13.6569 13.6569C12.538 14.7757 11.1126 15.5376 9.56072 15.8463C8.00887 16.155 6.40034 15.9965 4.93853 15.391C3.47672 14.7855 2.22729 13.7602 1.34824 12.4446C0.65513 11.4072 0.216827 10.2262 0.0624156 8.99742C-0.00644197 8.44945 0.447715 8 1 8H7C7.55228 8 8 7.55228 8 7V1Z" fill="#47B35A"/>
</svg>
