<svg width="32" height="32" viewBox="0 0 32 32" fill="none" xmlns="http://www.w3.org/2000/svg">
<path fill-rule="evenodd" clip-rule="evenodd" d="M3 8.64C3 6.15996 3 4.91993 3.68846 4.08773C3.8087 3.94238 3.94238 3.8087 4.08773 3.68846C4.91993 3 6.15996 3 8.64 3H9.06C9.47334 3 9.68001 3 9.81871 3.11474C9.84294 3.13478 9.86522 3.15706 9.88526 3.18129C10 3.31999 10 3.52666 10 3.94V4.16047C10 4.53319 10 4.71956 9.90059 4.85265C9.88313 4.87602 9.86366 4.89783 9.84239 4.91781C9.72134 5.03157 9.53616 5.05254 9.1658 5.09449L7.04854 5.33432C6.39281 5.4086 6.06494 5.44574 5.83429 5.63897C5.79353 5.67311 5.75556 5.71045 5.72074 5.75064C5.52369 5.97803 5.48109 6.30523 5.39588 6.95964L5.10659 9.18137C5.05921 9.5453 5.03551 9.72727 4.92204 9.84578C4.90209 9.86662 4.88038 9.88569 4.85714 9.90278C4.72496 10 4.54146 10 4.17446 10H3.94C3.52666 10 3.31999 10 3.18129 9.88526C3.15706 9.86522 3.13478 9.84294 3.11474 9.81871C3 9.68001 3 9.47334 3 9.06V8.64Z" fill="white"/>
<path fill-rule="evenodd" clip-rule="evenodd" d="M3 23.36C3 25.84 3 27.0801 3.68846 27.9123C3.8087 28.0576 3.94238 28.1913 4.08773 28.3115C4.91993 29 6.15996 29 8.64 29H9.06C9.47334 29 9.68001 29 9.81871 28.8853C9.84294 28.8652 9.86522 28.8429 9.88526 28.8187C10 28.68 10 28.4733 10 28.06V27.8395C10 27.4668 10 27.2804 9.90059 27.1474C9.88313 27.124 9.86366 27.1022 9.84239 27.0822C9.72134 26.9684 9.53616 26.9475 9.1658 26.9055L7.04854 26.6657C6.39281 26.5914 6.06494 26.5543 5.83429 26.361C5.79353 26.3269 5.75556 26.2895 5.72074 26.2494C5.52369 26.022 5.48109 25.6948 5.39588 25.0404L5.10659 22.8186C5.05921 22.4547 5.03551 22.2727 4.92204 22.1542C4.90209 22.1334 4.88038 22.1143 4.85714 22.0972C4.72496 22 4.54146 22 4.17446 22H3.94C3.52666 22 3.31999 22 3.18129 22.1147C3.15706 22.1348 3.13478 22.1571 3.11474 22.1813C3 22.32 3 22.5267 3 22.94V23.36Z" fill="white"/>
<path fill-rule="evenodd" clip-rule="evenodd" d="M29 8.64C29 6.15996 29 4.91993 28.3115 4.08773C28.1913 3.94238 28.0576 3.8087 27.9123 3.68846C27.0801 3 25.84 3 23.36 3H22.94C22.5267 3 22.32 3 22.1813 3.11474C22.1571 3.13478 22.1348 3.15706 22.1147 3.18129C22 3.31999 22 3.52666 22 3.94V4.16047C22 4.53319 22 4.71956 22.0994 4.85265C22.1169 4.87602 22.1363 4.89783 22.1576 4.91781C22.2787 5.03157 22.4638 5.05254 22.8342 5.09449L24.9515 5.33432C25.6072 5.4086 25.9351 5.44574 26.1657 5.63897C26.2065 5.67311 26.2444 5.71045 26.2793 5.75064C26.4763 5.97803 26.5189 6.30523 26.6041 6.95964L26.8934 9.18137C26.9408 9.5453 26.9645 9.72727 27.078 9.84578C27.0979 9.86662 27.1196 9.88569 27.1429 9.90278C27.275 10 27.4585 10 27.8255 10H28.06C28.4733 10 28.68 10 28.8187 9.88526C28.8429 9.86522 28.8652 9.84294 28.8853 9.81871C29 9.68001 29 9.47334 29 9.06V8.64Z" fill="white"/>
<path fill-rule="evenodd" clip-rule="evenodd" d="M29 23.36C29 25.84 29 27.0801 28.3115 27.9123C28.1913 28.0576 28.0576 28.1913 27.9123 28.3115C27.0801 29 25.84 29 23.36 29H22.94C22.5267 29 22.32 29 22.1813 28.8853C22.1571 28.8652 22.1348 28.8429 22.1147 28.8187C22 28.68 22 28.4733 22 28.06V27.8395C22 27.4668 22 27.2804 22.0994 27.1474C22.1169 27.124 22.1363 27.1022 22.1576 27.0822C22.2787 26.9684 22.4638 26.9475 22.8342 26.9055L24.9515 26.6657C25.6072 26.5914 25.9351 26.5543 26.1657 26.361C26.2065 26.3269 26.2444 26.2895 26.2793 26.2494C26.4763 26.022 26.5189 25.6948 26.6041 25.0404L26.8934 22.8186C26.9408 22.4547 26.9645 22.2727 27.078 22.1542C27.0979 22.1334 27.1196 22.1143 27.1429 22.0972C27.275 22 27.4585 22 27.8255 22H28.06C28.4733 22 28.68 22 28.8187 22.1147C28.8429 22.1348 28.8652 22.1571 28.8853 22.1813C29 22.32 29 22.5267 29 22.94V23.36Z" fill="white"/>
</svg>
