<svg width="32" height="32" viewBox="0 0 32 32" fill="none" xmlns="http://www.w3.org/2000/svg">
<path d="M22 15.9961C22.8352 16.6243 23.8725 17 25 17C25.3363 17 25.6647 16.9657 25.9824 16.9023C25.9888 16.9714 25.9955 17.041 26.002 17.1113L26.248 19.7939C26.576 23.3712 26.7397 25.1602 25.8252 26.3887C25.6663 26.6021 25.4861 26.7989 25.2881 26.9766C24.1482 27.9995 22.3514 28 18.7588 28H13.2412C9.64857 28 7.85185 27.9995 6.71191 26.9766C6.5139 26.7988 6.3337 26.6021 6.1748 26.3887C5.26023 25.1602 5.42403 23.3713 5.75195 19.7939L5.99805 17.1113C6.00449 17.0411 6.01027 16.9714 6.0166 16.9023C6.33457 16.9658 6.66339 17 7 17C8.12752 17 9.1648 16.6243 10 15.9961C10.8352 16.6243 11.8725 17 13 17C14.1275 17 15.1648 16.6243 16 15.9961C16.8352 16.6243 17.8725 17 19 17C20.1275 17 21.1648 16.6243 22 15.9961ZM21 19.5C20.0654 19.5 19.5981 19.5002 19.25 19.7012C19.022 19.8328 18.8328 20.022 18.7012 20.25C18.5002 20.5981 18.5 21.0654 18.5 22C18.5 22.9346 18.5002 23.4019 18.7012 23.75C18.8328 23.978 19.022 24.1672 19.25 24.2988C19.5981 24.4998 20.0654 24.5 21 24.5C21.9346 24.5 22.4019 24.4998 22.75 24.2988C22.9779 24.1672 23.1672 23.978 23.2988 23.75C23.4998 23.4019 23.5 22.9346 23.5 22C23.5 21.0654 23.4998 20.5981 23.2988 20.25C23.1672 20.022 22.9779 19.8328 22.75 19.7012C22.4019 19.5002 21.9346 19.5 21 19.5ZM16 8C20.0663 8 22.0995 8.00028 23.5312 9.09082C23.7823 9.28205 24.0161 9.49501 24.2295 9.72754C25.1992 10.7846 25.511 12.2827 25.7861 14.8916C25.5353 14.9596 25.2724 15 25 15C23.7541 15 22.6858 14.2404 22.2324 13.1592C22.1929 13.0649 22.1022 13.0001 22 13C21.8977 13 21.8072 13.0649 21.7676 13.1592C21.3142 14.2404 20.2458 14.9999 19 15C17.7541 15 16.6858 14.2404 16.2324 13.1592C16.1929 13.0649 16.1022 13.0001 16 13C15.8977 13 15.8072 13.0649 15.7676 13.1592C15.3142 14.2404 14.2458 14.9999 13 15C11.7541 15 10.6858 14.2404 10.2324 13.1592C10.1929 13.0649 10.1022 13.0001 10 13C9.89772 13 9.80716 13.0649 9.76758 13.1592C9.31419 14.2404 8.24582 14.9999 7 15C6.72731 15 6.46399 14.9598 6.21289 14.8916C6.488 12.2826 6.79976 10.7847 7.76953 9.72754C7.98301 9.49484 8.21754 9.28216 8.46875 9.09082C9.90053 8.00035 11.9337 8 16 8Z" fill="#262626"/>
<path fill-rule="evenodd" clip-rule="evenodd" d="M5.89443 6.21115C6.572 4.85601 7.95705 4 9.47214 4H22.5279C24.043 4 25.428 4.85601 26.1056 6.21114L27.1056 8.21115C27.6938 9.38755 28 10.6847 28 12V12C28 13.6569 26.6569 15 25 15C23.7541 15 22.6856 14.2405 22.2322 13.1593C22.1926 13.0649 22.1023 13 22 13V13C21.8977 13 21.8074 13.0649 21.7678 13.1593C21.3144 14.2405 20.2459 15 19 15C17.7541 15 16.6856 14.2405 16.2322 13.1593C16.1926 13.0649 16.1023 13 16 13V13C15.8977 13 15.8074 13.0649 15.7678 13.1593C15.3144 14.2405 14.2459 15 13 15C11.7541 15 10.6856 14.2405 10.2322 13.1593C10.1926 13.0649 10.1023 13 10 13V13C9.89769 13 9.80737 13.0649 9.7678 13.1593C9.31439 14.2405 8.24589 15 7 15C5.34315 15 4 13.6569 4 12V12C4 10.6847 4.30623 9.38755 4.89443 8.21115L5.89443 6.21115Z" fill="#262626"/>
</svg>
