<svg width="17" height="16" viewBox="0 0 17 16" fill="none" xmlns="http://www.w3.org/2000/svg">
<path d="M8.38281 13.8457C8.33594 13.8457 8.27734 13.8359 8.20703 13.8164C8.13672 13.7969 8.06445 13.7676 7.99023 13.7285C7.1582 13.2598 6.45508 12.8438 5.88086 12.4805C5.31055 12.1172 4.85156 11.7656 4.50391 11.4258C4.15625 11.0859 3.9043 10.7188 3.74805 10.3242C3.5918 9.92969 3.51367 9.46484 3.51367 8.92969V4.44727C3.51367 4.13867 3.57812 3.91797 3.70703 3.78516C3.83984 3.64844 4.0293 3.5293 4.27539 3.42773C4.41211 3.36914 4.60156 3.29297 4.84375 3.19922C5.08594 3.10547 5.35352 3.00391 5.64648 2.89453C5.93945 2.78516 6.23047 2.67773 6.51953 2.57227C6.8125 2.46289 7.08008 2.36719 7.32227 2.28516C7.56445 2.19922 7.75586 2.13672 7.89648 2.09766C7.97461 2.07813 8.05469 2.05859 8.13672 2.03906C8.21875 2.01953 8.30078 2.00977 8.38281 2.00977C8.46484 2.00977 8.54688 2.01953 8.62891 2.03906C8.71484 2.05469 8.79688 2.07422 8.875 2.09766C9.01172 2.14453 9.20117 2.21094 9.44336 2.29688C9.68555 2.38281 9.95312 2.47852 10.2461 2.58398C10.5391 2.68945 10.8301 2.79687 11.1191 2.90625C11.4121 3.01172 11.6797 3.11133 11.9219 3.20508C12.1641 3.29492 12.3535 3.36914 12.4902 3.42773C12.7402 3.5332 12.9297 3.65234 13.0586 3.78516C13.1875 3.91797 13.252 4.13867 13.252 4.44727V8.92969C13.252 9.46484 13.1738 9.93164 13.0176 10.3301C12.8652 10.7246 12.6152 11.0918 12.2676 11.4316C11.9199 11.7715 11.459 12.1211 10.8848 12.4805C10.3145 12.8438 9.61133 13.2598 8.77539 13.7285C8.70117 13.7676 8.62891 13.7969 8.55859 13.8164C8.48828 13.8359 8.42969 13.8457 8.38281 13.8457ZM8.38281 12.7852C8.42969 12.7852 8.48047 12.7734 8.53516 12.75C8.58984 12.7305 8.66016 12.6953 8.74609 12.6445C9.42188 12.2344 9.98828 11.8809 10.4453 11.584C10.9062 11.2871 11.2734 11.0059 11.5469 10.7402C11.8242 10.4746 12.0215 10.1836 12.1387 9.86719C12.2598 9.55078 12.3203 9.16602 12.3203 8.71289V4.62891C12.3203 4.53125 12.3066 4.45703 12.2793 4.40625C12.2559 4.35547 12.2051 4.31641 12.127 4.28906C11.9434 4.22656 11.7324 4.1543 11.4941 4.07227C11.2598 3.98633 11.0117 3.89648 10.75 3.80273C10.4922 3.70898 10.2324 3.61523 9.9707 3.52148C9.71289 3.42383 9.4668 3.33203 9.23242 3.24609C8.99805 3.15625 8.79297 3.07617 8.61719 3.00586C8.57031 2.98633 8.52734 2.97266 8.48828 2.96484C8.44922 2.95703 8.41406 2.95312 8.38281 2.95312C8.35156 2.95312 8.31641 2.95703 8.27734 2.96484C8.23828 2.97266 8.19531 2.98633 8.14844 3.00586C7.97266 3.07617 7.76758 3.1543 7.5332 3.24023C7.29883 3.32617 7.05078 3.41602 6.78906 3.50977C6.52734 3.59961 6.26562 3.69141 6.00391 3.78516C5.74219 3.87891 5.49414 3.96875 5.25977 4.05469C5.02539 4.14062 4.82031 4.21875 4.64453 4.28906C4.5625 4.32031 4.50781 4.36133 4.48047 4.41211C4.45703 4.45898 4.44531 4.53125 4.44531 4.62891V8.71289C4.44531 9.16602 4.50586 9.55078 4.62695 9.86719C4.74805 10.1836 4.94531 10.4766 5.21875 10.7461C5.49219 11.0117 5.85742 11.293 6.31445 11.5898C6.77539 11.8828 7.34375 12.2344 8.01953 12.6445C8.10547 12.6953 8.17578 12.7305 8.23047 12.75C8.28516 12.7734 8.33594 12.7852 8.38281 12.7852ZM7.74414 10.4238C7.64648 10.4238 7.55664 10.4023 7.47461 10.3594C7.39648 10.3164 7.32031 10.248 7.24609 10.1543L5.81641 8.39648C5.72656 8.27539 5.68164 8.1543 5.68164 8.0332C5.68164 7.9043 5.72461 7.79492 5.81055 7.70508C5.90039 7.61133 6.00781 7.56445 6.13281 7.56445C6.21484 7.56445 6.28906 7.58203 6.35547 7.61719C6.42578 7.64844 6.49609 7.71094 6.56641 7.80469L7.7207 9.29883L10.1523 5.39648C10.2617 5.2207 10.3984 5.13281 10.5625 5.13281C10.6836 5.13281 10.793 5.17188 10.8906 5.25C10.9883 5.32812 11.0371 5.43164 11.0371 5.56055C11.0371 5.62695 11.0215 5.69336 10.9902 5.75977C10.9629 5.82227 10.9316 5.88086 10.8965 5.93555L8.21875 10.1543C8.10156 10.334 7.94336 10.4238 7.74414 10.4238Z" fill="#262626" fill-opacity="0.4"/>
</svg>
