<svg width="32" height="32" viewBox="0 0 32 32" fill="none" xmlns="http://www.w3.org/2000/svg">
<path d="M27.2436 19.7023L26.9977 17.0201L26.992 16.9581C26.8118 14.9916 26.6687 13.4302 26.4124 12.1989C26.1488 10.9326 25.7448 9.89992 24.9668 9.05191C24.7133 8.77556 24.4357 8.52227 24.1374 8.29503C23.2215 7.59745 22.1545 7.28956 20.867 7.14276C19.6147 6.99997 18.0427 6.99998 16.0621 7L16 7L15.9379 7C13.9573 6.99998 12.3853 6.99997 11.133 7.14276C9.84549 7.28956 8.77846 7.59745 7.86261 8.29503C7.56427 8.52227 7.2867 8.77556 7.03318 9.05191C6.25522 9.89992 5.8512 10.9326 5.58762 12.1989C5.33134 13.4303 5.18823 14.9916 5.00797 16.9582L5.0023 17.0201L4.75643 19.7023L4.75031 19.769C4.59151 21.5012 4.46387 22.8934 4.49811 24.0029C4.53346 25.1483 4.74204 26.1385 5.37284 26.9858C5.57153 27.2527 5.79635 27.4991 6.04398 27.7213C6.83016 28.4268 7.79718 28.7249 8.93462 28.8647C10.0364 29 11.4344 29 13.1738 29H13.2409H18.7591H18.8262C20.5656 29 21.9636 29 23.0654 28.8647C24.2028 28.7249 25.1698 28.4268 25.956 27.7213C26.2036 27.4991 26.4285 27.2527 26.6272 26.9858C27.258 26.1385 27.4665 25.1483 27.5019 24.0029C27.5361 22.8934 27.4085 21.5012 27.2497 19.7691L27.2436 19.7023Z" fill="#BBBCBF" stroke="white" stroke-width="2"/>
<path d="M18.5 22C18.5 21.0654 18.5 20.5981 18.701 20.25C18.8326 20.022 19.022 19.8326 19.25 19.701C19.5981 19.5 20.0654 19.5 21 19.5V19.5C21.9346 19.5 22.4019 19.5 22.75 19.701C22.978 19.8326 23.1674 20.022 23.299 20.25C23.5 20.5981 23.5 21.0654 23.5 22V22C23.5 22.9346 23.5 23.4019 23.299 23.75C23.1674 23.978 22.978 24.1674 22.75 24.299C22.4019 24.5 21.9346 24.5 21 24.5V24.5C20.0654 24.5 19.5981 24.5 19.25 24.299C19.022 24.1674 18.8326 23.978 18.701 23.75C18.5 23.4019 18.5 22.9346 18.5 22V22Z" fill="white"/>
<path d="M28 12C28 13.6569 26.6569 15 25 15C23.3431 15 22 14 22 13L20.5 4H22.5279C24.043 4 25.428 4.85601 26.1056 6.21114L27.1056 8.21115C27.6938 9.38755 28 10.6847 28 12Z" fill="#F7C563"/>
<path d="M19 15C20.6569 15 22 14 22 13L20.5 4H16V13C16 14 17.3431 15 19 15Z" fill="#EF876E"/>
<path d="M13 15C11.3431 15 10 14 10 13L11.5 4H16V13C16 14 14.6569 15 13 15Z" fill="#F7C563"/>
<path d="M4 12C4 13.6569 5.34315 15 7 15C8.65685 15 10 14 10 13L11.5 4H9.47214C7.95705 4 6.572 4.85601 5.89443 6.21114L4.89443 8.21115C4.30623 9.38755 4 10.6847 4 12Z" fill="#EF876E"/>
<mask id="path-7-outside-1_555_58" maskUnits="userSpaceOnUse" x="2" y="2" width="28" height="15" fill="black">
<rect fill="white" x="2" y="2" width="28" height="15"/>
<path fill-rule="evenodd" clip-rule="evenodd" d="M5.89443 6.21115C6.572 4.85601 7.95705 4 9.47214 4H22.5279C24.043 4 25.428 4.85601 26.1056 6.21114L27.1056 8.21115C27.6938 9.38755 28 10.6847 28 12V12C28 13.6569 26.6569 15 25 15C23.7541 15 22.6856 14.2405 22.2322 13.1593C22.1926 13.0649 22.1023 13 22 13V13C21.8977 13 21.8074 13.0649 21.7678 13.1593C21.3144 14.2405 20.2459 15 19 15C17.7541 15 16.6856 14.2405 16.2322 13.1593C16.1926 13.0649 16.1023 13 16 13V13C15.8977 13 15.8074 13.0649 15.7678 13.1593C15.3144 14.2405 14.2459 15 13 15C11.7541 15 10.6856 14.2405 10.2322 13.1593C10.1926 13.0649 10.1023 13 10 13V13C9.89769 13 9.80737 13.0649 9.7678 13.1593C9.31439 14.2405 8.24589 15 7 15C5.34315 15 4 13.6569 4 12V12C4 10.6847 4.30623 9.38755 4.89443 8.21115L5.89443 6.21115Z"/>
</mask>
<path d="M15.7678 13.1593L13.9234 12.3858L15.7678 13.1593ZM16.2322 13.1593L18.0766 12.3858L16.2322 13.1593ZM27.1056 8.21115L25.3167 9.10557L27.1056 8.21115ZM21.7678 13.1593L23.6122 13.9327L21.7678 13.1593ZM9.7678 13.1593L7.92341 12.3858L9.7678 13.1593ZM22.2322 13.1593L24.0766 12.3858L22.2322 13.1593ZM10.2322 13.1593L12.0766 12.3858L10.2322 13.1593ZM22.5279 2H9.47214V6H22.5279V2ZM28.8944 7.31672L27.8944 5.31672L24.3167 7.10557L25.3167 9.10557L28.8944 7.31672ZM25 17C27.7614 17 30 14.7614 30 12H26C26 12.5523 25.5523 13 25 13V17ZM20.3878 13.9327C21.1418 15.7309 22.9204 17 25 17V13C24.5878 13 24.2294 12.7502 24.0766 12.3858L20.3878 13.9327ZM19 17C21.0796 17 22.8582 15.7309 23.6122 13.9327L19.9234 12.3858C19.7706 12.7502 19.4122 13 19 13V17ZM14.3878 13.9327C15.1418 15.7309 16.9204 17 19 17V13C18.5878 13 18.2294 12.7502 18.0766 12.3858L14.3878 13.9327ZM13 17C15.0796 17 16.8582 15.7309 17.6122 13.9327L13.9234 12.3858C13.7706 12.7502 13.4122 13 13 13V17ZM8.3878 13.9327C9.14184 15.7309 10.9204 17 13 17V13C12.5878 13 12.2294 12.7502 12.0766 12.3858L8.3878 13.9327ZM7 17C9.07962 17 10.8582 15.7309 11.6122 13.9327L7.92341 12.3858C7.77063 12.7502 7.41216 13 7 13V17ZM2 12C2 14.7614 4.23858 17 7 17V13C6.44772 13 6 12.5523 6 12H2ZM4.10557 5.31672L3.10557 7.31672L6.68328 9.10557L7.68328 7.10557L4.10557 5.31672ZM6 12C6 10.9952 6.23394 10.0043 6.68328 9.10557L3.10557 7.31672C2.37852 8.77083 2 10.3743 2 12H6ZM16 11C15.0269 11 14.2486 11.6103 13.9234 12.3858L17.6122 13.9327C17.3661 14.5195 16.7685 15 16 15V11ZM18.0766 12.3858C17.7514 11.6104 16.9731 11 16 11V15C15.2315 15 14.6339 14.5195 14.3878 13.9327L18.0766 12.3858ZM25.3167 9.10557C25.7661 10.0043 26 10.9952 26 12H30C30 10.3743 29.6215 8.77083 28.8944 7.31672L25.3167 9.10557ZM22 11C21.0269 11 20.2486 11.6103 19.9234 12.3858L23.6122 13.9327C23.3661 14.5195 22.7685 15 22 15V11ZM10 11C9.02688 11 8.24861 11.6103 7.92341 12.3858L11.6122 13.9327C11.3661 14.5195 10.7685 15 10 15V11ZM9.47214 2C7.1995 2 5.12192 3.28401 4.10557 5.31672L7.68328 7.10557C8.02207 6.428 8.71459 6 9.47214 6V2ZM24.0766 12.3858C23.7514 11.6104 22.9731 11 22 11V15C21.2315 15 20.6339 14.5195 20.3878 13.9327L24.0766 12.3858ZM12.0766 12.3858C11.7514 11.6104 10.9731 11 10 11V15C9.23149 15 8.63387 14.5195 8.3878 13.9327L12.0766 12.3858ZM22.5279 6C23.2854 6 23.9779 6.428 24.3167 7.10557L27.8944 5.31672C26.8781 3.28401 24.8005 2 22.5279 2V6Z" fill="white" mask="url(#path-7-outside-1_555_58)"/>
</svg>
