<svg width="16" height="16" viewBox="0 0 16 16" fill="none" xmlns="http://www.w3.org/2000/svg">
<path d="M9.55961 5.68522C9.75516 5.36988 10.2147 5.36985 10.4102 5.68522L12.0831 8.38444L14.7696 10.0768C15.0806 10.273 15.0806 10.7273 14.7696 10.9235L12.0831 12.6159H12.0821L10.4092 15.3141C10.2137 15.6295 9.75516 15.6295 9.55961 15.3141L7.88578 12.6149H7.88676L5.20024 10.9225C4.88918 10.7263 4.88907 10.2729 5.20024 10.0768L7.88676 8.38444L9.55961 5.68522ZM3.60746 0.685217C3.80297 0.370059 4.26146 0.370192 4.45707 0.685217L5.36821 2.15397L6.83207 3.0778C7.14336 3.27392 7.14336 3.72737 6.83207 3.9235L5.36821 4.84537V4.84635H5.36723L4.4561 6.31412C4.26057 6.6295 3.80202 6.6295 3.60649 6.31412L2.69633 4.84635H2.69731V2.15397L3.60746 0.685217ZM2.69633 4.84537L1.23149 3.92252C0.920339 3.72641 0.920413 3.27299 1.23149 3.07682L2.69633 2.15299V4.84537Z" fill="#262626"/>
</svg>
