<svg width="32" height="32" viewBox="0 0 32 32" fill="none" xmlns="http://www.w3.org/2000/svg">
<path d="M14.1699 4.48144C15.3041 3.8339 16.6959 3.83391 17.8301 4.48144L25.1396 8.65527C26.2901 9.31233 26.9999 10.5355 27 11.8603V20.1377C27 21.4627 26.2903 22.6866 25.1396 23.3437L17.8301 27.5176C16.6959 28.165 15.3041 28.165 14.1699 27.5176L6.86035 23.3437C5.70976 22.6866 5 21.4627 5 20.1377V11.8603C5.00012 10.5355 5.70992 9.31233 6.86035 8.65527L14.1699 4.48144ZM16 12.6152C13.975 12.6152 12.333 14.1303 12.333 15.999C12.3331 17.8677 13.975 19.3828 16 19.3828C18.025 19.3828 19.6669 17.8677 19.667 15.999C19.667 14.1303 18.025 12.6152 16 12.6152Z" fill="#262626"/>
</svg>
