<svg width="16" height="16" viewBox="0 0 16 16" fill="none" xmlns="http://www.w3.org/2000/svg">
<circle cx="8" cy="8" r="8" fill="#EBF7ED"/>
<path d="M8 15C8 15.5523 8.44943 16.0064 8.99741 15.9376C9.70527 15.8486 10.3996 15.6652 11.0615 15.391C12.0321 14.989 12.914 14.3997 13.6569 13.6569C14.3997 12.914 14.989 12.0321 15.391 11.0615C15.7931 10.0909 16 9.05058 16 8C16 6.94943 15.7931 5.90914 15.391 4.93853C14.989 3.96793 14.3997 3.08601 13.6569 2.34315C12.914 1.60028 12.0321 1.011 11.0615 0.608964C10.3996 0.334798 9.70527 0.151368 8.99741 0.0624192C8.44943 -0.0064377 8 0.447715 8 1L8 8L8 15Z" fill="#47B35A"/>
</svg>
