<svg width="67" height="66" viewBox="0 0 67 66" fill="none" xmlns="http://www.w3.org/2000/svg">
<rect x="3.38281" y="3" width="60" height="60" rx="19" fill="#47B25A" stroke="white" stroke-width="6"/>
<path fill-rule="evenodd" clip-rule="evenodd" d="M22.2816 36.2279C21.7371 35.6834 21.4648 35.4111 21.4179 35.072C21.4096 35.0125 21.4066 34.9524 21.409 34.8924C21.4223 34.5504 21.6664 34.2526 22.1547 33.657L22.2855 33.4975C22.8503 32.8084 23.1328 32.4639 23.5101 32.4007C23.5758 32.3897 23.6424 32.3851 23.709 32.3871C24.0915 32.3985 24.4181 32.7014 25.0714 33.3072L29.0537 37L40.8172 23.7528C41.3859 23.1123 41.6703 22.792 42.038 22.7381C42.1021 22.7287 42.167 22.7254 42.2318 22.7283C42.603 22.745 42.9182 23.035 43.5486 23.615L43.7458 23.7965C44.3247 24.3291 44.6141 24.5955 44.6727 24.9386C44.683 24.9987 44.6878 25.0597 44.6872 25.1207C44.6836 25.4688 44.4399 25.7775 43.9524 26.395L32.7255 40.6161C31.5637 42.0877 30.9829 42.8235 30.1989 42.9498C30.0628 42.9718 29.9249 42.9799 29.7872 42.974C28.9938 42.9401 28.3309 42.2772 27.0052 40.9515L22.2816 36.2279Z" fill="white"/>
</svg>
