<svg width="33" height="32" viewBox="0 0 33 32" fill="none" xmlns="http://www.w3.org/2000/svg">
<path fill-rule="evenodd" clip-rule="evenodd" d="M13.25 8.5C13.25 7.09554 13.25 6.39331 13.5871 5.88886C13.733 5.67048 13.9205 5.48298 14.1389 5.33706C14.6433 5 15.3455 5 16.75 5C18.1545 5 18.8567 5 19.3611 5.33706C19.5795 5.48298 19.767 5.67048 19.9129 5.88886C20.25 6.39331 20.25 7.09554 20.25 8.5V23.5C20.25 24.9045 20.25 25.6067 19.9129 26.1111C19.767 26.3295 19.5795 26.517 19.3611 26.6629C18.8567 27 18.1545 27 16.75 27C15.3455 27 14.6433 27 14.1389 26.6629C13.9205 26.517 13.733 26.3295 13.5871 26.1111C13.25 25.6067 13.25 24.9045 13.25 23.5V8.5ZM4.25 19.5C4.25 18.0955 4.25 17.3933 4.58706 16.8889C4.73298 16.6705 4.92048 16.483 5.13886 16.3371C5.64331 16 6.34554 16 7.75 16C9.15446 16 9.85669 16 10.3611 16.3371C10.5795 16.483 10.767 16.6705 10.9129 16.8889C11.25 17.3933 11.25 18.0955 11.25 19.5V23.5C11.25 24.9045 11.25 25.6067 10.9129 26.1111C10.767 26.3295 10.5795 26.517 10.3611 26.6629C9.85669 27 9.15446 27 7.75 27C6.34554 27 5.64331 27 5.13886 26.6629C4.92048 26.517 4.73298 26.3295 4.58706 26.1111C4.25 25.6067 4.25 24.9045 4.25 23.5V19.5ZM22.5871 11.8889C22.25 12.3933 22.25 13.0955 22.25 14.5V23.5C22.25 24.9045 22.25 25.6067 22.5871 26.1111C22.733 26.3295 22.9205 26.517 23.1389 26.6629C23.6433 27 24.3455 27 25.75 27C27.1545 27 27.8567 27 28.3611 26.6629C28.5795 26.517 28.767 26.3295 28.9129 26.1111C29.25 25.6067 29.25 24.9045 29.25 23.5V14.5C29.25 13.0955 29.25 12.3933 28.9129 11.8889C28.767 11.6705 28.5795 11.483 28.3611 11.3371C27.8567 11 27.1545 11 25.75 11C24.3455 11 23.6433 11 23.1389 11.3371C22.9205 11.483 22.733 11.6705 22.5871 11.8889Z" fill="#262626"/>
</svg>
