<svg width="40" height="40" viewBox="0 0 40 40" fill="none" xmlns="http://www.w3.org/2000/svg">
<path d="M17.1668 5.73647C18.5896 3.86008 21.4104 3.86008 22.8332 5.73647L23.565 6.70164C24.3413 7.72546 25.6096 8.2508 26.8825 8.07578L28.0825 7.9108C30.4153 7.59004 32.41 9.58467 32.0892 11.9175L31.9242 13.1175C31.7492 14.3904 32.2745 15.6587 33.2984 16.435L34.2635 17.1668C36.1399 18.5896 36.1399 21.4104 34.2635 22.8332L33.2984 23.565C32.2745 24.3413 31.7492 25.6096 31.9242 26.8825L32.0892 28.0825C32.41 30.4153 30.4153 32.41 28.0825 32.0892L26.8825 31.9242C25.6096 31.7492 24.3413 32.2745 23.565 33.2984L22.8332 34.2635C21.4104 36.1399 18.5896 36.1399 17.1668 34.2635L16.435 33.2984C15.6587 32.2745 14.3904 31.7492 13.1175 31.9242L11.9175 32.0892C9.58466 32.41 7.59004 30.4153 7.9108 28.0825L8.07578 26.8825C8.2508 25.6096 7.72546 24.3413 6.70163 23.565L5.73647 22.8332C3.86008 21.4104 3.86008 18.5896 5.73647 17.1668L6.70164 16.435C7.72546 15.6587 8.2508 14.3904 8.07578 13.1175L7.9108 11.9175C7.59004 9.58467 9.58467 7.59004 11.9175 7.9108L13.1175 8.07578C14.3904 8.2508 15.6587 7.72546 16.435 6.70163L17.1668 5.73647Z" fill="#99BBFF"/>
<circle cx="20" cy="20" r="9.5" fill="#E5EDFF" stroke="#99BBFF"/>
<path d="M15.47 26V23.048L19.97 20.042C20.198 19.886 20.408 19.724 20.6 19.556C20.804 19.376 20.978 19.184 21.122 18.98C21.266 18.776 21.38 18.566 21.464 18.35C21.548 18.122 21.59 17.882 21.59 17.63C21.59 17.354 21.518 17.114 21.374 16.91C21.242 16.694 21.056 16.532 20.816 16.424C20.576 16.316 20.288 16.262 19.952 16.262C19.556 16.262 19.232 16.334 18.98 16.478C18.74 16.61 18.554 16.796 18.422 17.036C18.29 17.264 18.206 17.522 18.17 17.81C18.134 18.086 18.128 18.362 18.152 18.638L15.398 18.278C15.326 17.354 15.464 16.562 15.812 15.902C16.16 15.242 16.694 14.738 17.414 14.39C18.134 14.03 19.01 13.85 20.042 13.85C20.954 13.85 21.74 13.994 22.4 14.282C23.06 14.558 23.57 14.966 23.93 15.506C24.29 16.046 24.47 16.706 24.47 17.486C24.47 18.05 24.38 18.56 24.2 19.016C24.032 19.472 23.798 19.88 23.498 20.24C23.198 20.6 22.85 20.936 22.454 21.248C22.07 21.548 21.662 21.83 21.23 22.094L18.836 23.552V23.66L24.614 23.588V26H15.47Z" fill="#4F8BEC"/>
</svg>
