<svg width="16" height="16" viewBox="0 0 16 16" fill="none" xmlns="http://www.w3.org/2000/svg">
<path d="M8.36035 1C10.8401 1 12.0799 1.00012 12.9121 1.68848C13.0575 1.80872 13.1913 1.94254 13.3115 2.08789C13.9999 2.92006 14 4.15993 14 6.63965V7.12012C14 7.94672 14 8.36031 13.7705 8.6377C13.7305 8.68603 13.686 8.73051 13.6377 8.77051C13.3603 8.99998 12.9467 9 12.1201 9H9.87988C9.05328 9 8.63969 9.00002 8.3623 9.22949C8.31397 9.26949 8.26949 9.31397 8.22949 9.3623C8.00002 9.63969 8 10.0533 8 10.8799V14.6396C8 14.8387 7.83867 15 7.63965 15C5.15993 15 3.92006 14.9999 3.08789 14.3115C2.94254 14.1913 2.80872 14.0575 2.68848 13.9121C2.00012 13.0799 2 11.8401 2 9.36035V6.63965C2 4.15993 2.00012 2.92006 2.68848 2.08789C2.80872 1.94254 2.94254 1.80872 3.08789 1.68848C3.92006 1.00012 5.15993 1 7.63965 1H8.36035ZM12.3096 10C12.9317 10 13.2441 10.75 12.8076 11.1914L13.998 10.001H13.999L9.00098 14.999V14.998L10.1914 13.8076C9.75001 14.2441 9 13.9317 9 13.3096V10.7002C9 10.3136 9.3136 10 9.7002 10H12.3096Z" fill="#262626"/>
</svg>
