<svg width="24" height="24" viewBox="0 0 24 24" fill="none" xmlns="http://www.w3.org/2000/svg">
<path d="M21 9.22453C21 9.63877 20.6635 9.97794 20.2509 9.94111C18.7357 9.80585 17.2926 9.26672 16.1443 8.43538L16.1337 15.0134C16.1325 16.2323 15.7551 17.4218 15.0517 18.4233C14.3483 19.4248 13.3523 20.1907 12.1968 20.6186C11.0412 21.0465 9.78103 21.1162 8.58433 20.8183C7.38764 20.5205 6.31138 19.8693 5.49916 18.9516C4.68694 18.0339 4.1774 16.8934 4.03854 15.6823C3.89967 14.4711 4.13808 13.247 4.72196 12.1731C5.30583 11.0993 6.2074 10.2269 7.30635 9.67227C8.4053 9.11767 9.64937 8.90727 10.8725 9.06914V12.2995C10.2956 12.1311 9.67954 12.1465 9.11187 12.3434C8.5442 12.5402 8.05369 12.9086 7.70992 13.3963C7.36616 13.8839 7.18657 14.4661 7.19665 15.0603C7.20672 15.6544 7.40594 16.2303 7.76606 16.7064C8.12617 17.1824 8.62889 17.5344 9.20291 17.7123C9.77694 17.8903 10.3931 17.8853 10.9641 17.6979C11.5351 17.5106 12.0318 17.1504 12.3839 16.6686C12.736 16.1867 12.9255 15.6076 12.9256 15.0134V2.75C12.9256 2.33579 13.2614 2 13.6756 2H15.5401C15.9544 2 16.2839 2.33797 16.3512 2.74668C16.4095 3.1005 16.5091 3.44732 16.6487 3.78006C16.8853 4.34441 17.2322 4.85718 17.6696 5.28911C18.1069 5.72104 18.6261 6.06367 19.1975 6.29742C19.5373 6.43641 19.8915 6.53529 20.2529 6.59262C20.662 6.65751 20.9998 6.98724 20.9998 7.40144L21 9.22453Z" fill="#262626"/>
</svg>
