<svg width="40" height="40" viewBox="0 0 40 40" fill="none" xmlns="http://www.w3.org/2000/svg">
<g clip-path="url(#clip0_24913_24963)">
<path d="M20.7063 4.02667C22.453 4 24.1863 4.01333 25.9196 4C26.0263 6.04 26.7596 8.12 28.253 9.56C29.7463 11.04 31.853 11.72 33.9063 11.9467V17.32C31.9863 17.2533 30.053 16.8533 28.3063 16.0267C27.5463 15.68 26.8396 15.24 26.1463 14.7867C26.133 18.68 26.1596 22.5733 26.1196 26.4533C26.013 28.32 25.3996 30.1733 24.3196 31.7067C22.573 34.2667 19.5463 35.9333 16.4396 35.9867C14.533 36.0933 12.6263 35.5733 10.9996 34.6133C8.3063 33.0267 6.41297 30.12 6.13297 27C6.1063 26.3333 6.09297 25.6667 6.11964 25.0133C6.35964 22.48 7.61297 20.0533 9.55964 18.4C11.773 16.48 14.8663 15.56 17.7596 16.1067C17.7863 18.08 17.7063 20.0533 17.7063 22.0267C16.3863 21.6 14.8396 21.72 13.6796 22.52C12.8396 23.0667 12.1996 23.9067 11.8663 24.8533C11.5863 25.5333 11.6663 26.28 11.6796 27C11.9996 29.1867 14.1063 31.0267 16.3463 30.8267C17.8396 30.8133 19.2663 29.9467 20.0396 28.68C20.293 28.24 20.573 27.7867 20.5863 27.2667C20.7196 24.88 20.6663 22.5067 20.6796 20.12C20.693 14.7467 20.6663 9.38667 20.7063 4.02667Z" fill="black"/>
</g>
<defs>
<clipPath id="clip0_24913_24963">
<rect width="32" height="32" fill="white" transform="translate(4 4)"/>
</clipPath>
</defs>
</svg>
