<svg width="40" height="40" viewBox="0 0 40 40" fill="none" xmlns="http://www.w3.org/2000/svg">
<path d="M17.1668 5.73647C18.5896 3.86008 21.4104 3.86008 22.8332 5.73647L23.565 6.70164C24.3413 7.72546 25.6096 8.2508 26.8825 8.07578L28.0825 7.9108C30.4153 7.59004 32.41 9.58467 32.0892 11.9175L31.9242 13.1175C31.7492 14.3904 32.2745 15.6587 33.2984 16.435L34.2635 17.1668C36.1399 18.5896 36.1399 21.4104 34.2635 22.8332L33.2984 23.565C32.2745 24.3413 31.7492 25.6096 31.9242 26.8825L32.0892 28.0825C32.41 30.4153 30.4153 32.41 28.0825 32.0892L26.8825 31.9242C25.6096 31.7492 24.3413 32.2745 23.565 33.2984L22.8332 34.2635C21.4104 36.1399 18.5896 36.1399 17.1668 34.2635L16.435 33.2984C15.6587 32.2745 14.3904 31.7492 13.1175 31.9242L11.9175 32.0892C9.58466 32.41 7.59004 30.4153 7.9108 28.0825L8.07578 26.8825C8.2508 25.6096 7.72546 24.3413 6.70163 23.565L5.73647 22.8332C3.86008 21.4104 3.86008 18.5896 5.73647 17.1668L6.70164 16.435C7.72546 15.6587 8.2508 14.3904 8.07578 13.1175L7.9108 11.9175C7.59004 9.58467 9.58467 7.59004 11.9175 7.9108L13.1175 8.07578C14.3904 8.2508 15.6587 7.72546 16.435 6.70163L17.1668 5.73647Z" fill="#FF8066"/>
<circle cx="20" cy="20" r="9.5" fill="#FFC6BA" stroke="#FF8066"/>
<path d="M19.8729 26.252C19.0809 26.252 18.3849 26.174 17.7849 26.018C17.1849 25.862 16.6809 25.634 16.2729 25.334C15.8649 25.034 15.5589 24.656 15.3549 24.2C15.1509 23.744 15.0489 23.216 15.0489 22.616L17.7489 22.076C17.7489 22.352 17.7909 22.61 17.8749 22.85C17.9709 23.078 18.1089 23.276 18.2889 23.444C18.4809 23.612 18.7149 23.744 18.9909 23.84C19.2789 23.936 19.6089 23.984 19.9809 23.984C20.3769 23.984 20.7249 23.93 21.0249 23.822C21.3249 23.702 21.5589 23.522 21.7269 23.282C21.8949 23.042 21.9789 22.742 21.9789 22.382C21.9789 21.902 21.8169 21.512 21.4929 21.212C21.1809 20.9 20.6769 20.696 19.9809 20.6C19.2969 20.492 18.4089 20.498 17.3169 20.618V18.926L20.9169 16.568V16.478L15.6609 16.496V14.102H24.2289V16.496L20.4129 19.088V19.196C21.4809 19.136 22.3449 19.256 23.0049 19.556C23.6769 19.856 24.1689 20.276 24.4809 20.816C24.8049 21.344 24.9669 21.938 24.9669 22.598C24.9669 23.342 24.7749 23.984 24.3909 24.524C24.0189 25.064 23.4549 25.49 22.6989 25.802C21.9549 26.102 21.0129 26.252 19.8729 26.252Z" fill="#ED6142"/>
</svg>
