<svg width="24" height="24" viewBox="0 0 24 24" fill="none" xmlns="http://www.w3.org/2000/svg">
<path fill-rule="evenodd" clip-rule="evenodd" d="M13.3451 1.23618C12.7949 0.121307 11.2051 0.121307 10.6549 1.23618L7.95898 6.6987L7.9575 6.69892L7.95839 6.70008C7.35364 7.97663 6.76233 9.27781 6.29734 10.415C6.13759 10.8057 5.55414 10.7363 5.52303 10.3154C5.44235 9.22388 5.41363 8.09067 5.41096 7.06895L1.93072 7.57466C0.700386 7.75344 0.209122 9.2654 1.0994 10.1332L5.46149 14.3852L4.43174 20.3891C4.22157 21.6144 5.50772 22.5489 6.60816 21.9704L12 19.1357L17.3918 21.9704C18.4923 22.5489 19.7784 21.6144 19.5683 20.3891L18.5385 14.3852L22.9006 10.1332C23.7909 9.2654 23.2996 7.75344 22.0693 7.57466L16.041 6.6987L13.3451 1.23618Z" fill="#F7C563"/>
</svg>
