<svg width="25" height="24" viewBox="0 0 25 24" fill="none" xmlns="http://www.w3.org/2000/svg">
<path d="M13.3684 3.951C14.0693 3.34675 14.5571 2.927 14.9623 2.62366C15.3595 2.32639 15.6218 2.18456 15.8541 2.10752C16.5394 1.88033 17.2835 1.90785 17.9501 2.18505C18.1761 2.27903 18.4272 2.43985 18.8013 2.76565C19.1831 3.0981 19.6385 3.55273 20.2929 4.20711L21.2313 5.14548C21.659 5.57321 21.8074 5.72428 21.9122 5.85895C22.7054 6.87785 22.7576 8.28996 22.0419 9.36467L22.8742 9.91897L22.0419 9.36467C21.9473 9.50671 21.8105 9.66833 21.4155 10.1265L20.181 11.5586C20.1314 11.616 20.0559 11.6442 19.9809 11.6332C19.0663 11.499 18.1642 11.9452 17.7158 12.7534L15.7734 16.2541C15.4662 16.8078 15.337 17.0392 15.1929 17.2573C15.1279 17.3558 15.0603 17.4527 14.9903 17.5478C14.8355 17.7583 14.6619 17.9606 14.2463 18.4427C13.7224 19.0505 13.3806 19.4448 13.0939 19.7132C12.8192 19.9703 12.6864 20.0215 12.6119 20.0383C12.491 20.0657 12.3661 20.0703 12.2435 20.0519L12.0956 21.0409L12.2435 20.0519C12.167 20.0405 12.0314 19.9993 11.7406 19.7653C11.4367 19.5205 11.0691 19.1549 10.5048 18.5906L6.07006 14.1558C5.42685 13.5126 5.01019 13.0935 4.73819 12.7458C4.47971 12.4154 4.44463 12.2621 4.43896 12.1703L3.44157 12.2319L4.43896 12.1703C4.4349 12.1046 4.43734 12.0386 4.44624 11.9734C4.45868 11.8823 4.50499 11.732 4.78717 11.4216C5.08411 11.0949 5.53059 10.7077 6.21956 10.1138L13.3684 3.951Z" stroke="white" stroke-width="2"/>
<path d="M13 3.5L14.8445 4.55399C15.0148 4.65132 15.1 4.69999 15.1797 4.75067C15.9896 5.26567 16.5874 6.05475 16.8639 6.97388C16.8911 7.06433 16.9149 7.15949 16.9625 7.34981C17.0174 7.56977 17.0449 7.67975 17.0767 7.7828C17.4004 8.83341 18.1422 9.70448 19.1279 10.1913C19.2246 10.2391 19.3288 10.2838 19.5372 10.3731L21 11C19.9735 11.4106 19.4602 11.6159 19.0317 11.94C18.8033 12.1128 18.5941 12.3096 18.4077 12.527C18.058 12.935 17.8218 13.4348 17.3492 14.4343L16.3249 16.6011C16.1263 17.0212 16.027 17.2313 15.9045 17.4278C15.8823 17.4635 15.8595 17.4989 15.8361 17.5339C15.7075 17.7265 15.557 17.9035 15.2561 18.2576L15.1406 18.3934C13.9882 19.7492 13.412 20.427 12.6589 20.5328C12.5279 20.5512 12.3955 20.5566 12.2635 20.5488C11.5042 20.5042 10.8752 19.8752 9.61698 18.617L5.88302 14.883C4.62484 13.6248 3.99575 12.9958 3.95117 12.2365C3.94342 12.1045 3.94878 11.9721 3.96718 11.8411C4.07297 11.088 4.75084 10.5118 6.10658 9.3594L13 3.5Z" fill="white"/>
<path d="M8.68518 14.1791C9.14666 13.7946 9.82523 13.8254 10.25 14.2501C10.6748 14.6749 10.7055 15.3535 10.321 15.8149L4.81779 22.4185C4.24318 23.1081 3.95588 23.4528 3.57718 23.5081C3.51136 23.5177 3.44476 23.5207 3.37834 23.5171C2.99619 23.4963 2.67886 23.179 2.04419 22.5443L1.95568 22.4558C1.32101 21.8211 1.00368 21.5038 0.982885 21.1217C0.979271 21.0552 0.982293 20.9886 0.991905 20.9228C1.04721 20.5441 1.39197 20.2568 2.0815 19.6822L8.68518 14.1791Z" fill="white"/>
<path d="M19.8787 12.4851C19.95 12.2 20.2061 12 20.5 12C20.7939 12 21.05 12.2 21.1213 12.4851L22.0149 16.059C22.2613 17.0446 21.5159 17.9993 20.5 17.9993C19.4841 17.9993 18.7387 17.0446 18.9851 16.059L19.8787 12.4851Z" fill="white"/>
</svg>
