<svg width="8" height="8" viewBox="0 0 8 8" fill="none" xmlns="http://www.w3.org/2000/svg">
<path fill-rule="evenodd" clip-rule="evenodd" d="M0.581131 5.08114C0.368527 4.86853 0.262226 4.76223 0.226554 4.6381C0.200622 4.54786 0.200622 4.45214 0.226555 4.3619C0.262227 4.23777 0.368529 4.13147 0.581134 3.91887C0.738517 3.76148 0.817208 3.68279 0.911691 3.64468C0.980764 3.61682 1.05519 3.60475 1.12953 3.60933C1.23121 3.61561 1.33075 3.66538 1.52982 3.76492L3 4.50004L5.95711 1.12045C6.19848 0.844592 6.31917 0.706664 6.4792 0.671152C6.50733 0.664908 6.53595 0.661109 6.56474 0.659796C6.72849 0.652327 6.88098 0.75399 7.18596 0.957317L7.20406 0.969381C7.5535 1.20235 7.72822 1.31883 7.77925 1.49372C7.78816 1.52424 7.79413 1.55554 7.7971 1.58719C7.81408 1.76859 7.69455 1.94124 7.4555 2.28655L4.78233 6.14796C4.22837 6.94816 3.95139 7.34826 3.55368 7.4268C3.48491 7.44038 3.41491 7.44669 3.34483 7.44563C2.93948 7.43951 2.59539 7.09542 1.90722 6.40724L0.581131 5.08114Z" fill="white"/>
</svg>
