<svg width="24" height="24" viewBox="0 0 24 24" fill="none" xmlns="http://www.w3.org/2000/svg">
<path fill-rule="evenodd" clip-rule="evenodd" d="M23.7853 11.2289L23.703 14.1889C23.6135 17.4117 23.5687 19.0231 22.6515 20.0973C22.4911 20.2852 22.3136 20.4578 22.1213 20.613C21.022 21.5 19.41 21.5 16.1859 21.5H7.81395C4.58985 21.5 2.9778 21.5 1.87849 20.613C1.68622 20.4578 1.50873 20.2852 1.34831 20.0973C0.431105 19.023 0.386354 17.4116 0.296852 14.1888L0.21465 11.2288C0.120508 7.83883 0.0734374 6.14386 0.99132 4.99853C1.15139 4.79879 1.33027 4.61488 1.52549 4.44932C2.64489 3.5 4.34051 3.5 7.73175 3.5H16.2682C19.6595 3.5 21.3551 3.5 22.4745 4.44934C22.6697 4.6149 22.8486 4.79881 23.0087 4.99855C23.9266 6.1439 23.8795 7.83889 23.7853 11.2289ZM4.75 6.5C4.19772 6.5 3.75 6.94772 3.75 7.5V8.5C3.75 9.05228 4.19772 9.5 4.75 9.5H5.75C6.30228 9.5 6.75 9.05228 6.75 8.5V7.5C6.75 6.94772 6.30228 6.5 5.75 6.5H4.75ZM4.75 11C4.19772 11 3.75 11.4477 3.75 12V13C3.75 13.5523 4.19772 14 4.75 14H5.75C6.30228 14 6.75 13.5523 6.75 13V12C6.75 11.4477 6.30228 11 5.75 11H4.75ZM8.25 7.5C8.25 6.94772 8.69772 6.5 9.25 6.5H10.25C10.8023 6.5 11.25 6.94772 11.25 7.5V8.5C11.25 9.05228 10.8023 9.5 10.25 9.5H9.25C8.69772 9.5 8.25 9.05228 8.25 8.5V7.5ZM9.25 11C8.69772 11 8.25 11.4477 8.25 12V13C8.25 13.5523 8.69772 14 9.25 14H10.25C10.8023 14 11.25 13.5523 11.25 13V12C11.25 11.4477 10.8023 11 10.25 11H9.25ZM5.25 16.5C5.25 15.9477 5.69772 15.5 6.25 15.5H17.75C18.3023 15.5 18.75 15.9477 18.75 16.5V17.5C18.75 18.0523 18.3023 18.5 17.75 18.5H6.25C5.69772 18.5 5.25 18.0523 5.25 17.5V16.5ZM13.75 6.5C13.1977 6.5 12.75 6.94772 12.75 7.5V8.5C12.75 9.05228 13.1977 9.5 13.75 9.5H14.75C15.3023 9.5 15.75 9.05228 15.75 8.5V7.5C15.75 6.94772 15.3023 6.5 14.75 6.5H13.75ZM17.25 7.5C17.25 6.94772 17.6977 6.5 18.25 6.5H19.25C19.8023 6.5 20.25 6.94772 20.25 7.5V8.5C20.25 9.05228 19.8023 9.5 19.25 9.5H18.25C17.6977 9.5 17.25 9.05228 17.25 8.5V7.5ZM13.75 11C13.1977 11 12.75 11.4477 12.75 12V13C12.75 13.5523 13.1977 14 13.75 14H14.75C15.3023 14 15.75 13.5523 15.75 13V12C15.75 11.4477 15.3023 11 14.75 11H13.75ZM17.25 12C17.25 11.4477 17.6977 11 18.25 11H19.25C19.8023 11 20.25 11.4477 20.25 12V13C20.25 13.5523 19.8023 14 19.25 14H18.25C17.6977 14 17.25 13.5523 17.25 13V12Z" fill="white"/>
</svg>
