<svg width="25" height="24" viewBox="0 0 25 24" fill="none" xmlns="http://www.w3.org/2000/svg">
<path d="M8.77702 1.74821C8.76206 1.48836 8.75459 1.35843 8.70019 1.25935C8.64972 1.16744 8.57163 1.09372 8.47697 1.04862C8.37494 1 8.24479 1 7.98451 1C7.72388 1 7.59356 1 7.49144 1.04871C7.39671 1.0939 7.3186 1.16775 7.26817 1.2598C7.21382 1.35904 7.20652 1.48915 7.19193 1.74937L6.73134 9.9616C6.46052 9.92845 6.25669 9.86667 6.08244 9.75156C5.93994 9.65741 5.81455 9.53962 5.7117 9.40327C5.44029 9.04342 5.40823 8.53057 5.34413 7.50487L5.04663 2.74485C5.03043 2.48572 5.02233 2.35615 4.96757 2.25744C4.91702 2.16632 4.83926 2.09327 4.74516 2.0485C4.64323 2 4.51341 2 4.25377 2C3.99179 2 3.86081 2 3.75833 2.04912C3.66374 2.09446 3.5858 2.1684 3.53555 2.26048C3.48111 2.36024 3.47423 2.49104 3.46046 2.75265L3.10239 9.55593C3.03943 10.7521 3.64225 11.8853 4.66941 12.5016C5.26073 12.8564 5.89457 13.1089 6.5464 13.259L6.11142 21.0147C6.06271 21.8832 6.03835 22.3174 6.2676 22.6129C6.30752 22.6644 6.35237 22.7118 6.40151 22.7546C6.68372 23 7.12201 23 7.9986 23C8.87636 23 9.31524 23 9.59757 22.7541C9.64673 22.7113 9.69159 22.6638 9.7315 22.6123C9.96072 22.3163 9.9357 21.8815 9.88566 21.012L9.43966 13.2622C10.0964 13.1125 10.7352 12.859 11.3307 12.5016C12.3579 11.8853 12.9607 10.7521 12.8978 9.55593L12.5397 2.75265C12.5259 2.49104 12.519 2.36024 12.4646 2.26048C12.4143 2.1684 12.3364 2.09446 12.2418 2.04912C12.1393 2 12.0084 2 11.7464 2C11.4867 2 11.3569 2 11.255 2.0485C11.1609 2.09327 11.0831 2.16632 11.0326 2.25744C10.9778 2.35615 10.9697 2.48572 10.9535 2.74485L10.656 7.50487C10.5919 8.53057 10.5599 9.04342 10.2884 9.40327C10.1856 9.53962 10.0602 9.65741 9.9177 9.75156C9.7394 9.86934 9.53014 9.93129 9.24983 9.96386L8.77702 1.74821Z" fill="white"/>
<path d="M20.0312 16.8681C20.0167 16.7727 20.0094 16.7249 20.0205 16.6778C20.0224 16.6698 20.0251 16.6605 20.0279 16.6528C20.0438 16.607 20.0733 16.5734 20.1321 16.5062C20.5783 15.9964 21.0377 15.7038 21.4544 15.4383C22.319 14.8875 23.0001 14.4535 23.0001 12.44C23.0001 7.86128 21.4059 3.67634 18.0589 1.37525C17.7446 1.15917 17.3194 1.28046 17.1401 1.61709C17.0482 1.78971 17.0001 1.9823 17.0001 2.17788V21.125C17.0001 21.9469 17.0001 22.3578 17.2271 22.6344C17.2686 22.685 17.315 22.7315 17.3657 22.773C17.6423 23 18.0533 23 18.8752 23C19.6942 23 20.1036 23 20.3892 22.7421C20.4378 22.6982 20.4907 22.6392 20.5291 22.5861C20.7546 22.2744 20.7131 21.893 20.6301 21.1302C20.5099 20.0258 20.3038 18.6599 20.0312 16.8681Z" fill="white"/>
</svg>
