<svg width="24" height="24" viewBox="0 0 24 24" fill="none" xmlns="http://www.w3.org/2000/svg">
<path d="M4.9578 9.06479C4.85399 8.13056 4.78815 7.52166 4.79379 7.06534C4.79917 6.6305 4.87139 6.48658 4.92602 6.41152C4.96564 6.35709 5.01064 6.30681 5.06036 6.26142C5.12893 6.19883 5.26399 6.11116 5.69558 6.0578C6.14849 6.0018 6.76094 6 7.70092 6H16.2991C17.2391 6 17.8515 6.0018 18.3044 6.0578C18.736 6.11116 18.8711 6.19883 18.9396 6.26142C18.9894 6.30681 19.0344 6.35709 19.074 6.41151L19.8137 5.87309L19.074 6.41152C19.1286 6.48658 19.2008 6.6305 19.2062 7.06534C19.2119 7.52166 19.146 8.13056 19.0422 9.06479L18.2239 16.4293C18.0689 17.8245 17.9599 18.7936 17.7979 19.534C17.6401 20.2551 17.4522 20.6539 17.2026 20.9465C17.0276 21.1518 16.8257 21.3325 16.6024 21.4838C16.2839 21.6995 15.8669 21.8422 15.1328 21.9194C14.379 21.9987 13.4038 22 12 22C10.5962 22 9.62103 21.9987 8.86722 21.9194C8.13312 21.8422 7.71607 21.6995 7.39762 21.4838C7.17431 21.3325 6.97242 21.1518 6.79742 20.9465L6.06046 21.575L6.79742 20.9465C6.54785 20.6539 6.35989 20.2551 6.2021 19.534C6.04007 18.7936 5.9311 17.8245 5.77608 16.4293L4.9578 9.06479Z" stroke="white" stroke-width="2"/>
<path fill-rule="evenodd" clip-rule="evenodd" d="M18.7374 1.02781L21.3709 1.78024C21.7683 1.89379 21.967 1.95057 22.0689 2.099C22.0866 2.12493 22.1019 2.15247 22.1146 2.18127C22.1868 2.34615 22.13 2.54487 22.0165 2.94231L21.9835 3.05769C21.8699 3.45513 21.8132 3.65385 21.6647 3.75569C21.6388 3.77348 21.6113 3.78878 21.5825 3.80139C21.4176 3.87362 21.2189 3.81684 20.8214 3.70329L18.2422 2.96637C17.4437 2.73823 16.9284 2.59267 16.531 2.52801C16.1558 2.46697 16.013 2.50208 15.9312 2.53676C15.8743 2.56086 15.8198 2.59017 15.7683 2.62433C15.6942 2.67349 15.5862 2.77324 15.4302 3.11982C15.265 3.48698 15.1022 3.99716 14.8521 4.78906L10.2366 19.4048C10.1121 19.7989 10.0499 19.996 9.89873 20.0937C9.87232 20.1108 9.84437 20.1253 9.81523 20.1371C9.64842 20.2048 9.45134 20.1425 9.05718 20.0181L8.94275 19.9819C8.5486 19.8575 8.35152 19.7952 8.25381 19.644C8.23675 19.6176 8.22221 19.5897 8.2104 19.5605C8.14275 19.3937 8.20498 19.1967 8.32945 18.8025L12.9449 4.18679C12.9506 4.16878 12.9563 4.15084 12.9619 4.13295C13.1901 3.41024 13.3871 2.78622 13.6064 2.29905C13.8403 1.77924 14.1479 1.29933 14.6624 0.957903C14.8168 0.855431 14.9804 0.767487 15.151 0.695198C15.7196 0.454339 16.2896 0.462421 16.8522 0.553968C17.3795 0.639766 18.0087 0.81957 18.7374 1.02781Z" fill="white"/>
<path d="M8.3731 11.351C8.18392 11.3718 7.99515 11.4009 7.80733 11.4385L6.33514 11.7329C6.00529 11.7989 5.84037 11.8319 5.71365 11.8981C5.41101 12.0562 5.20995 12.3577 5.18042 12.6979C5.16805 12.8403 5.20104 13.0053 5.26701 13.3351L6.39545 18.9773C6.6656 20.3281 6.80067 21.0035 7.2486 21.437C7.32759 21.5135 7.41275 21.5833 7.50321 21.6457C8.0162 21.9999 8.70494 21.9999 10.0824 21.9999H13.9175C15.295 21.9999 15.9837 21.9999 16.4967 21.6457C16.5872 21.5833 16.6724 21.5135 16.7513 21.437C17.1993 21.0035 17.3343 20.3281 17.6045 18.9773L18.6466 13.7668C18.699 13.5046 18.7253 13.3735 18.7252 13.2743C18.725 12.7223 18.2776 12.2749 17.7256 12.2747C17.6264 12.2747 17.4953 12.3009 17.2331 12.3533L16.1926 12.5614C14.7715 12.8456 13.2962 12.6481 12 11.9999C11.774 11.887 11.5426 11.7877 11.307 11.7022L9.19011 18.4058C9.06564 18.8 9.0034 18.9971 8.85222 19.0948C8.82581 19.1119 8.79786 19.1264 8.76872 19.1382C8.60191 19.2059 8.40483 19.1436 8.01068 19.0191C7.38469 18.8215 7.36244 17.7365 7.5 17.0004L8.3731 11.351Z" fill="white"/>
</svg>
