<svg width="24" height="24" viewBox="0 0 24 24" fill="none" xmlns="http://www.w3.org/2000/svg">
<path fill-rule="evenodd" clip-rule="evenodd" d="M10.4729 6.78408L9.83731 9.53836C9.66476 10.2861 10.2327 11 11 11C11.3328 10.6557 12.4319 8.56857 12.8439 7.2335C13.8328 6.49253 15.0796 5.99121 16.275 5.99121C19.4149 5.99121 21.5001 8.58152 21.5001 11.9945C21.5001 15.095 20.0683 18.5176 18.82 20.9123C18.7815 20.986 18.7623 21.0229 18.6633 21.1767C17.7869 22.5383 15.7115 23.3074 14.1594 22.8457C13.9841 22.7936 13.8795 22.7517 13.6702 22.668L13.6702 22.668C13.4886 22.5954 13.3978 22.5591 13.3085 22.5281C12.4609 22.2347 11.5392 22.2348 10.6916 22.5281C10.6023 22.5591 10.5115 22.5954 10.33 22.668L10.3299 22.668L10.3298 22.6681C10.1207 22.7517 10.0161 22.7936 9.8408 22.8457C8.28869 23.3074 6.21319 22.5383 5.33678 21.1766C5.2378 21.0228 5.21859 20.986 5.18019 20.9123C3.9319 18.5175 2.50013 15.095 2.50006 11.9945C2.49999 8.58161 4.58522 5.99121 7.72506 5.99121C8.65882 5.99121 9.62389 6.29707 10.4729 6.78408Z" fill="white"/>
<path fill-rule="evenodd" clip-rule="evenodd" d="M10.4999 11.0004L13.6894 1.88759C13.826 1.49746 13.8942 1.30239 14.0484 1.20938C14.0753 1.19314 14.1037 1.17947 14.1331 1.16856C14.302 1.10607 14.497 1.17435 14.8872 1.3109L14.9544 1.33441C15.3628 1.47738 15.5671 1.54887 15.6598 1.7105C15.6759 1.73865 15.6893 1.76831 15.6997 1.79905C15.7594 1.97555 15.6777 2.17592 15.5142 2.57665L11.9438 11.3304L10.4999 11.0004Z" fill="white"/>
<path d="M11.6289 3.28354C11.8655 3.52032 11.7655 3.89368 11.4421 3.98039C10.585 4.21021 8.98116 4.50045 7.34658 4.06246C5.71199 3.62448 4.46813 2.5712 3.84076 1.94361C3.60406 1.70683 3.7041 1.33347 4.02748 1.24676C4.8846 1.01694 6.48844 0.726699 8.12303 1.16469C9.75762 1.60267 11.0015 2.65595 11.6289 3.28354Z" fill="white"/>
</svg>
