<svg width="24" height="24" viewBox="0 0 24 24" fill="none" xmlns="http://www.w3.org/2000/svg">
<path d="M23.4899 5.82577C23.6473 5.63093 23.434 5.36426 23.1966 5.44395C22.6238 5.63617 22.0259 5.77184 21.4075 5.84538C22.154 5.39498 22.762 4.73393 23.1479 3.94341C23.2488 3.73668 23.0207 3.54571 22.8151 3.64894C22.1005 4.00777 21.3328 4.27539 20.5266 4.43446C19.7027 3.55177 18.5296 3 17.2306 3C14.7377 3 12.7181 5.034 12.7181 7.54362C12.7181 7.89946 12.7573 8.247 12.8343 8.57931C9.34026 8.40262 6.21555 6.82111 4.00413 4.38355C3.76849 4.12382 3.34355 4.15985 3.21864 4.48755C3.02592 4.99317 2.9201 5.54213 2.9201 6.11608C2.9201 7.69315 3.71712 9.08331 4.92742 9.89885C4.47532 9.88403 4.03943 9.80215 3.6298 9.66286C3.27586 9.54251 2.87488 9.77664 2.93536 10.1456C3.23099 11.9489 4.69689 13.4784 6.50356 13.8436C6.12131 13.9479 5.71033 14.0006 5.30095 13.9999C4.92199 13.9994 4.61364 14.3604 4.79318 14.6941C5.54399 16.0897 7.0017 17.0456 8.68142 17.0774C7.1376 18.2958 5.19149 19.0235 3.07689 19.0235C2.81269 19.0235 2.69729 19.3821 2.93052 19.5062C4.71818 20.4577 6.75475 21 8.91867 21C17.2202 21 21.7609 14.0762 21.7609 8.07115C21.7609 7.87454 21.7554 7.67792 21.7472 7.48269C22.3975 7.0107 22.9839 6.4522 23.4899 5.82577Z" fill="#262626"/>
</svg>
