<svg width="16" height="16" viewBox="0 0 16 16" fill="none" xmlns="http://www.w3.org/2000/svg">
<g clip-path="url(#clip0_17192_1808)">
<path d="M10.3758 14.3666L11.3325 3.72615C11.4663 2.23833 10.4099 0.906973 8.93057 0.699073V0.699073C7.45128 0.491173 6.06883 1.47977 5.78731 2.94683L5.5351 4.26118" stroke="white" stroke-width="2"/>
<path fill-rule="evenodd" clip-rule="evenodd" d="M7.1692 15.3333H8.82991C9.42956 15.3333 9.72939 15.3333 9.9835 15.3006C11.7354 15.0753 13.132 13.7276 13.4198 11.9849C13.4615 11.7321 13.4722 11.4325 13.4936 10.8332C13.5164 10.1943 13.5278 9.87479 13.5015 9.60793C13.3197 7.76209 11.8929 6.28336 10.0547 6.03579C9.78896 6 9.46928 6 8.82991 6H7.16919C6.52983 6 6.21014 6 5.94439 6.03579C4.10622 6.28336 2.67936 7.76209 2.49755 9.60793C2.47127 9.87479 2.48268 10.1943 2.5055 10.8332C2.5269 11.4325 2.5376 11.7321 2.57934 11.9849C2.86706 13.7276 4.26374 15.0753 6.01561 15.3006C6.26971 15.3333 6.56954 15.3333 7.1692 15.3333ZM8.6659 10.8218C9.06461 10.5913 9.33289 10.1603 9.33289 9.66667C9.33289 8.93029 8.73594 8.33333 7.99956 8.33333C7.26318 8.33333 6.66622 8.93029 6.66622 9.66667C6.66622 10.1601 6.93421 10.5908 7.33256 10.8214V12.6667C7.33256 13.0349 7.63104 13.3333 7.99923 13.3333C8.36742 13.3333 8.6659 13.0349 8.6659 12.6667V10.8218Z" fill="white"/>
</g>
<defs>
<clipPath id="clip0_17192_1808">
<rect width="16" height="16" fill="white"/>
</clipPath>
</defs>
</svg>
