<svg width="16" height="16" viewBox="0 0 16 16" fill="none" xmlns="http://www.w3.org/2000/svg">
<path d="M5.98101 6.4038C5.03473 6.59305 4.39581 5.46461 5.04496 4.75054L7.26006 2.31393C7.65682 1.8775 8.34318 1.8775 8.73994 2.31393L10.955 4.75054C11.6042 5.4646 10.9653 6.59305 10.019 6.4038L9.56893 6.31379C8.53323 6.10665 7.46677 6.10665 6.43107 6.31379L5.98101 6.4038Z" fill="#262626" fill-opacity="0.2"/>
<path d="M5.98101 9.5962C5.03473 9.40695 4.39581 10.5354 5.04496 11.2495L7.26006 13.6861C7.65682 14.1225 8.34318 14.1225 8.73994 13.6861L10.955 11.2495C11.6042 10.5354 10.9653 9.40695 10.019 9.5962L9.56893 9.68621C8.53323 9.89335 7.46677 9.89335 6.43107 9.68621L5.98101 9.5962Z" fill="#262626" fill-opacity="0.2"/>
</svg>
