<svg width="20" height="20" viewBox="0 0 20 20" fill="none" xmlns="http://www.w3.org/2000/svg">
<g clip-path="url(#clip0_26058_11244)">
<circle cx="10" cy="10" r="8" fill="#FF8066"/>
<path d="M9.15492 11.3967C9.28959 11.5 9.48112 11.5 9.86419 11.5H10.1343C10.5174 11.5 10.7089 11.5 10.8436 11.3967C10.8672 11.3785 10.8892 11.3583 10.9092 11.3363C11.0234 11.2107 11.0393 11.0198 11.0711 10.6381L11.3747 6.99482C11.4063 6.61499 11.4222 6.42508 11.3858 6.27078C11.3058 5.9307 11.054 5.65707 10.7217 5.54902C10.571 5.5 10.3804 5.5 9.99927 5.5C9.61812 5.5 9.42755 5.5 9.27681 5.54902C8.94455 5.65707 8.69277 5.9307 8.61269 6.27078C8.57636 6.42508 8.59218 6.61499 8.62383 6.99482L8.92744 10.6381C8.95925 11.0198 8.97516 11.2107 9.08933 11.3363C9.10935 11.3583 9.1313 11.3785 9.15492 11.3967Z" fill="white"/>
<path d="M9.99927 14.5C10.5516 14.5 10.9993 14.0523 10.9993 13.5C10.9993 12.9477 10.5516 12.5 9.99927 12.5C9.44698 12.5 8.99927 12.9477 8.99927 13.5C8.99927 14.0523 9.44698 14.5 9.99927 14.5Z" fill="white"/>
</g>
<defs>
<clipPath id="clip0_26058_11244">
<rect width="16" height="16" fill="white" transform="translate(2 2)"/>
</clipPath>
</defs>
</svg>
