<svg width="24" height="24" viewBox="0 0 24 24" fill="none" xmlns="http://www.w3.org/2000/svg">
<path d="M4.16309 12.8269C5.12006 8.1692 11.4789 0.479712 12.6357 1.0281C13.7926 1.57837 18.9954 8.16934 19.8447 12.8269C20.7118 17.5825 17.9164 23.0648 12.457 22.9998C6.99743 23.0649 3.14984 17.759 4.16309 12.8269Z" fill="#4F8BEC"/>
<path fill-rule="evenodd" clip-rule="evenodd" d="M6.17585 15.2117C6.14389 14.9371 6.36614 14.7039 6.63563 14.7658C8.38059 15.1664 10.3968 17.5177 10.9158 19.4492C10.9806 19.6906 10.8606 19.9798 10.6654 20.0343C8.8094 20.5329 6.71153 17.5197 6.32766 16.0222C6.25744 15.751 6.20706 15.48 6.17585 15.2117Z" fill="white"/>
</svg>
