<svg width="40" height="40" viewBox="0 0 40 40" fill="none" xmlns="http://www.w3.org/2000/svg">
<g clip-path="url(#clip0_24913_24969)">
<path d="M29.354 8.6781H10.646C6.97551 8.6781 4 11.6536 4 15.3241V24.6761C4 28.3466 6.97551 31.3221 10.646 31.3221H29.354C33.0245 31.3221 36 28.3466 36 24.6761V15.3241C36 11.6536 33.0245 8.6781 29.354 8.6781ZM24.8594 20.4551L16.109 24.6285C15.8759 24.7397 15.6065 24.5697 15.6065 24.3114V15.7038C15.6065 15.4418 15.8829 15.272 16.1166 15.3905L24.8669 19.8247C25.1271 19.9565 25.1226 20.3296 24.8594 20.4551Z" fill="#F61C0D"/>
</g>
<defs>
<clipPath id="clip0_24913_24969">
<rect width="32" height="32" fill="white" transform="translate(4 4)"/>
</clipPath>
</defs>
</svg>
