<svg width="106" height="116" viewBox="0 0 106 116" fill="none" xmlns="http://www.w3.org/2000/svg">
<g clip-path="url(#clip0_24569_13664)">
<mask id="mask0_24569_13664" style="mask-type:luminance" maskUnits="userSpaceOnUse" x="2" y="2" width="102" height="112">
<path d="M45 4.6188C49.9504 1.76068 56.0496 1.76068 61 4.6188L95.2295 24.3812C100.18 27.2393 103.229 32.5214 103.229 38.2376V77.7624C103.229 83.4786 100.18 88.7607 95.2295 91.6188L61 111.381C56.0496 114.239 49.9504 114.239 45 111.381L10.7705 91.6188C5.82011 88.7607 2.77053 83.4786 2.77053 77.7624V38.2376C2.77053 32.5214 5.82011 27.2393 10.7705 24.3812L45 4.6188Z" fill="white"/>
</mask>
<g mask="url(#mask0_24569_13664)">
<circle cx="53" cy="8" r="64" fill="#3C8AF3"/>
<path d="M64.3054 138.416C33.6998 120.746 23.2135 81.611 40.8837 51.0053C58.5538 20.3997 97.6891 9.91347 128.295 27.5836C158.9 45.2538 169.387 84.389 151.716 114.995C134.046 145.6 94.911 156.087 64.3054 138.416Z" fill="#4BA85C"/>
<path fill-rule="evenodd" clip-rule="evenodd" d="M115.478 21.9378C109.116 50.5817 83.5593 72 52.9999 72C46.3202 72 39.8794 70.9767 33.8259 69.0782C35.2081 62.8842 37.5425 56.7923 40.8836 51.0053C56.163 24.5406 87.4921 13.1193 115.478 21.9378Z" fill="#AAE5DE"/>
<path d="M-22.2947 27.5836C8.3109 9.91347 47.4462 20.3997 65.1163 51.0053C82.7865 81.611 72.3002 120.746 41.6946 138.416C11.089 156.087 -28.0463 145.6 -45.7164 114.995C-63.3866 84.389 -52.9003 45.2538 -22.2947 27.5836Z" fill="#EFCF33"/>
<path fill-rule="evenodd" clip-rule="evenodd" d="M53 35.8628C57.6705 40.1555 61.7768 45.2212 65.1163 51.0055C80.394 77.4671 74.6237 110.305 53 130.133C31.3763 110.305 25.606 77.4671 40.8837 51.0055C44.2232 45.2212 48.3295 40.1555 53 35.8628Z" fill="#E5E0D8"/>
<path fill-rule="evenodd" clip-rule="evenodd" d="M-9.47803 21.9378C18.5077 13.1193 49.8368 24.5406 65.1162 51.0053C68.4573 56.7923 70.7918 62.8842 72.1739 69.0782C66.1204 70.9767 59.6797 72 52.9999 72C22.4406 72 -3.1163 50.5817 -9.47803 21.9378Z" fill="#FFF7B2"/>
<path fill-rule="evenodd" clip-rule="evenodd" d="M33.8259 69.0782C35.2081 62.8842 37.5425 56.7924 40.8836 51.0055C44.2231 45.2212 48.3294 40.1555 52.9999 35.8628C57.6704 40.1555 61.7767 45.2212 65.1162 51.0055C68.4573 56.7924 70.7917 62.8842 72.1739 69.0782C66.1204 70.9767 59.6797 72 52.9999 72C46.3202 72 39.8794 70.9767 33.8259 69.0782Z" fill="white"/>
</g>
<path d="M45 4.6188C49.9504 1.76068 56.0496 1.76068 61 4.6188L95.2295 24.3812C100.18 27.2393 103.229 32.5214 103.229 38.2376V77.7624C103.229 83.4786 100.18 88.7607 95.2295 91.6188L61 111.381C56.0496 114.239 49.9504 114.239 45 111.381L10.7705 91.6188C5.82011 88.7607 2.77053 83.4786 2.77053 77.7624V38.2376C2.77053 32.5214 5.82011 27.2393 10.7705 24.3812L45 4.6188Z" stroke="url(#paint0_linear_24569_13664)" stroke-width="4"/>
</g>
<defs>
<linearGradient id="paint0_linear_24569_13664" x1="8.71544" y1="18.0056" x2="88.3336" y2="106.121" gradientUnits="userSpaceOnUse">
<stop stop-color="#EDEDF2"/>
<stop offset="0.15" stop-color="#EDEDF2"/>
<stop offset="1" stop-color="#C9C9D9"/>
</linearGradient>
<clipPath id="clip0_24569_13664">
<rect width="106" height="116" fill="white"/>
</clipPath>
</defs>
</svg>
