<svg width="106" height="116" viewBox="0 0 106 116" fill="none" xmlns="http://www.w3.org/2000/svg">
<g clip-path="url(#clip0_23464_19324)">
<mask id="mask0_23464_19324" style="mask-type:alpha" maskUnits="userSpaceOnUse" x="2" y="2" width="102" height="112">
<path d="M45 4.6188C49.9504 1.76068 56.0496 1.76068 61 4.6188L95.2295 24.3812C100.18 27.2393 103.229 32.5214 103.229 38.2376V77.7624C103.229 83.4786 100.18 88.7607 95.2295 91.6188L61 111.381C56.0496 114.239 49.9504 114.239 45 111.381L10.7705 91.6188C5.82011 88.7607 2.77053 83.4786 2.77053 77.7624V38.2376C2.77053 32.5214 5.82011 27.2393 10.7705 24.3812L45 4.6188Z" fill="#F5F5F5"/>
</mask>
<g mask="url(#mask0_23464_19324)">
<path d="M53 52C68.464 52 81 39.464 81 24C81 8.53603 68.464 -4 53 -4C37.536 -4 25 8.53603 25 24C25 39.464 37.536 52 53 52Z" fill="#FC7059"/>
<path d="M79.8501 72C95.3141 72 107.85 59.464 107.85 44C107.85 28.536 95.3141 16 79.8501 16C64.3861 16 51.8501 28.536 51.8501 44C51.8501 59.464 64.3861 72 79.8501 72Z" fill="#EFCF33"/>
<path d="M26.1499 72C41.6139 72 54.1499 59.464 54.1499 44C54.1499 28.536 41.6139 16 26.1499 16C10.6859 16 -1.8501 28.536 -1.8501 44C-1.8501 59.464 10.6859 72 26.1499 72Z" fill="#295C43"/>
<path d="M53 92C68.464 92 81 79.464 81 64C81 48.536 68.464 36 53 36C37.536 36 25 48.536 25 64C25 79.464 37.536 92 53 92Z" fill="#FFF7B2"/>
<path d="M106.7 92C122.164 92 134.7 79.464 134.7 64C134.7 48.536 122.164 36 106.7 36C91.236 36 78.7 48.536 78.7 64C78.7 79.464 91.236 92 106.7 92Z" fill="#3C8AF3"/>
<path d="M-0.699953 92C14.764 92 27.3 79.464 27.3 64C27.3 48.536 14.764 36 -0.699953 36C-16.1639 36 -28.7 48.536 -28.7 64C-28.7 79.464 -16.1639 92 -0.699953 92Z" fill="#3C8AF3"/>
<path d="M79.8501 112C95.3141 112 107.85 99.464 107.85 84C107.85 68.536 95.3141 56 79.8501 56C64.3861 56 51.8501 68.536 51.8501 84C51.8501 99.464 64.3861 112 79.8501 112Z" fill="#FC7059"/>
<path d="M26.1499 112C41.6139 112 54.1499 99.464 54.1499 84C54.1499 68.536 41.6139 56 26.1499 56C10.6859 56 -1.8501 68.536 -1.8501 84C-1.8501 99.464 10.6859 112 26.1499 112Z" fill="#EFCF33"/>
<path d="M53 132C68.464 132 81 119.464 81 104C81 88.536 68.464 76 53 76C37.536 76 25 88.536 25 104C25 119.464 37.536 132 53 132Z" fill="#3C8AF3"/>
</g>
<path d="M45 4.6188C49.9504 1.76068 56.0496 1.76068 61 4.6188L95.2295 24.3812C100.18 27.2393 103.229 32.5214 103.229 38.2376V77.7624C103.229 83.4786 100.18 88.7607 95.2295 91.6188L61 111.381C56.0496 114.239 49.9504 114.239 45 111.381L10.7705 91.6188C5.82011 88.7607 2.77053 83.4786 2.77053 77.7624V38.2376C2.77053 32.5214 5.82011 27.2393 10.7705 24.3812L45 4.6188Z" stroke="url(#paint0_linear_23464_19324)" stroke-width="4"/>
</g>
<defs>
<linearGradient id="paint0_linear_23464_19324" x1="8.71544" y1="18.0056" x2="88.3336" y2="106.121" gradientUnits="userSpaceOnUse">
<stop stop-color="#EDEDF2"/>
<stop offset="0.15" stop-color="#EDEDF2"/>
<stop offset="1" stop-color="#C9C9D9"/>
</linearGradient>
<clipPath id="clip0_23464_19324">
<rect width="106" height="116" fill="white"/>
</clipPath>
</defs>
</svg>
